<?xml version="1.0" standalone="no"?>
<!DOCTYPE svg PUBLIC "-//W3C//DTD SVG 1.1//EN" "http://www.w3.org/Graphics/SVG/1.1/DTD/svg11.dtd" >
<svg xmlns="http://www.w3.org/2000/svg" xmlns:xlink="http://www.w3.org/1999/xlink" version="1.1">
<metadata></metadata>
<defs>
<font id="6809_chargenregular" horiz-adv-x="1380" >
<font-face units-per-em="2048" ascent="1411" descent="-637" />
<missing-glyph horiz-adv-x="671" />
<glyph unicode="&#x28;C&#x29;" horiz-adv-x="1374" d="M104 266q0 53 37 78q-37 25 -37 84q0 53 37 80q-37 25 -37 82q0 53 37 80q-37 25 -37 82q0 53 37 79q-37 25 -37 82q0 53 37 82q-37 20 -37 80q0 47 28 73t69 26q39 0 67.5 -26t28.5 -73q0 -29 -11.5 -49t-27.5 -31q16 -14 27.5 -33.5t11.5 -48.5t-11.5 -49t-27.5 -33 q16 -12 27.5 -32.5t11.5 -46.5q0 -29 -11.5 -49.5t-27.5 -32.5q16 -12 27.5 -33t11.5 -47q0 -29 -11.5 -49.5t-27.5 -32.5q16 -12 27.5 -32.5t11.5 -47.5q0 -29 -11.5 -50.5t-27.5 -33.5q16 -12 27.5 -30.5t11.5 -47.5q0 -49 -28.5 -74.5t-67.5 -25.5q-41 0 -69 25.5 t-28 74.5zM266 104q0 47 28 72t68 25q53 0 80 -43q31 43 84 43t80 -43q31 43 84 43t80 -41q31 41 82 41t82 -41q27 41 80 41q39 0 67.5 -25t28.5 -72q0 -49 -28.5 -74.5t-67.5 -25.5q-57 0 -80 41q-14 -23 -35.5 -32t-46.5 -9q-55 0 -82 41q-12 -23 -33.5 -32t-46.5 -9 q-57 0 -84 43q-12 -23 -33.5 -33t-46.5 -10q-57 0 -84 43q-12 -23 -33.5 -33t-46.5 -10q-41 0 -68.5 25.5t-27.5 74.5zM266 1237q0 47 28 72.5t68 25.5q25 0 46.5 -10t33.5 -31q29 41 84 41q25 0 46.5 -10t33.5 -31q29 41 84 41q25 0 46.5 -10t33.5 -31q29 41 82 41t82 -41 q25 41 80 41q39 0 67.5 -25.5t28.5 -72.5t-28.5 -72.5t-67.5 -25.5q-55 0 -80 41q-29 -41 -82 -41t-82 41q-12 -20 -33.5 -30.5t-46.5 -10.5q-57 0 -84 43q-12 -23 -33.5 -33t-46.5 -10q-57 0 -84 43q-12 -23 -33.5 -33t-46.5 -10q-41 0 -68.5 25.5t-27.5 72.5zM430 428 q0 53 37 80q-37 25 -37 82q0 53 37 80q-37 25 -37 82q0 53 37 79q-37 25 -37 82q0 47 27.5 73t68.5 26q25 0 46.5 -10.5t33.5 -32.5q27 43 84 43q25 0 46.5 -10.5t33.5 -32.5q27 43 82 43q39 0 67.5 -25.5t28.5 -73.5q0 -47 -28.5 -73.5t-67.5 -26.5q-53 0 -82 41 q-12 -20 -33.5 -30.5t-46.5 -10.5q-53 0 -84 43q-6 -14 -22 -25q16 -12 27.5 -32.5t11.5 -46.5q0 -29 -11.5 -49.5t-27.5 -32.5q16 -12 27.5 -33t11.5 -47q0 -29 -11.5 -49.5t-27.5 -32.5q16 -10 22 -27q29 45 84 45q53 0 80 -43q31 43 82 43q39 0 67.5 -25.5t28.5 -72.5 q0 -49 -28.5 -74.5t-67.5 -25.5q-53 0 -82 41q-12 -20 -33.5 -30.5t-46.5 -10.5q-57 0 -84 43q-12 -23 -33.5 -33t-46.5 -10q-41 0 -68.5 25.5t-27.5 74.5zM1077 266q0 51 37 78q-37 27 -37 84q0 27 10.5 47.5t26.5 32.5q-37 27 -37 82q0 27 10.5 47t26.5 33q-37 27 -37 82 q0 27 10.5 47t26.5 32q-37 27 -37 82q0 29 11.5 48.5t27.5 33.5q-16 10 -27.5 31t-11.5 49q0 47 28 73t69 26t68.5 -26t27.5 -73q0 -57 -39 -80q39 -29 39 -82q0 -55 -39 -82q39 -27 39 -79q0 -55 -39 -82q39 -27 39 -80q0 -55 -39 -82q39 -27 39 -80q0 -57 -39 -84 q39 -27 39 -78q0 -49 -28 -74.5t-68 -25.5q-41 0 -69 25.5t-28 74.5z" />
<glyph unicode="&#x28;R&#x29;" horiz-adv-x="1374" d="M104 266q0 53 37 78q-37 25 -37 84q0 53 37 80q-37 25 -37 82q0 53 37 80q-37 25 -37 82q0 53 37 79q-37 25 -37 82q0 53 37 82q-37 20 -37 80q0 47 28 73t69 26q39 0 67.5 -26t28.5 -73q0 -29 -11.5 -49t-27.5 -31q16 -14 27.5 -33.5t11.5 -48.5t-11.5 -49t-27.5 -33 q16 -12 27.5 -32.5t11.5 -46.5q0 -29 -11.5 -49.5t-27.5 -32.5q16 -12 27.5 -33t11.5 -47q0 -29 -11.5 -49.5t-27.5 -32.5q16 -12 27.5 -32.5t11.5 -47.5q0 -29 -11.5 -50.5t-27.5 -33.5q16 -12 27.5 -30.5t11.5 -47.5q0 -49 -28.5 -74.5t-67.5 -25.5q-41 0 -69 25.5 t-28 74.5zM266 104q0 47 28 72t68 25q53 0 80 -43q31 43 84 43t80 -43q31 43 84 43t80 -41q31 41 82 41t82 -41q27 41 80 41q39 0 67.5 -25t28.5 -72q0 -49 -28.5 -74.5t-67.5 -25.5q-57 0 -80 41q-14 -23 -35.5 -32t-46.5 -9q-55 0 -82 41q-12 -23 -33.5 -32t-46.5 -9 q-57 0 -84 43q-12 -23 -33.5 -33t-46.5 -10q-57 0 -84 43q-12 -23 -33.5 -33t-46.5 -10q-41 0 -68.5 25.5t-27.5 74.5zM266 1237q0 47 28 72.5t68 25.5q25 0 46.5 -10t33.5 -31q29 41 84 41q25 0 46.5 -10t33.5 -31q29 41 84 41q25 0 46.5 -10t33.5 -31q29 41 82 41t82 -41 q25 41 80 41q39 0 67.5 -25.5t28.5 -72.5t-28.5 -72.5t-67.5 -25.5q-55 0 -80 41q-29 -41 -82 -41t-82 41q-12 -20 -33.5 -30.5t-46.5 -10.5q-57 0 -84 43q-12 -23 -33.5 -33t-46.5 -10q-57 0 -84 43q-12 -23 -33.5 -33t-46.5 -10q-41 0 -68.5 25.5t-27.5 72.5zM430 428 q0 53 37 80q-37 25 -37 82q0 53 37 80q-37 25 -37 82q0 53 37 79q-37 25 -37 82q0 47 27.5 73t68.5 26q25 0 46.5 -10.5t33.5 -32.5q27 43 84 43q25 0 46.5 -10.5t33.5 -32.5q27 43 82 43q39 0 67.5 -25.5t28.5 -73.5q0 -55 -39 -82q39 -27 39 -79q0 -47 -28.5 -74 t-67.5 -27q-41 0 -68.5 27t-27.5 74q0 53 37 79q-6 4 -12.5 9.5t-10.5 13.5q-12 -20 -33.5 -30.5t-46.5 -10.5q-53 0 -84 43q-6 -14 -22 -25q16 -12 27.5 -32.5t11.5 -46.5q0 -29 -11.5 -49.5t-27.5 -32.5q16 -10 22 -27q29 45 84 45q39 0 67.5 -25.5t28.5 -72.5t-28.5 -74 t-67.5 -27q-53 0 -84 43q-6 -14 -22 -24q16 -12 27.5 -32.5t11.5 -47.5q0 -49 -29 -74.5t-68 -25.5q-41 0 -68.5 25.5t-27.5 74.5zM756 428q0 47 27.5 72.5t68.5 25.5q39 0 67.5 -25.5t28.5 -72.5q0 -49 -28.5 -74.5t-67.5 -25.5q-41 0 -68.5 25.5t-27.5 74.5zM1077 266 q0 51 37 78q-37 27 -37 84q0 27 10.5 47.5t26.5 32.5q-37 27 -37 82q0 27 10.5 47t26.5 33q-37 27 -37 82q0 27 10.5 47t26.5 32q-37 27 -37 82q0 29 11.5 48.5t27.5 33.5q-16 10 -27.5 31t-11.5 49q0 47 28 73t69 26t68.5 -26t27.5 -73q0 -57 -39 -80q39 -29 39 -82 q0 -55 -39 -82q39 -27 39 -79q0 -55 -39 -82q39 -27 39 -80q0 -55 -39 -82q39 -27 39 -80q0 -57 -39 -84q39 -27 39 -78q0 -49 -28 -74.5t-68 -25.5q-41 0 -69 25.5t-28 74.5z" />
<glyph horiz-adv-x="0" />
<glyph unicode="&#xd;" horiz-adv-x="671" />
<glyph horiz-adv-x="671" />
<glyph unicode=" "  horiz-adv-x="671" />
<glyph unicode="&#x09;" horiz-adv-x="671" />
<glyph unicode="&#xa0;" horiz-adv-x="671" />
<glyph unicode="!" horiz-adv-x="622" d="M0 1239q0 47 27.5 71.5t68.5 24.5q55 0 82 -41q23 41 82 41q53 0 82 -41q23 41 80 41q41 0 68.5 -24.5t27.5 -71.5q0 -55 -39 -80q39 -27 39 -84q0 -55 -39 -80q39 -27 39 -82t-39 -79q39 -27 39 -84q0 -55 -39 -80q39 -27 39 -82t-39 -80q39 -27 39 -82 q0 -47 -28.5 -72.5t-69.5 -25.5q-53 0 -78 41q-31 -41 -84 -41q-39 0 -67.5 25.5t-28.5 72.5q0 53 41 82q-41 25 -41 80q0 53 41 82q-41 25 -41 80t41 84q-41 25 -41 79q0 53 41 82q-41 25 -41 80t41 84q-18 8 -25 23q-29 -41 -84 -41q-39 0 -66.5 25.5t-27.5 72.5zM162 100 q0 47 28.5 72t69.5 25q51 0 82 -41q25 41 80 41q41 0 68.5 -25t27.5 -72t-28.5 -72.5t-69.5 -25.5q-53 0 -78 41q-31 -41 -84 -41q-39 0 -67.5 25.5t-28.5 72.5z" />
<glyph unicode="&#x22;" horiz-adv-x="1054" d="M104 750q0 47 28 72.5t69 25.5t69.5 -25.5t28.5 -72.5t-28.5 -72t-69.5 -25t-69 24.5t-28 72.5zM104 1075q0 57 41 84q-41 23 -41 80q0 47 28 71.5t69 24.5q55 0 82 -41q27 41 82 41q39 0 68.5 -24.5t29.5 -71.5q0 -55 -43 -80q43 -29 43 -84t-43 -80q43 -29 43 -82 q0 -47 -30 -72.5t-68 -25.5q-41 0 -70 25.5t-29 72.5q0 55 41 82q-12 6 -24 25q-29 -41 -82 -41q-41 0 -69 24.5t-28 71.5zM592 750q0 47 28.5 72.5t69.5 25.5q39 0 67.5 -25.5t28.5 -72.5t-28.5 -72t-67.5 -25q-41 0 -69.5 24.5t-28.5 72.5zM592 1075q0 55 41 84 q-41 25 -41 80q0 47 28.5 71.5t69.5 24.5q53 0 80 -41q27 41 82 41q39 0 68.5 -24.5t29.5 -71.5q0 -55 -41 -80q41 -29 41 -84t-41 -80q41 -29 41 -82q0 -47 -29.5 -72.5t-68.5 -25.5q-41 0 -68.5 25.5t-27.5 72.5q0 53 41 82q-16 6 -27 25q-29 -41 -80 -41 q-41 0 -69.5 24.5t-28.5 71.5z" />
<glyph unicode="#" horiz-adv-x="1327" d="M78 262q0 47 28.5 72.5t69.5 25.5q51 0 80 -41q8 14 25 25q-39 25 -39 82q0 55 39 82q-39 25 -39 80t39 82q-39 25 -39 80q0 57 39 84q-39 25 -39 79q0 55 39 82q-12 6 -25 25q-29 -41 -82 -41q-41 0 -68.5 24.5t-27.5 71.5t28.5 73t69.5 26q53 0 80 -41q8 14 25 26 q-39 25 -39 80q0 47 27.5 71.5t68.5 24.5q39 0 67.5 -24.5t28.5 -71.5q0 -55 -41 -80q14 -12 27 -26q27 41 82 41q53 0 80 -41q27 41 82 41q57 0 79 -41q27 41 84 41q53 0 80 -41q8 14 27 26q-43 23 -43 80q0 47 28.5 71.5t69.5 24.5q39 0 67.5 -24.5t28.5 -71.5 q0 -55 -41 -80q8 -6 14.5 -12t10.5 -14q27 41 84 41q39 0 66.5 -26t27.5 -73t-27.5 -71.5t-68.5 -24.5q-53 0 -82 41q-6 -18 -25 -25q41 -29 41 -82q0 -55 -41 -79q41 -29 41 -84t-41 -80q41 -29 41 -82q0 -55 -41 -80q41 -29 41 -82q0 -57 -41 -82q18 -12 25 -25 q29 41 84 41q39 0 66.5 -25.5t27.5 -72.5t-27.5 -72.5t-66.5 -25.5q-57 0 -84 43q-6 -16 -25 -27q41 -25 41 -80q0 -47 -28.5 -72.5t-67.5 -25.5q-41 0 -69.5 25.5t-28.5 72.5q0 57 43 80q-14 8 -27 27q-29 -43 -80 -43q-57 0 -84 43q-25 -43 -79 -43q-55 0 -82 43 q-29 -43 -80 -43q-55 0 -82 43q-14 -18 -27 -27q41 -25 41 -80q0 -47 -28.5 -72.5t-67.5 -25.5q-41 0 -68.5 25.5t-27.5 72.5q0 55 39 80q-14 10 -25 27q-29 -43 -82 -43q-41 0 -68.5 25.5t-27.5 72.5zM393 344q14 -8 27 -25q29 41 82 41q51 0 80 -41q29 41 82 41 q55 0 79 -41q29 41 84 41q51 0 80 -41q10 16 27 25q-43 23 -43 82q0 55 43 82q-43 23 -43 80q0 55 43 82q-43 23 -43 80t43 84q-43 23 -43 79q0 55 43 82q-14 6 -27 25q-29 -41 -80 -41q-55 0 -84 41q-25 -41 -79 -41q-53 0 -82 41q-29 -41 -80 -41q-53 0 -82 41 q-16 -18 -27 -25q41 -29 41 -82q0 -55 -41 -79q41 -29 41 -84t-41 -80q41 -29 41 -82q0 -55 -41 -80q41 -29 41 -82q0 -57 -41 -82z" />
<glyph unicode="$" horiz-adv-x="1378" d="M104 100q0 47 28 72t69 25q55 0 80 -41q31 41 81 41q55 0 80 -41q6 8 12.5 14t14.5 10q-39 27 -39 82t39 82q-39 25 -39 82q0 55 39 82q-12 4 -27 22q-25 -41 -73 -41q-51 0 -76 23t-25 76q0 47 28 72.5t66 25.5q55 0 80 -41q12 16 27 25q-39 25 -39 80q0 57 39 84 q-39 25 -39 79q0 55 39 82q-8 4 -14 10.5t-13 14.5q-25 -41 -73 -41q-100 0 -101 96q0 47 28 73t66 26q57 0 80 -41q12 14 27 26q-39 25 -39 80q0 47 28.5 71.5t67.5 24.5q41 0 69 -24.5t28 -71.5q0 -55 -41 -80q18 -12 24 -26q29 41 82 41q55 0 82 -41q4 8 10 14t15 12 q-39 27 -39 80q0 47 27.5 71.5t66.5 24.5q41 0 69.5 -24.5t28.5 -71.5q0 -55 -41 -80q8 -6 15.5 -12t11.5 -14q23 41 80 41q55 0 82 -41q27 41 82 41q39 0 67.5 -26t28.5 -73t-28.5 -71.5t-69.5 -24.5q-51 0 -80 41q-29 -41 -82 -41q-55 0 -80 41q-10 -18 -27 -25 q41 -29 41 -82q0 -55 -41 -79q41 -29 41 -84t-41 -80q18 -10 27 -25q25 41 82 41q39 0 67.5 -25.5t28.5 -72.5t-28.5 -73t-69.5 -26q-55 0 -80 41q-10 -16 -27 -22q41 -29 41 -82q0 -57 -41 -82q41 -29 41 -82t-41 -82q16 -6 27 -24q25 41 82 41q39 0 67.5 -25t28.5 -72 t-28.5 -72.5t-69.5 -25.5q-55 0 -80 41q-29 -41 -84 -41q-51 0 -80 41q-29 -41 -82 -41q-51 0 -82 41q-25 -41 -80 -41q-53 0 -84 41q-25 -41 -80 -41q-50 0 -81 41q-25 -41 -74 -41q-51 0 -77 22.5t-26 75.5zM104 750q0 57 39 84q-39 25 -39 79q0 47 28 73t69 26 t68.5 -25.5t27.5 -73.5q0 -55 -41 -79q41 -29 41 -84q0 -47 -27.5 -72t-68.5 -25t-69 24.5t-28 72.5zM582 180q14 -6 24 -24q31 41 82 41q53 0 82 -41q6 18 25 24q-39 29 -39 82t39 82q-39 27 -39 82q0 53 39 82q-18 8 -25 22q-29 -41 -82 -41q-51 0 -82 41q-6 -16 -24 -22 q41 -29 41 -82q0 -57 -41 -82q41 -29 41 -82t-41 -82zM582 670q18 -10 24 -25q31 41 82 41q53 0 82 -41q6 12 25 25q-39 27 -39 80q0 55 39 84q-39 27 -39 79q0 53 39 82q-18 6 -25 25q-29 -41 -82 -41q-51 0 -82 41q-10 -18 -24 -25q41 -29 41 -82q0 -55 -41 -79 q41 -29 41 -84t-41 -80zM1081 262q0 53 39 82q-39 27 -39 82q0 47 28 71.5t67 24.5q41 0 69.5 -24.5t28.5 -71.5q0 -59 -41 -82q41 -27 41 -82q0 -47 -28.5 -72.5t-69.5 -25.5q-39 0 -67 25.5t-28 72.5z" />
<glyph unicode="%" d="M104 100q0 47 29 72t70 25t68.5 -25t27.5 -72t-27.5 -72.5t-68.5 -25.5t-70 25.5t-29 72.5zM104 913q0 55 41 82q-41 23 -41 80t41 84q-41 23 -41 80q0 47 29 71.5t70 24.5q57 0 80 -41q29 41 82 41q57 0 79 -41q29 41 84 41q41 0 69 -24.5t28 -71.5q0 -55 -41 -80 q41 -29 41 -84t-41 -80q41 -29 41 -82q0 -47 -28 -72.5t-69 -25.5q-53 0 -84 41q-25 -41 -79 -41q-51 0 -82 41q-25 -41 -80 -41q-41 0 -70 25.5t-29 72.5zM258 995q16 -10 25 -26q29 43 82 43q57 0 79 -43q6 8 12.5 15t14.5 11q-41 23 -41 80t41 84q-12 4 -27 23 q-25 -41 -79 -41q-51 0 -82 41q-6 -16 -25 -23q41 -29 41 -84t-41 -80zM266 262q0 47 29 72.5t70 25.5t69.5 -25.5t28.5 -72.5t-28.5 -72.5t-69.5 -25.5t-70 25.5t-29 72.5zM430 426q0 47 28.5 71.5t69.5 24.5t69 -24.5t28 -71.5t-28 -72.5t-69 -25.5t-69.5 25.5t-28.5 72.5 zM592 588q0 53 41 82q-41 25 -41 80q0 47 29.5 72.5t68.5 25.5q41 0 69.5 -25.5t28.5 -72.5q0 -55 -40 -80q40 -29 40 -82q0 -47 -28.5 -73t-69.5 -26q-39 0 -68.5 26t-29.5 73zM756 100q0 55 41 80q-41 29 -41 82t41 82q-41 25 -41 82q0 47 28.5 71.5t67.5 24.5 q57 0 82 -41q29 41 82 41t82 -41q29 41 80 41q41 0 69.5 -24.5t28.5 -71.5q0 -57 -41 -82q41 -29 41 -82t-41 -82q41 -25 41 -80q0 -47 -28.5 -72.5t-69.5 -25.5q-51 0 -80 41q-29 -41 -82 -41t-82 41q-25 -41 -82 -41q-39 0 -67.5 25.5t-28.5 72.5zM756 913q0 47 28.5 73 t67.5 26q41 0 69.5 -26t28.5 -73t-28.5 -72.5t-69.5 -25.5q-39 0 -67.5 25.5t-28.5 72.5zM909 180q18 -6 25 -24q29 41 82 41t82 -41q6 18 24 24q-41 29 -41 82t41 82q-18 12 -24 25q-29 -41 -82 -41t-82 41q-6 -12 -25 -25q41 -29 41 -82t-41 -82zM918 1075q0 47 29.5 73 t68.5 26q41 0 68.5 -26t27.5 -73t-27.5 -71.5t-68.5 -24.5q-39 0 -68.5 24.5t-29.5 71.5zM1081 1239q0 47 29 71.5t68 24.5q41 0 69.5 -24.5t28.5 -71.5t-28.5 -72.5t-69.5 -25.5q-39 0 -68 25.5t-29 72.5z" />
<glyph unicode="&#x26;" horiz-adv-x="1308" d="M104 262q0 55 41 82q-41 23 -41 82q0 55 41 82q-41 23 -41 80q0 55 41 82q-41 23 -41 80q0 47 29 72.5t70 25.5q57 0 80 -41q8 14 24 27q-41 23 -41 79q0 55 41 82q-12 6 -24 25q-25 -41 -80 -41q-41 0 -70 24.5t-29 71.5t29 73t70 26q57 0 80 -41q8 14 24 26 q-41 23 -41 80q0 47 29 71.5t70 24.5q57 0 79 -41q29 41 82 41q59 0 82 -41q27 41 82 41q41 0 69.5 -24.5t28.5 -71.5t-28.5 -72.5t-69.5 -25.5q-53 0 -82 41q-25 -41 -82 -41q-51 0 -82 41q-6 -16 -22 -23q41 -29 41 -84t-41 -80q16 -10 22 -26q29 43 82 43q59 0 82 -43 q27 43 82 43q57 0 80 -43q10 16 27 26q-41 25 -41 80q0 47 28.5 73t67.5 26q41 0 69.5 -26t28.5 -73q0 -55 -41 -80q18 -10 25 -26q27 43 84 43q39 0 66.5 -25.5t27.5 -73.5q0 -47 -27.5 -72.5t-68.5 -25.5q-53 0 -82 41q-6 -14 -25 -22q41 -29 41 -84t-41 -80 q41 -29 41 -82q0 -55 -41 -80q41 -29 41 -82q0 -57 -41 -82q41 -29 41 -82t-41 -82q18 -6 25 -24q29 41 82 41t82 -41q29 41 80 41q41 0 69.5 -25t28.5 -72t-28.5 -72.5t-69.5 -25.5q-51 0 -80 41q-29 -41 -82 -41t-82 41q-25 -41 -82 -41q-51 0 -82 41q-25 -41 -80 -41 q-53 0 -82 41q-25 -41 -82 -41q-51 0 -82 41q-25 -41 -79 -41q-41 0 -70 25.5t-29 72.5q0 57 41 80q-14 8 -24 27q-25 -43 -80 -43q-41 0 -70 25.5t-29 72.5zM422 180q14 -6 22 -24q31 41 82 41q57 0 82 -41q29 41 82 41q55 0 80 -41q10 18 27 24q-41 29 -41 82t41 82 q-41 25 -41 82q0 53 41 82q-41 25 -41 80q0 53 41 82q-41 25 -41 80t41 84q-16 6 -27 22q-25 -41 -80 -41q-53 0 -82 41q-25 -41 -82 -41q-51 0 -82 41q-6 -16 -22 -22q41 -29 41 -84t-41 -80q41 -29 41 -82q0 -55 -41 -80q41 -29 41 -82q0 -57 -41 -82q41 -29 41 -82 t-41 -82z" />
<glyph unicode="'" horiz-adv-x="567" d="M104 750q0 47 28 72.5t69 25.5t69.5 -25.5t28.5 -72.5t-28.5 -72t-69.5 -25t-69 24.5t-28 72.5zM104 1075q0 57 41 84q-41 23 -41 80q0 47 28 71.5t69 24.5q55 0 82 -41q27 41 82 41q39 0 68.5 -24.5t29.5 -71.5q0 -55 -43 -80q43 -29 43 -84t-43 -80q43 -29 43 -82 q0 -47 -30 -72.5t-68 -25.5q-41 0 -70 25.5t-29 72.5q0 55 41 82q-12 6 -24 25q-29 -41 -82 -41q-41 0 -69 24.5t-28 71.5z" />
<glyph unicode="(" horiz-adv-x="729" d="M180 262q0 53 41 82q-41 25 -41 82q0 53 41 82q-41 25 -41 80q0 53 41 82q-41 25 -41 80t41 84q-41 25 -41 79q0 53 41 82q-41 25 -41 80q0 47 29 73t70 26q57 0 79 -41l25 26q-39 25 -39 80q0 47 28.5 71.5t69.5 24.5q53 0 80 -41q27 41 82 41q39 0 68.5 -24.5 t29.5 -71.5t-29.5 -72.5t-68.5 -25.5q-53 0 -82 41q-10 -16 -24 -23q41 -29 41 -84t-41 -80q41 -29 41 -82q0 -55 -41 -79q41 -29 41 -84t-41 -80q41 -29 41 -82q0 -55 -41 -80q41 -29 41 -82q0 -57 -41 -82q41 -29 41 -82t-41 -82q12 -6 24 -24q29 41 82 41q39 0 68.5 -25 t29.5 -72t-29.5 -72.5t-68.5 -25.5q-53 0 -82 41q-29 -41 -80 -41q-41 0 -69.5 25.5t-28.5 72.5q0 55 39 80q-6 4 -12 11.5t-13 15.5q-25 -43 -79 -43q-41 0 -70 25.5t-29 72.5z" />
<glyph unicode=")" horiz-adv-x="729" d="M27 100q0 47 27.5 72t68.5 25q53 0 82 -41q6 8 11 14t13 10q-41 29 -41 82t41 82q-41 25 -41 82q0 53 41 82q-41 25 -41 80q0 53 41 82q-41 25 -41 80t41 84q-41 25 -41 79q0 53 41 82q-41 25 -41 80t41 84q-10 4 -24 23q-29 -41 -82 -41q-41 0 -68.5 25.5t-27.5 72.5 t27.5 71.5t68.5 24.5q55 0 82 -41q23 41 82 41q41 0 68.5 -24.5t27.5 -71.5q0 -55 -39 -80q6 -6 13.5 -12t11.5 -14q23 41 80 41q41 0 69.5 -26t28.5 -73q0 -55 -39 -80q39 -27 39 -82t-39 -79q39 -27 39 -84q0 -55 -39 -80q39 -27 39 -82t-39 -80q39 -27 39 -82 q0 -57 -39 -82q39 -27 39 -82q0 -47 -29 -72.5t-69 -25.5q-55 0 -80 43q-8 -14 -25 -27q39 -25 39 -80q0 -47 -27.5 -72.5t-68.5 -25.5q-57 0 -82 41q-29 -41 -82 -41q-41 0 -68.5 25.5t-27.5 72.5z" />
<glyph unicode="*" horiz-adv-x="1054" d="M104 426q0 47 29 71.5t70 24.5q39 0 67.5 -24.5t28.5 -71.5t-28.5 -72.5t-67.5 -25.5q-41 0 -70 25.5t-29 72.5zM104 1075q0 47 29 73t70 26q39 0 67.5 -26t28.5 -73t-28.5 -71.5t-67.5 -24.5q-41 0 -70 24.5t-29 71.5zM266 588q0 47 29 72.5t70 25.5q55 0 79 -41 q12 16 27 25q-41 23 -41 80t41 84q-12 4 -27 22q-25 -41 -79 -41q-41 0 -70 25.5t-29 72.5t29 73t70 26q57 0 79 -43q6 8 12.5 15t14.5 11q-41 23 -41 80t41 84q-41 23 -41 80q0 47 28.5 71.5t69.5 24.5q39 0 68 -24.5t29 -71.5q0 -55 -41 -80q41 -29 41 -84t-41 -80 q14 -8 24 -26q27 43 82 43q39 0 68.5 -25.5t29.5 -73.5q0 -47 -29.5 -72.5t-68.5 -25.5q-53 0 -82 41q-10 -16 -24 -22q41 -29 41 -84t-41 -80q14 -10 24 -25q29 41 82 41q39 0 68.5 -25.5t29.5 -72.5t-29.5 -73t-68.5 -26q-53 0 -82 41q-10 -16 -24 -22q41 -29 41 -82 q0 -57 -41 -82q41 -29 41 -82q0 -47 -29 -72.5t-68 -25.5q-41 0 -69.5 25.5t-28.5 72.5q0 55 41 82q-41 23 -41 82q0 55 41 82q-12 4 -27 22q-25 -41 -79 -41q-41 0 -70 26t-29 73zM756 426q0 47 27.5 71.5t68.5 24.5q39 0 68.5 -24.5t29.5 -71.5t-29.5 -72.5t-68.5 -25.5 q-41 0 -68.5 25.5t-27.5 72.5zM756 1075q0 47 27.5 73t68.5 26q39 0 68.5 -26t29.5 -73t-29.5 -71.5t-68.5 -24.5q-41 0 -68.5 24.5t-27.5 71.5z" />
<glyph unicode="+" horiz-adv-x="1052" d="M104 750q0 47 29 72.5t70 25.5q55 0 78 -41q29 41 84 41q57 0 79 -41q8 14 25 27q-39 25 -39 79q0 55 39 82q-39 25 -39 80q0 47 28.5 73t67.5 26q41 0 70 -26t29 -73q0 -55 -41 -80q41 -29 41 -82q0 -55 -41 -79q18 -14 22 -27q29 41 82 41q59 0 82 -41q27 41 84 41 q39 0 66.5 -25.5t27.5 -72.5t-27.5 -72t-68.5 -25q-53 0 -82 41q-25 -41 -82 -41q-51 0 -82 41q-6 -14 -22 -24q41 -29 41 -82q0 -55 -41 -80q41 -29 41 -82q0 -47 -29 -72.5t-70 -25.5q-39 0 -67.5 25.5t-28.5 72.5q0 55 39 82q-39 25 -39 80t39 82q-16 8 -25 24 q-25 -41 -79 -41q-53 0 -84 41q-25 -41 -74 -41q-102 0 -103 97z" />
<glyph unicode="," horiz-adv-x="567" d="M104 -63q0 47 28 72.5t69 25.5t69.5 -25.5t28.5 -72.5t-28.5 -72t-69.5 -25t-69 24.5t-28 72.5zM104 262q0 55 41 82q-41 23 -41 82q0 47 28 71.5t69 24.5q53 0 82 -41q29 41 82 41q39 0 68.5 -24.5t29.5 -71.5q0 -57 -43 -82q43 -29 43 -82q0 -55 -43 -82q43 -25 43 -80 q0 -47 -30 -72.5t-68 -25.5q-41 0 -70 25.5t-29 72.5q0 57 41 80q-14 8 -24 27q-29 -43 -82 -43q-41 0 -69 25.5t-28 72.5z" />
<glyph unicode="-" horiz-adv-x="741" d="M29 750q0 47 29.5 72.5t68.5 25.5q53 0 82 -41q27 41 80 41q55 0 82 -41q27 41 82 41q53 0 82 -41q27 41 79 41q41 0 70 -25.5t29 -72.5t-29 -72t-70 -25q-51 0 -79 41q-31 -41 -82 -41q-53 0 -82 41q-29 -41 -82 -41q-51 0 -80 41q-31 -41 -82 -41q-39 0 -68.5 24.5 t-29.5 72.5z" />
<glyph unicode="." horiz-adv-x="567" d="M104 100q0 57 41 80q-41 27 -41 82q0 47 29 72.5t70 25.5q55 0 80 -41q31 41 82 41q41 0 69.5 -25.5t28.5 -72.5q0 -53 -41 -82q41 -25 41 -80q0 -47 -28.5 -72.5t-69.5 -25.5q-51 0 -82 41q-25 -41 -80 -41q-41 0 -70 25.5t-29 72.5z" />
<glyph unicode="/" horiz-adv-x="1171" d="M0 100q0 55 41 80q-41 29 -41 82q0 47 27.5 72.5t68.5 25.5q55 0 84 -41q6 14 23 25q-41 25 -41 82q0 47 28.5 71.5t69.5 24.5q53 0 82 -41q6 16 25 27q-41 25 -41 80q0 47 27.5 72.5t68.5 25.5q55 0 84 -41q6 14 22 25q-41 25 -41 80q0 47 29 72.5t70 25.5q55 0 82 -41 q4 8 10 14t14 13q-41 25 -41 79q0 47 28 73t69 26q55 0 81 -43q10 18 25 26q-41 25 -41 80q0 47 28.5 73t69.5 26q55 0 82 -41q8 14 25 26q-43 25 -43 80q0 47 29.5 71.5t68.5 24.5q41 0 69.5 -24.5t28.5 -71.5q0 -57 -41 -80q41 -27 41 -84q0 -47 -28.5 -71.5t-69.5 -24.5 q-51 0 -80 41q-10 -18 -26 -25q41 -27 41 -82q0 -47 -28 -72.5t-69 -25.5q-53 0 -82 41q-10 -16 -24 -22q41 -27 41 -84q0 -47 -29 -72t-69 -25q-51 0 -80 41q-8 -14 -27 -24q41 -27 41 -82q0 -47 -27.5 -73t-68.5 -26q-55 0 -80 41q-14 -18 -27 -22q41 -27 41 -82 q0 -47 -28.5 -72.5t-69.5 -25.5q-51 0 -80 41q-8 -14 -27 -25q43 -29 43 -82q0 -47 -28.5 -72.5t-69.5 -25.5q-55 0 -80 43q-6 -8 -12 -15.5t-14 -11.5q41 -25 41 -80q0 -47 -29 -72.5t-70 -25.5q-39 0 -67.5 25.5t-28.5 72.5z" />
<glyph unicode="0" d="M104 262q0 55 41 82q-41 23 -41 82q0 55 41 82q-41 23 -41 80q0 55 41 82q-41 23 -41 80t41 84q-41 23 -41 79q0 55 41 82q-41 23 -41 80q0 47 28 73t69 26q59 0 82 -41q8 14 24 26q-41 23 -41 80q0 47 29 71.5t70 24.5q57 0 79 -41q29 41 82 41q59 0 82 -41q27 41 82 41 q57 0 80 -41q29 41 82 41q55 0 82 -41q27 41 82 41q41 0 68.5 -24.5t27.5 -71.5q0 -55 -41 -80q18 -12 27 -26q27 41 80 41q41 0 69.5 -26t28.5 -73q0 -55 -41 -80q41 -29 41 -82q0 -55 -41 -79q41 -29 41 -84t-41 -80q41 -29 41 -82q0 -55 -41 -80q41 -29 41 -82 q0 -57 -41 -82q41 -29 41 -82q0 -47 -28.5 -72.5t-69.5 -25.5q-53 0 -80 43q-12 -18 -27 -27q41 -25 41 -80q0 -47 -27.5 -72.5t-68.5 -25.5q-53 0 -82 41q-29 -41 -82 -41q-51 0 -82 41q-25 -41 -80 -41q-53 0 -82 41q-25 -41 -82 -41q-51 0 -82 41q-25 -41 -79 -41 q-41 0 -70 25.5t-29 72.5q0 57 41 80q-14 8 -24 27q-25 -43 -82 -43q-41 0 -69 25.5t-28 72.5zM420 180q14 -6 24 -24q31 41 82 41q57 0 82 -41q29 41 82 41q55 0 80 -41q31 41 82 41q53 0 82 -41q12 18 24 24q-41 29 -40 82q0 53 40 82q-41 25 -40 82q0 53 40 82 q-41 25 -40 80q0 53 40 82q-41 25 -40 80q0 55 40 84q-14 6 -24 22q-29 -41 -82 -41q-39 0 -68.5 25.5t-29.5 72.5t29.5 73t68.5 26q55 0 82 -43q10 18 24 26q-41 25 -40 80q0 55 40 84q-14 6 -24 23q-29 -41 -82 -41q-51 0 -82 41q-25 -41 -80 -41q-53 0 -82 41 q-25 -41 -82 -41q-51 0 -82 41q-6 -16 -24 -23q43 -29 43 -84t-43 -80q43 -29 43 -82q0 -55 -43 -79q43 -29 43 -84t-43 -80q43 -29 43 -82q0 -55 -43 -80q16 -10 24 -27q31 41 82 41q41 0 70 -24.5t29 -71.5t-29 -72.5t-70 -25.5q-51 0 -82 41q-6 -16 -24 -25 q43 -29 43 -82q0 -55 -43 -82zM592 588q0 53 41 82q-41 25 -41 80q0 47 29.5 72.5t68.5 25.5q41 0 68.5 -25.5t27.5 -72.5q0 -55 -41 -80q41 -29 41 -82q0 -47 -27.5 -73t-68.5 -26q-39 0 -68.5 26t-29.5 73z" />
<glyph unicode="1" horiz-adv-x="661" d="M37 1239q0 47 27.5 71.5t68.5 24.5q57 0 80 -41q27 41 84 41q53 0 80 -41q27 41 82 41q39 0 68.5 -24.5t29.5 -71.5q0 -55 -41 -80q41 -29 41 -84t-41 -80q41 -29 41 -82q0 -55 -41 -79q41 -29 41 -84t-41 -80q41 -29 41 -82q0 -55 -41 -80q41 -29 41 -82q0 -57 -41 -82 q41 -29 41 -82t-41 -82q41 -25 41 -80q0 -47 -29.5 -72.5t-70.5 -25.5q-51 0 -80 41q-29 -41 -80 -41q-41 0 -69.5 25.5t-28.5 72.5q0 55 41 80q-41 29 -41 82t41 82q-41 25 -41 82q0 53 41 82q-41 25 -41 80q0 53 41 82q-41 25 -41 80t41 84q-41 25 -41 79q0 53 41 82 q-41 25 -41 80t41 84q-16 6 -27 23q-25 -41 -82 -41q-39 0 -66.5 25.5t-27.5 72.5z" />
<glyph unicode="2" d="M104 100q0 57 41 80q-41 27 -41 82t41 82q-41 23 -41 82q0 55 41 82q-41 23 -41 80q0 47 28 72.5t69 25.5q53 0 82 -41q8 14 24 25q-41 23 -41 80q0 47 29 72.5t70 25.5q53 0 79 -41q27 41 82 41q57 0 80 -41q27 41 84 41q53 0 80 -41q27 41 82 41t82 -41q8 14 24 27 q-41 25 -40 79q0 53 40 82q-41 25 -40 80q0 55 40 84q-14 6 -24 23q-29 -41 -82 -41t-82 41q-29 -41 -80 -41q-55 0 -84 41q-25 -41 -80 -41q-53 0 -82 41q-6 -14 -24 -23q41 -29 41 -84q0 -47 -29 -71.5t-67 -24.5q-53 0 -82 41q-29 -41 -82 -41q-41 0 -69 24.5t-28 71.5 t28 73t69 26q55 0 82 -41q8 14 24 26q-41 23 -41 80q0 47 29 71.5t70 24.5q53 0 79 -41q27 41 82 41q57 0 80 -41q27 41 84 41q53 0 80 -41q27 41 82 41t82 -41q23 41 82 41q39 0 67.5 -24.5t28.5 -71.5q0 -55 -41 -80q14 -12 27 -26q23 41 80 41q39 0 68.5 -26t29.5 -73 q0 -55 -41 -80q41 -29 41 -82q0 -47 -29.5 -72.5t-68.5 -25.5q-55 0 -80 41q-14 -18 -27 -22q41 -29 41 -84q0 -47 -28.5 -72t-67.5 -25q-57 0 -82 41q-29 -41 -82 -41t-82 41q-29 -41 -80 -41q-55 0 -84 41q-25 -41 -80 -41q-53 0 -82 41q-6 -12 -24 -24q41 -29 41 -82 q0 -55 -41 -80q41 -29 41 -82q0 -57 -41 -82q41 -29 41 -82t-41 -82q18 -6 24 -24q29 41 82 41q55 0 80 -41q29 41 84 41q51 0 80 -41q29 41 82 41t82 -41q25 41 82 41q51 0 82 -41q25 41 80 41q39 0 68.5 -25t29.5 -72t-29.5 -72.5t-68.5 -25.5q-55 0 -80 41 q-31 -41 -82 -41q-57 0 -82 41q-29 -41 -82 -41t-82 41q-29 -41 -80 -41q-55 0 -84 41q-25 -41 -80 -41q-53 0 -82 41q-29 -41 -79 -41q-53 0 -82 41q-29 -41 -82 -41q-41 0 -69 25.5t-28 72.5z" />
<glyph unicode="3" horiz-adv-x="1378" d="M104 262q0 47 29 72.5t70 25.5q51 0 80 -41q29 41 82 41q39 0 67.5 -25.5t28.5 -72.5q0 -53 -39 -82q14 -6 22 -24q29 41 82 41t82 -41q29 41 82 41q51 0 80 -41q29 41 82 41t82 -41q6 18 24 24q-41 29 -40 82q0 53 40 82q-41 25 -40 82q0 53 40 82q-41 25 -40 80 q0 53 40 82q-18 12 -24 24q-29 -41 -82 -41t-82 41q-29 -41 -80 -41q-53 0 -82 41q-29 -41 -82 -41q-41 0 -68.5 24.5t-27.5 72.5q0 47 27.5 72.5t68.5 25.5q55 0 82 -41q27 41 82 41q53 0 80 -41q27 41 82 41t82 -41q4 8 10 14t14 13q-41 25 -40 79q0 53 40 82 q-41 25 -40 80q0 55 40 84q-18 8 -24 23q-29 -41 -82 -41t-82 41q-29 -41 -80 -41q-53 0 -82 41q-29 -41 -78 -41q-29 0 -49 9t-37 32q-6 -16 -22 -23q39 -29 39 -84q0 -47 -29 -71.5t-67 -24.5q-53 0 -82 41q-29 -41 -80 -41q-41 0 -70 24.5t-29 71.5t29 73t70 26 q53 0 80 -41q8 14 24 26q-41 23 -41 80q0 47 29 71.5t70 24.5q53 0 79 -41q27 41 82 41t82 -41q27 41 82 41q53 0 80 -41q27 41 82 41t82 -41q23 41 82 41q39 0 66.5 -24.5t27.5 -71.5q0 -55 -39 -80q8 -6 15.5 -12t11.5 -14q23 41 80 41q39 0 67.5 -26t28.5 -73 q0 -55 -39 -80q39 -27 39 -82q0 -47 -28.5 -72.5t-67.5 -25.5q-55 0 -80 41q-10 -16 -27 -22q39 -27 39 -84q0 -55 -39 -80q18 -10 27 -25q25 41 80 41q39 0 67.5 -25.5t28.5 -72.5q0 -55 -39 -80q39 -27 39 -82q0 -57 -39 -82q39 -27 39 -82q0 -47 -28.5 -72.5t-69.5 -25.5 q-53 0 -78 43q-10 -16 -27 -27q39 -25 39 -80q0 -47 -27.5 -72.5t-66.5 -25.5q-57 0 -82 41q-29 -41 -82 -41t-82 41q-29 -41 -80 -41q-53 0 -82 41q-29 -41 -82 -41t-82 41q-29 -41 -79 -41q-41 0 -70 25.5t-29 72.5q0 57 41 80q-14 8 -24 27q-29 -43 -80 -43 q-41 0 -70 25.5t-29 72.5z" />
<glyph unicode="4" horiz-adv-x="1378" d="M104 426q0 55 41 82q-41 23 -41 80q0 55 41 82q-41 23 -41 80t41 84q-41 23 -41 79q0 55 41 82q-41 23 -41 80t41 84q-41 23 -41 80q0 47 28 71.5t69 24.5q57 0 80 -41q29 41 84 41q41 0 68.5 -24.5t27.5 -71.5q0 -55 -41 -80q41 -29 41 -84t-41 -80q41 -29 41 -82 q0 -55 -41 -79q41 -29 41 -84t-41 -80q41 -29 41 -82q0 -55 -41 -80q16 -10 24 -27q31 41 82 41q55 0 80 -41q31 41 82 41q57 0 82 -41q29 41 82 41t82 -41q6 16 24 27q-39 27 -38 80q0 53 38 82q-39 27 -38 80q0 55 38 84q-39 27 -38 79q0 53 38 82q-39 27 -38 80 q0 55 38 84q-39 27 -38 80q0 47 27.5 71.5t66.5 24.5q55 0 82 -41q27 41 82 41q41 0 68.5 -24.5t27.5 -71.5q0 -57 -41 -80q41 -27 41 -84t-41 -80q41 -27 41 -82q0 -57 -41 -79q41 -27 41 -84t-41 -80q41 -27 41 -82q0 -57 -41 -80q41 -27 41 -82q0 -59 -41 -82 q41 -27 41 -82t-41 -82q41 -23 41 -80q0 -47 -27.5 -72.5t-68.5 -25.5q-53 0 -82 41q-29 -41 -82 -41q-39 0 -66.5 25.5t-27.5 72.5q0 53 38 80q-39 29 -38 82q0 53 38 82q-18 12 -24 25q-29 -41 -82 -41t-82 41q-25 -41 -82 -41q-51 0 -82 41q-25 -41 -80 -41q-51 0 -82 41 q-25 -41 -79 -41q-53 0 -84 41q-25 -41 -80 -41q-41 0 -69 25.5t-28 72.5z" />
<glyph unicode="5" d="M104 262q0 47 29 72.5t70 25.5q55 0 80 -41q31 41 82 41q41 0 69.5 -25.5t28.5 -72.5q0 -53 -41 -82q12 -6 24 -24q29 41 82 41q55 0 80 -41q31 41 82 41q55 0 80 -41q31 41 84 41q55 0 80 -41q12 18 24 24q-41 29 -40 82q0 53 40 82q-41 25 -40 82q0 53 40 82 q-41 25 -40 80q0 53 40 82q-41 25 -40 80q0 55 40 84q-14 6 -24 22q-25 -41 -80 -41q-53 0 -84 41q-25 -41 -80 -41q-39 0 -67.5 25.5t-28.5 72.5t28.5 73t67.5 26q57 0 80 -43q29 43 84 43q57 0 80 -43q29 43 82 43q41 0 69.5 -25.5t28.5 -73.5q0 -55 -41 -79 q16 -12 25 -27q27 41 80 41q41 0 69.5 -25.5t28.5 -72.5q0 -55 -41 -80q41 -29 41 -82q0 -55 -41 -80q41 -29 41 -82q0 -57 -41 -82q41 -29 41 -82q0 -47 -28.5 -72.5t-69.5 -25.5q-53 0 -80 43q-10 -18 -25 -27q41 -25 41 -80q0 -47 -28.5 -72.5t-69.5 -25.5q-51 0 -82 41 q-25 -41 -80 -41q-53 0 -84 41q-25 -41 -80 -41q-51 0 -82 41q-25 -41 -80 -41q-53 0 -82 41q-25 -41 -81 -41q-41 0 -69 25.5t-28 72.5q0 57 41 80q-16 10 -26 27q-25 -43 -80 -43q-41 0 -70 25.5t-29 72.5zM104 750q0 57 41 84q-41 23 -41 79q0 55 41 82q-41 23 -41 80 t41 84q-41 23 -41 80q0 47 29 71.5t70 24.5q57 0 80 -41q29 41 82 41q59 0 81 -41q27 41 82 41q57 0 80 -41q29 41 82 41q57 0 80 -41q29 41 84 41q57 0 80 -41q29 41 82 41q55 0 82 -41q27 41 80 41q41 0 69.5 -24.5t28.5 -71.5t-28.5 -72.5t-69.5 -25.5q-51 0 -80 41 q-29 -41 -82 -41q-51 0 -82 41q-25 -41 -80 -41q-53 0 -84 41q-25 -41 -80 -41q-51 0 -82 41q-25 -41 -73 -41q-31 0 -51.5 9t-37.5 32q-10 -16 -24 -23q41 -29 41 -84t-41 -80q41 -29 41 -82q0 -55 -41 -79q16 -12 24 -27q27 41 82 41q41 0 69 -25.5t28 -72.5t-28 -72 t-69 -25q-53 0 -82 41q-25 -41 -81 -41q-51 0 -82 41q-25 -41 -80 -41q-41 0 -70 24.5t-29 72.5z" />
<glyph unicode="6" d="M104 262q0 55 43 82q-43 23 -43 82q0 55 43 82q-43 23 -43 80q0 55 43 82q-43 23 -43 80t43 84q-43 23 -43 79q0 55 43 82q-43 23 -43 80q0 47 29 73t70 26q57 0 80 -41q12 14 26 26q-41 23 -41 80q0 47 29 71.5t70 24.5q57 0 79 -41q29 41 82 41q57 0 80 -41 q29 41 82 41q59 0 82 -41q27 41 82 41q57 0 80 -41q29 41 82 41q41 0 69.5 -24.5t28.5 -71.5q0 -55 -41 -80q16 -12 25 -26q27 41 82 41q41 0 68.5 -26t27.5 -73t-27.5 -71.5t-68.5 -24.5q-53 0 -82 41q-25 -41 -82 -41q-39 0 -67.5 24.5t-28.5 71.5q0 55 41 84 q-16 6 -27 23q-25 -41 -80 -41q-53 0 -82 41q-25 -41 -82 -41q-51 0 -82 41q-25 -41 -80 -41q-51 0 -82 41q-6 -14 -24 -23q41 -29 41 -84t-41 -80q41 -29 41 -82q0 -55 -41 -79q8 -6 14 -12.5t10 -14.5q29 41 82 41q57 0 80 -41q29 41 82 41q59 0 82 -41q27 41 82 41 q57 0 80 -41q29 41 82 41q41 0 69.5 -25.5t28.5 -72.5q0 -55 -41 -80q14 -10 25 -25q29 41 82 41q41 0 68.5 -25.5t27.5 -72.5q0 -55 -41 -80q41 -29 41 -82q0 -57 -41 -82q41 -29 41 -82q0 -47 -27.5 -72.5t-68.5 -25.5q-55 0 -82 43q-10 -18 -25 -27q41 -25 41 -80 q0 -47 -28.5 -72.5t-69.5 -25.5q-51 0 -82 41q-25 -41 -80 -41q-53 0 -82 41q-25 -41 -82 -41q-51 0 -82 41q-25 -41 -80 -41q-51 0 -82 41q-25 -41 -79 -41q-41 0 -70 25.5t-29 72.5q0 57 41 80q-8 4 -14 11.5t-12 15.5q-25 -43 -80 -43q-41 0 -70 25.5t-29 72.5zM422 180 q18 -6 24 -24q31 41 82 41q55 0 80 -41q31 41 82 41q57 0 82 -41q29 41 82 41q55 0 80 -41q10 18 27 24q-41 29 -41 82t41 82q-41 25 -41 82q0 53 41 82q-41 25 -41 80q0 53 41 82q-18 10 -27 24q-25 -41 -80 -41q-53 0 -82 41q-25 -41 -82 -41q-51 0 -82 41 q-25 -41 -80 -41q-51 0 -82 41q-6 -12 -24 -24q41 -29 41 -82q0 -55 -41 -80q41 -29 41 -82q0 -57 -41 -82q41 -29 41 -82t-41 -82z" />
<glyph unicode="7" d="M104 1239q0 47 28 71.5t69 24.5q59 0 82 -41q27 41 82 41q57 0 79 -41q29 41 82 41q59 0 82 -41q27 41 82 41q57 0 80 -41q29 41 82 41q55 0 82 -41q27 41 82 41t82 -41q27 41 80 41q41 0 69.5 -24.5t28.5 -71.5q0 -55 -41 -80q41 -29 41 -84q0 -47 -28.5 -71.5 t-69.5 -24.5q-51 0 -80 41q-10 -18 -27 -25q41 -29 41 -82q0 -47 -27.5 -72.5t-68.5 -25.5q-53 0 -82 41q-10 -16 -25 -22q41 -29 41 -84q0 -47 -28.5 -72t-69.5 -25q-51 0 -82 41q-6 -12 -25 -24q41 -29 41 -82q0 -55 -41 -80q41 -29 41 -82q0 -57 -41 -82q41 -29 41 -82 t-41 -82q41 -25 41 -80q0 -47 -27.5 -72.5t-68.5 -25.5q-53 0 -82 41q-25 -41 -82 -41q-39 0 -67.5 25.5t-28.5 72.5q0 57 41 80q-41 27 -41 82t41 82q-41 23 -41 82q0 55 41 82q-41 23 -41 80q0 47 28.5 72.5t67.5 25.5q57 0 82 -41q8 14 25 25q-41 25 -41 80 q0 47 29.5 72.5t68.5 25.5q57 0 80 -41q4 8 11 14t16 13q-41 25 -41 79q0 47 28.5 73t67.5 26q55 0 82 -43q10 18 24 26q-41 25 -40 80q0 55 40 84q-14 6 -24 23q-29 -41 -82 -41q-51 0 -82 41q-25 -41 -80 -41q-53 0 -82 41q-25 -41 -82 -41q-51 0 -82 41q-25 -41 -79 -41 q-53 0 -82 41q-25 -41 -82 -41q-41 0 -69 25.5t-28 72.5z" />
<glyph unicode="8" d="M104 262q0 55 41 82q-41 23 -41 82q0 55 41 82q-41 23 -41 80q0 47 28 72.5t69 25.5q57 0 82 -41q8 14 24 25q-41 23 -41 80t41 84q-14 6 -24 22q-25 -41 -82 -41q-41 0 -69 25.5t-28 72.5q0 55 41 82q-41 23 -41 80q0 47 28 73t69 26q59 0 82 -41q8 14 24 26 q-41 23 -41 80q0 47 29 71.5t70 24.5q57 0 79 -41q29 41 82 41q57 0 80 -41q29 41 84 41q57 0 80 -41q29 41 82 41q55 0 82 -41q27 41 80 41q41 0 69.5 -24.5t28.5 -71.5q0 -55 -41 -80q8 -6 15.5 -12t11.5 -14q23 41 80 41q41 0 69.5 -26t28.5 -73q0 -55 -43 -80 q43 -29 43 -82q0 -47 -28.5 -72.5t-69.5 -25.5q-55 0 -80 41q-10 -16 -27 -22q41 -29 41 -84t-41 -80q18 -10 27 -25q25 41 80 41q41 0 69.5 -25.5t28.5 -72.5q0 -55 -43 -80q43 -29 43 -82q0 -57 -43 -82q43 -29 43 -82q0 -47 -28.5 -72.5t-69.5 -25.5q-55 0 -80 43 q-10 -16 -27 -27q41 -25 41 -80q0 -47 -28.5 -72.5t-69.5 -25.5q-51 0 -80 41q-29 -41 -82 -41q-51 0 -82 41q-25 -41 -80 -41q-53 0 -84 41q-25 -41 -80 -41q-51 0 -82 41q-25 -41 -79 -41q-41 0 -70 25.5t-29 72.5q0 57 41 80q-14 8 -24 27q-25 -43 -82 -43 q-41 0 -69 25.5t-28 72.5zM420 180q14 -6 24 -24q31 41 82 41q55 0 80 -41q31 41 84 41q55 0 80 -41q31 41 82 41q53 0 82 -41q12 18 24 24q-41 29 -40 82q0 53 40 82q-41 25 -40 82q0 53 40 82q-41 25 -40 80q0 53 40 82q-16 8 -24 24q-29 -41 -82 -41q-51 0 -82 41 q-25 -41 -80 -41q-53 0 -84 41q-25 -41 -80 -41q-51 0 -82 41q-6 -16 -24 -24q41 -29 41 -82q0 -55 -41 -80q41 -29 41 -82q0 -57 -41 -82q41 -29 41 -82t-41 -82zM420 834q18 -12 24 -27q29 41 82 41q57 0 80 -41q29 41 84 41q57 0 80 -41q29 41 82 41q55 0 82 -41 q8 14 24 27q-41 25 -40 79q0 53 40 82q-41 25 -40 80q0 55 40 84q-14 6 -24 23q-29 -41 -82 -41q-51 0 -82 41q-25 -41 -80 -41q-53 0 -84 41q-25 -41 -80 -41q-51 0 -82 41q-6 -16 -24 -23q41 -29 41 -84t-41 -80q41 -29 41 -82q0 -54 -41 -79z" />
<glyph unicode="9" horiz-adv-x="1378" d="M104 262q0 47 28 72.5t69 25.5q55 0 80 -41q29 41 84 41q39 0 67.5 -25.5t28.5 -72.5q0 -53 -41 -82q18 -6 24 -24q29 41 82 41q55 0 80 -41q29 41 84 41q51 0 80 -41q29 41 82 41q51 0 82 -41q6 18 24 24q-41 29 -40 82q0 53 40 82q-41 25 -40 82q0 53 40 82 q-18 8 -24 22q-31 -41 -82 -41q-53 0 -82 41q-29 -41 -80 -41q-55 0 -84 41q-25 -41 -80 -41q-53 0 -82 41q-29 -41 -79 -41q-41 0 -70 26t-29 73q0 55 41 82q-14 8 -26 24q-25 -41 -80 -41q-41 0 -69 24.5t-28 72.5q0 57 41 84q-41 23 -41 79q0 55 41 82q-41 23 -41 80 q0 47 28 73t69 26q57 0 80 -41q12 14 26 26q-41 23 -41 80q0 47 29 71.5t70 24.5q53 0 79 -41q27 41 82 41q57 0 80 -41q27 41 84 41q53 0 80 -41q27 41 82 41q53 0 82 -41q23 41 80 41q39 0 68.5 -24.5t29.5 -71.5q0 -55 -41 -80q14 -12 27 -26q23 41 80 41q39 0 67.5 -26 t28.5 -73q0 -57 -41 -80q41 -27 41 -82q0 -57 -41 -79q41 -27 41 -84t-41 -80q41 -27 41 -82q0 -57 -41 -80q41 -27 41 -82q0 -59 -41 -82q41 -27 41 -82q0 -47 -28.5 -72.5t-67.5 -25.5q-55 0 -80 43q-6 -8 -12.5 -15.5t-14.5 -11.5q41 -25 41 -80q0 -47 -29.5 -72.5 t-68.5 -25.5q-55 0 -80 41q-31 -41 -82 -41q-53 0 -82 41q-29 -41 -80 -41q-55 0 -84 41q-25 -41 -80 -41q-53 0 -82 41q-29 -41 -79 -41q-41 0 -70 25.5t-29 72.5q0 57 41 80q-8 4 -14 11.5t-12 15.5q-25 -43 -76 -43t-76 22.5t-25 75.5zM420 670q18 -12 24 -25 q29 41 82 41q55 0 80 -41q29 41 84 41q51 0 80 -41q29 41 82 41q51 0 82 -41q6 12 24 25q-41 25 -40 80q0 55 40 84q-41 25 -40 79q0 53 40 82q-41 25 -40 80q0 55 40 84q-18 8 -24 23q-31 -41 -82 -41q-53 0 -82 41q-29 -41 -80 -41q-55 0 -84 41q-25 -41 -80 -41 q-53 0 -82 41q-6 -14 -24 -23q41 -29 41 -84t-41 -80q41 -29 41 -82q0 -55 -41 -79q41 -29 41 -84t-41 -80z" />
<glyph unicode=":" horiz-adv-x="567" d="M104 100q0 57 41 80q-41 27 -41 82q0 47 29 72.5t70 25.5q55 0 80 -41q31 41 82 41q41 0 69.5 -25.5t28.5 -72.5q0 -53 -41 -82q41 -25 41 -80q0 -47 -28.5 -72.5t-69.5 -25.5q-51 0 -82 41q-25 -41 -80 -41q-41 0 -70 25.5t-29 72.5zM104 918q0 55 41 81q-41 23 -41 80 q0 47 29 73t70 26q55 0 80 -41q31 41 82 41q41 0 69.5 -26t28.5 -73q0 -55 -41 -80q41 -29 41 -81q0 -47 -28.5 -73t-69.5 -26q-51 0 -82 41q-25 -41 -74 -41q-53 0 -79 22.5t-26 76.5z" />
<glyph unicode=";" horiz-adv-x="567" d="M104 -63q0 47 28 72.5t69 25.5t69.5 -25.5t28.5 -72.5t-28.5 -72t-69.5 -25t-69 24.5t-28 72.5zM104 262q0 55 41 82q-41 23 -41 82q0 47 28 71.5t69 24.5q53 0 82 -41q29 41 82 41q39 0 68.5 -24.5t29.5 -71.5q0 -57 -43 -82q43 -29 43 -82q0 -55 -43 -82q43 -25 43 -80 q0 -47 -30 -72.5t-68 -25.5q-41 0 -70 25.5t-29 72.5q0 57 41 80q-14 8 -24 27q-29 -43 -82 -43q-41 0 -69 25.5t-28 72.5zM104 918q0 55 41 81q-41 23 -41 80q0 47 29 73t70 26q55 0 80 -41q31 41 82 41q41 0 69.5 -26t28.5 -73q0 -55 -41 -80q41 -29 41 -81 q0 -47 -28.5 -73t-69.5 -26q-51 0 -82 41q-25 -41 -74 -41q-53 0 -79 22.5t-26 76.5z" />
<glyph unicode="&#x3c;" horiz-adv-x="892" d="M104 588q0 47 29 72.5t70 25.5q51 0 80 -41q10 16 26 25q-41 23 -41 80q0 47 28 72.5t69 25.5q57 0 79 -41q4 8 11.5 14t15.5 13q-41 23 -41 79q0 47 28.5 73t69.5 26q53 0 80 -43q27 43 82 43q39 0 68.5 -25.5t29.5 -73.5q0 -47 -29.5 -72.5t-68.5 -25.5q-53 0 -82 41 q-6 -14 -24 -22q41 -29 41 -84q0 -47 -29 -72t-68 -25q-55 0 -84 41q-6 -14 -22 -24q41 -29 41 -82q0 -55 -41 -80q16 -10 22 -27q29 41 84 41q39 0 68 -24.5t29 -71.5q0 -57 -41 -82q18 -12 24 -25q29 41 82 41q39 0 68.5 -25.5t29.5 -72.5t-29.5 -72.5t-68.5 -25.5 q-55 0 -82 43q-29 -43 -80 -43q-41 0 -69.5 25.5t-28.5 72.5q0 55 41 82q-18 10 -27 25q-25 -41 -79 -41q-41 0 -69 25.5t-28 72.5q0 55 41 82q-16 6 -26 22q-29 -41 -80 -41q-41 0 -70 26t-29 73z" />
<glyph unicode="=" horiz-adv-x="892" d="M104 426q0 47 29 71.5t70 24.5q51 0 80 -41q29 41 82 41q55 0 79 -41q29 41 84 41q51 0 80 -41q29 41 82 41q41 0 69.5 -24.5t28.5 -71.5t-29.5 -72.5t-68.5 -25.5q-53 0 -82 41q-29 -41 -80 -41q-55 0 -84 41q-25 -41 -79 -41q-53 0 -82 41q-29 -41 -76 -41 q-51 0 -77 22.5t-26 75.5zM104 913q0 47 29 73t70 26q53 0 80 -43q27 43 82 43q57 0 79 -43q27 43 84 43q53 0 80 -43q27 43 82 43q41 0 69.5 -25.5t28.5 -73.5q0 -47 -29.5 -72.5t-68.5 -25.5q-53 0 -82 41q-29 -41 -80 -41q-55 0 -84 41q-25 -41 -79 -41q-53 0 -82 41 q-29 -41 -76 -41q-51 0 -77 22.5t-26 75.5z" />
<glyph unicode="&#x3e;" horiz-adv-x="892" d="M104 262q0 47 29 72.5t70 25.5q51 0 80 -41q10 16 26 25q-41 23 -41 82q0 47 28 71.5t69 24.5q55 0 79 -41q10 16 27 27q-41 23 -41 80q0 55 41 82q-18 10 -27 24q-25 -41 -79 -41q-41 0 -69 24.5t-28 72.5q0 57 41 84q-16 6 -26 22q-29 -41 -80 -41q-41 0 -70 25.5 t-29 72.5t29 73t70 26q53 0 80 -43q27 43 82 43q39 0 68.5 -25.5t29.5 -73.5q0 -55 -41 -79q18 -14 22 -27q27 41 84 41q39 0 68 -25.5t29 -72.5q0 -55 -41 -80q18 -12 24 -25q29 41 82 41q39 0 68.5 -25.5t29.5 -72.5t-29.5 -73t-68.5 -26q-53 0 -82 41q-6 -14 -24 -22 q41 -29 41 -82q0 -47 -29 -72.5t-68 -25.5q-55 0 -84 41q-6 -14 -22 -25q41 -29 41 -82q0 -47 -30 -72.5t-68 -25.5q-55 0 -82 43q-29 -43 -80 -43q-41 0 -70 25.5t-29 72.5z" />
<glyph unicode="?" horiz-adv-x="1261" d="M45 1075q0 47 28.5 73t69.5 26q55 0 78 -41q4 8 11.5 14t13.5 12q-37 25 -37 80q0 47 26.5 71.5t67.5 24.5q57 0 80 -41q29 41 84 41q57 0 80 -41q29 41 82 41q57 0 80 -41q29 41 82 41q59 0 81 -41q27 41 84 41q39 0 68 -24.5t29 -71.5q0 -55 -43 -80q18 -12 24 -26 q29 41 84 41q39 0 67.5 -26t28.5 -73q0 -55 -40 -80q41 -29 40 -82q0 -47 -28.5 -72.5t-69.5 -25.5q-51 0 -82 41q-6 -16 -24 -22q43 -29 43 -84q0 -47 -29 -72t-70 -25q-53 0 -82 41q-25 -41 -81 -41q-51 0 -82 41q-6 -14 -23 -24q41 -29 41 -82q0 -55 -41 -80 q41 -29 41 -82q0 -47 -28.5 -72.5t-69.5 -25.5q-51 0 -82 41q-25 -41 -80 -41q-41 0 -68.5 25.5t-27.5 72.5q0 55 39 82q-39 25 -39 80q0 47 27.5 72.5t68.5 25.5q55 0 80 -41q8 14 26 25q-41 23 -41 80q0 47 28 72.5t69 25.5q57 0 80 -41q29 41 82 41q59 0 81 -41 q8 14 25 27q-39 25 -39 79q0 55 39 82q-39 25 -39 80q0 57 39 84q-14 6 -25 23q-25 -41 -81 -41q-51 0 -82 41q-25 -41 -80 -41q-51 0 -82 41q-25 -41 -80 -41q-53 0 -84 41q-10 -18 -23 -23q41 -29 41 -84q0 -47 -28.5 -71.5t-69.5 -24.5q-51 0 -82 41q-25 -41 -80 -41 q-41 0 -68.5 24.5t-27.5 71.5zM371 100q0 47 28.5 72t69.5 25q53 0 78 -41q31 41 84 41q39 0 67.5 -25t28.5 -72t-28.5 -72.5t-69.5 -25.5q-51 0 -82 41q-25 -41 -80 -41q-41 0 -68.5 25.5t-27.5 72.5z" />
<glyph unicode="@" d="M104 262q0 55 41 82q-41 23 -41 82q0 55 41 82q-41 23 -41 80q0 55 41 82q-41 23 -41 80t41 84q-41 23 -41 79q0 55 41 82q-41 23 -41 80q0 47 28 73t69 26q59 0 82 -41q8 14 24 26q-41 23 -41 80q0 47 29 71.5t70 24.5q57 0 79 -41q29 41 82 41q57 0 80 -41q29 41 84 41 q57 0 80 -41q29 41 82 41q55 0 82 -41q27 41 80 41q41 0 69.5 -24.5t28.5 -71.5q0 -55 -41 -80q14 -12 27 -26q23 41 80 41q41 0 69.5 -26t28.5 -73q0 -55 -43 -80q43 -29 43 -82q0 -55 -43 -79q43 -29 43 -84t-43 -80q43 -29 43 -82q0 -55 -43 -80q43 -29 43 -82 q0 -47 -28.5 -72.5t-69.5 -25.5q-55 0 -80 41q-29 -41 -84 -41q-51 0 -80 41q-29 -41 -82 -41q-51 0 -82 41q-25 -41 -80 -41q-53 0 -84 41q-25 -41 -80 -41q-39 0 -67.5 25.5t-28.5 72.5q0 55 41 82q-41 23 -41 80q0 55 41 82q-41 23 -41 80q0 47 28.5 72.5t67.5 25.5 q57 0 80 -41q29 41 84 41q57 0 80 -41q29 41 82 41q41 0 69.5 -25.5t28.5 -72.5q0 -55 -41 -80q41 -29 41 -82q0 -55 -41 -80q14 -8 25 -27q29 41 80 41q55 0 84 -41q6 16 22 27q-41 25 -41 80q0 53 41 82q-41 25 -41 80t41 84q-41 25 -41 79q0 53 41 82q-14 6 -22 25 q-29 -41 -84 -41q-39 0 -67.5 24.5t-28.5 71.5q0 55 40 84q-14 6 -24 23q-29 -41 -82 -41q-51 0 -82 41q-25 -41 -80 -41q-53 0 -84 41q-25 -41 -74 -41q-29 0 -50 9t-38 32q-6 -14 -24 -23q41 -29 41 -84q0 -47 -27.5 -71.5t-68.5 -24.5q-53 0 -82 41q-12 -18 -25 -25 q41 -29 41 -82q0 -55 -41 -79q41 -29 41 -84t-41 -80q41 -29 41 -82q0 -55 -41 -80q41 -29 41 -82q0 -57 -41 -82q14 -10 25 -25q29 41 82 41q41 0 68.5 -25.5t27.5 -72.5q0 -53 -41 -82q18 -6 24 -24q31 41 82 41q55 0 80 -41q31 41 84 41q55 0 80 -41q31 41 82 41 q53 0 82 -41q29 41 80 41q55 0 84 -41q25 41 80 41q41 0 69.5 -25t28.5 -72t-28.5 -72.5t-69.5 -25.5q-55 0 -80 41q-29 -41 -84 -41q-51 0 -80 41q-29 -41 -82 -41q-51 0 -82 41q-25 -41 -80 -41q-53 0 -84 41q-25 -41 -80 -41q-51 0 -82 41q-25 -41 -79 -41 q-41 0 -70 25.5t-29 72.5q0 57 41 80q-14 8 -24 27q-25 -43 -82 -43q-41 0 -69 25.5t-28 72.5zM584 508q16 -10 22 -27q31 41 84 41q55 0 80 -41q10 18 25 27q-41 25 -41 80q0 53 41 82q-16 8 -25 24q-25 -41 -80 -41q-53 0 -84 41q-6 -14 -22 -24q41 -29 41 -82 q0 -55 -41 -80z" />
<glyph unicode="A" d="M104 100q0 57 41 80q-41 27 -41 82t41 82q-41 23 -41 82q0 55 41 82q-41 23 -41 80q0 55 41 82q-41 23 -41 80t41 84q-41 23 -41 79q0 55 41 82q-41 23 -41 80q0 47 29 73t70 26q53 0 80 -41q8 14 24 26q-41 23 -41 80q0 47 29 71.5t70 24.5q53 0 79 -41q27 41 82 41 t82 -41q27 41 82 41q53 0 80 -41q27 41 82 41t82 -41q27 41 82 41q39 0 67.5 -24.5t28.5 -71.5q0 -55 -41 -80q8 -6 15.5 -12t11.5 -14q23 41 80 41q39 0 68.5 -26t29.5 -73q0 -55 -41 -80q41 -29 41 -82q0 -55 -41 -79q41 -29 41 -84t-41 -80q41 -29 41 -82q0 -55 -41 -80 q41 -29 41 -82q0 -57 -41 -82q41 -29 41 -82t-41 -82q41 -25 41 -80q0 -47 -29.5 -72.5t-70.5 -25.5q-53 0 -78 41q-31 -41 -84 -41q-39 0 -67.5 25.5t-28.5 72.5q0 55 40 80q-40 28 -40 79q0 55 40 85q-40 24 -40 79q0 56 40 85q-14 6 -24 22q-29 -41 -82 -41t-82 41 q-29 -41 -80 -41q-53 0 -82 41q-29 -41 -82 -41t-82 41q-6 -16 -22 -22q41 -29 41 -82q0 -57 -41 -82q41 -29 41 -82t-41 -82q41 -25 41 -80q0 -47 -30 -72.5t-71 -25.5q-50 0 -79 41q-29 -41 -82 -41q-41 0 -69 25.5t-28 72.5zM422 670q16 -10 22 -25q29 41 82 41t82 -41 q29 41 82 41q51 0 80 -41q29 41 82 41t82 -41q8 14 24 25q-40 24 -40 77q0 58 40 87q-40 24 -40 76q0 56 40 85q-40 24 -40 77q0 58 40 87q-14 6 -24 23q-29 -41 -82 -41t-82 41q-29 -41 -80 -41q-53 0 -82 41q-29 -41 -82 -41t-82 41q-6 -16 -22 -23q41 -29 41 -84t-41 -80 q41 -29 41 -82q0 -55 -41 -79q41 -29 41 -84t-41 -80z" />
<glyph unicode="B" horiz-adv-x="1378" d="M104 100q0 55 39 80q-39 27 -39 82t39 82q-39 25 -39 82q0 55 39 82q-39 25 -39 80t39 82q-39 25 -39 80q0 57 39 84q-39 25 -39 79q0 47 28 73t67 26q59 0 82 -43q27 43 84 43q39 0 66.5 -25.5t27.5 -73.5q0 -55 -41 -79q18 -12 24 -27q29 41 82 41q55 0 82 -41 q27 41 82 41t82 -41q27 41 80 41q55 0 82 -41q8 14 24 27q-38 26 -38 76q0 56 38 85q-38 26 -38 77q0 58 38 87q-14 6 -24 23q-29 -41 -82 -41q-51 0 -80 41q-29 -41 -82 -41t-82 41q-29 -41 -82 -41q-51 0 -82 41q-25 -41 -80 -41q-53 0 -81 41q-25 -41 -82 -41 q-39 0 -67 25.5t-28 72.5t28 71.5t67 24.5q59 0 82 -41q27 41 81 41q57 0 80 -41q29 41 82 41q55 0 82 -41q27 41 82 41t82 -41q27 41 80 41q55 0 82 -41q27 41 84 41q39 0 66.5 -24.5t27.5 -71.5q0 -57 -41 -80q8 -6 15.5 -12t11.5 -14q23 41 82 41q39 0 67.5 -26t28.5 -73 q0 -57 -43 -80q43 -27 43 -82q0 -47 -28.5 -72.5t-69.5 -25.5q-55 0 -80 41q-10 -16 -27 -22q41 -27 41 -84t-41 -80q18 -10 27 -25q25 41 82 41q39 0 67.5 -25.5t28.5 -72.5q0 -57 -43 -80q43 -27 43 -82q0 -59 -43 -82q43 -27 43 -82q0 -47 -28.5 -72.5t-69.5 -25.5 q-55 0 -80 43q-10 -16 -27 -27q41 -23 41 -80q0 -47 -28.5 -72.5t-69.5 -25.5q-51 0 -80 41q-29 -41 -82 -41q-51 0 -80 41q-29 -41 -82 -41t-82 41q-29 -41 -82 -41q-51 0 -82 41q-25 -41 -80 -41q-52 0 -81 41q-25 -41 -82 -41q-39 0 -67 25.5t-28 72.5zM418 180 q14 -6 24 -24q31 41 82 41q53 0 82 -41q29 41 82 41t82 -41q29 41 80 41q53 0 82 -41q12 18 24 24q-38 28 -38 79q0 56 38 85q-38 26 -38 79q0 56 38 85q-38 26 -38 77q0 56 38 85q-16 8 -24 24q-29 -41 -82 -41q-51 0 -80 41q-29 -41 -82 -41t-82 41q-29 -41 -82 -41 q-51 0 -82 41q-6 -16 -24 -24q41 -29 41 -82q0 -55 -41 -80q41 -29 41 -82q0 -57 -41 -82q41 -29 41 -82t-41 -82z" />
<glyph unicode="C" horiz-adv-x="1337" d="M104 262q0 55 41 82q-41 23 -41 82q0 55 41 82q-41 23 -41 80q0 55 41 82q-41 23 -41 80t41 84q-41 23 -41 79q0 55 41 82q-41 23 -41 80q0 47 28 73t69 26q57 0 80 -41q12 14 26 26q-41 23 -41 80q0 47 29 71.5t70 24.5q53 0 79 -41q27 41 82 41q57 0 80 -41 q27 41 84 41q53 0 80 -41q27 41 82 41q53 0 82 -41q23 41 80 41q39 0 68.5 -24.5t29.5 -71.5q0 -55 -41 -80q14 -12 27 -26q23 41 80 41q39 0 68.5 -26t29.5 -73t-29.5 -71.5t-68.5 -24.5q-55 0 -80 41q-31 -41 -84 -41q-41 0 -68.5 24.5t-27.5 71.5q0 55 40 84 q-18 8 -24 23q-31 -41 -82 -41q-53 0 -82 41q-29 -41 -80 -41q-55 0 -84 41q-25 -41 -80 -41q-53 0 -82 41q-6 -14 -24 -23q41 -29 41 -84t-41 -80q41 -29 41 -82q0 -55 -41 -79q41 -29 41 -84t-41 -80q41 -29 41 -82q0 -55 -41 -80q41 -29 41 -82q0 -57 -41 -82 q41 -29 41 -82t-41 -82q18 -6 24 -24q29 41 82 41q55 0 80 -41q29 41 84 41q51 0 80 -41q29 41 82 41q51 0 82 -41q6 18 24 24q-40 28 -40 79q0 49 27.5 75t68.5 26q53 0 84 -41q25 41 80 41q39 0 68.5 -25.5t29.5 -72.5t-29.5 -72.5t-68.5 -25.5q-55 0 -80 43 q-6 -8 -12.5 -15.5t-14.5 -11.5q41 -25 41 -80q0 -47 -29.5 -72.5t-68.5 -25.5q-55 0 -80 41q-31 -41 -82 -41q-53 0 -82 41q-29 -41 -80 -41q-55 0 -84 41q-25 -41 -80 -41q-53 0 -82 41q-29 -41 -79 -41q-41 0 -70 25.5t-29 72.5q0 57 41 80q-8 4 -14 11.5t-12 15.5 q-25 -43 -80 -43q-41 0 -69 25.5t-28 72.5z" />
<glyph unicode="D" d="M104 100q0 57 41 80q-41 27 -41 82t41 82q-41 23 -41 82q0 55 41 82q-41 23 -41 80q0 55 41 82q-41 23 -41 80t41 84q-41 23 -41 79q0 47 28 73t69 26q59 0 82 -43q27 43 82 43q41 0 68.5 -25.5t27.5 -73.5q0 -55 -41 -79q41 -29 41 -84t-41 -80q41 -29 41 -82 q0 -55 -41 -80q41 -29 41 -82q0 -57 -41 -82q41 -29 41 -82t-41 -82q14 -6 24 -24q31 41 82 41q55 0 80 -41q31 41 84 41q55 0 80 -41q31 41 82 41q53 0 82 -41q12 18 24 24q-40 28 -40 79q0 55 40 85q-40 24 -40 79q0 56 40 85q-40 24 -40 77q0 56 40 85q-40 24 -40 77 q0 58 40 87q-40 24 -40 76q0 56 40 85q-40 24 -40 77q0 58 40 87q-14 6 -24 23q-29 -41 -82 -41q-51 0 -82 41q-25 -41 -80 -41q-53 0 -84 41q-25 -41 -80 -41q-51 0 -82 41q-25 -41 -79 -41q-53 0 -82 41q-25 -41 -76 -41t-77 22.5t-26 75.5q0 47 28 71.5t69 24.5 q59 0 82 -41q27 41 82 41q57 0 79 -41q29 41 82 41q57 0 80 -41q29 41 84 41q57 0 80 -41q29 41 82 41q55 0 82 -41q27 41 82 41q41 0 68.5 -24.5t27.5 -71.5q0 -55 -41 -80q18 -12 27 -26q27 41 80 41q41 0 69.5 -26t28.5 -73q0 -55 -41 -80q41 -29 41 -82q0 -55 -41 -79 q41 -29 41 -84t-41 -80q41 -29 41 -82q0 -55 -41 -80q41 -29 41 -82q0 -57 -41 -82q41 -29 41 -82q0 -47 -28.5 -72.5t-69.5 -25.5q-53 0 -80 43q-12 -18 -27 -27q41 -25 41 -80q0 -47 -27.5 -72.5t-68.5 -25.5q-53 0 -82 41q-29 -41 -82 -41q-51 0 -82 41q-25 -41 -80 -41 q-53 0 -84 41q-25 -41 -80 -41q-51 0 -82 41q-25 -41 -79 -41q-53 0 -82 41q-25 -41 -82 -41q-41 0 -69 25.5t-28 72.5z" />
<glyph unicode="E" horiz-adv-x="1343" d="M104 100q0 57 41 80q-41 27 -41 82t41 82q-41 23 -41 82q0 55 41 82q-41 23 -41 80q0 55 41 82q-41 23 -41 80t41 84q-41 23 -41 79q0 47 28 73t69 26q57 0 80 -43q27 43 84 43q53 0 79 -43q27 43 82 43q57 0 80 -43q27 43 84 43q53 0 80 -43q27 43 82 43 q39 0 68.5 -25.5t29.5 -73.5q0 -47 -29.5 -72.5t-68.5 -25.5q-53 0 -82 41q-29 -41 -80 -41q-55 0 -84 41q-25 -41 -80 -41q-53 0 -82 41q-6 -14 -24 -22q41 -29 41 -84t-41 -80q41 -29 41 -82q0 -55 -41 -80q41 -29 41 -82q0 -57 -41 -82q41 -29 41 -82t-41 -82 q18 -6 24 -24q29 41 82 41q55 0 80 -41q29 41 84 41q51 0 80 -41q29 41 82 41q51 0 82 -41q25 41 80 41q53 0 84 -41q25 41 80 41q39 0 67.5 -25t28.5 -72t-28.5 -72.5t-67.5 -25.5q-55 0 -80 41q-31 -41 -84 -41q-55 0 -80 41q-31 -41 -82 -41q-53 0 -82 41 q-29 -41 -80 -41q-55 0 -84 41q-25 -41 -80 -41q-53 0 -82 41q-29 -41 -79 -41q-55 0 -84 41q-25 -41 -80 -41q-41 0 -69 25.5t-28 72.5zM104 1239q0 47 28 71.5t69 24.5q57 0 80 -41q27 41 84 41q53 0 79 -41q27 41 82 41q57 0 80 -41q27 41 84 41q53 0 80 -41q27 41 82 41 q53 0 82 -41q23 41 80 41q55 0 84 -41q23 41 80 41q39 0 67.5 -24.5t28.5 -71.5t-28.5 -72.5t-67.5 -25.5q-55 0 -80 41q-31 -41 -84 -41q-55 0 -80 41q-31 -41 -82 -41q-53 0 -82 41q-29 -41 -80 -41q-55 0 -84 41q-25 -41 -80 -41q-53 0 -82 41q-29 -41 -79 -41 q-55 0 -84 41q-25 -41 -82 -41q-39 0 -67 25.5t-28 72.5z" />
<glyph unicode="F" horiz-adv-x="1300" d="M104 100q0 57 41 80q-41 27 -41 82t41 82q-41 23 -41 82q0 55 41 82q-41 23 -41 80q0 55 41 82q-41 23 -41 80t41 84q-41 23 -41 79q0 47 29 73t70 26q53 0 80 -43q27 43 82 43q57 0 79 -43q27 43 84 43q53 0 80 -43q27 43 82 43q57 0 80 -43q27 43 82 43 q41 0 68.5 -25.5t27.5 -73.5q0 -47 -28.5 -72.5t-69.5 -25.5q-51 0 -80 41q-25 -41 -80 -41q-53 0 -82 41q-29 -41 -80 -41q-55 0 -84 41q-6 -16 -22 -22q39 -29 39 -84q0 -53 -39 -80q39 -29 39 -82t-39 -80q39 -29 39 -82q0 -55 -39 -82q39 -29 39 -82t-39 -82 q39 -27 39 -80q0 -47 -29 -72.5t-70 -25.5q-50 0 -79 41q-29 -41 -80 -41q-41 0 -70 25.5t-29 72.5zM104 1239q0 47 29 71.5t70 24.5q53 0 80 -41q27 41 82 41q57 0 79 -41q27 41 84 41q53 0 80 -41q27 41 82 41q57 0 80 -41q27 41 82 41t82 -41q27 41 82 41q53 0 82 -41 q23 41 80 41q39 0 67.5 -24.5t28.5 -71.5t-28.5 -72.5t-69.5 -25.5q-53 0 -78 41q-31 -41 -82 -41q-53 0 -82 41q-29 -41 -82 -41t-82 41q-25 -41 -80 -41q-53 0 -82 41q-29 -41 -80 -41q-55 0 -84 41q-25 -41 -79 -41q-53 0 -82 41q-29 -41 -82 -41q-41 0 -69 25.5 t-28 72.5z" />
<glyph unicode="G" d="M104 262q0 55 41 82q-41 23 -41 82q0 55 41 82q-41 23 -41 80q0 55 41 82q-41 23 -41 80t41 84q-41 23 -41 79q0 55 41 82q-41 23 -41 80q0 47 29 73t70 26q53 0 80 -41q4 8 11 14t15 12q-41 23 -41 80q0 47 28 71.5t69 24.5q55 0 81 -41q27 41 82 41q53 0 80 -41 q27 41 82 41q57 0 80 -41q27 41 84 41q53 0 80 -41q27 41 82 41q39 0 68.5 -24.5t29.5 -71.5q0 -55 -41 -80q16 -12 25 -26q23 41 80 41q41 0 69.5 -26t28.5 -73t-28.5 -71.5t-69.5 -24.5q-55 0 -80 41q-31 -41 -82 -41q-41 0 -69.5 24.5t-28.5 71.5q0 55 40 84 q-14 6 -24 23q-29 -41 -80 -41q-55 0 -84 41q-25 -41 -80 -41q-53 0 -82 41q-29 -41 -80 -41q-53 0 -82 41q-10 -16 -24 -23q41 -29 41 -84t-41 -80q41 -29 41 -82q0 -55 -41 -79q41 -29 41 -84t-41 -80q41 -29 41 -82q0 -55 -41 -80q41 -29 41 -82q0 -57 -41 -82 q41 -29 41 -82t-41 -82q12 -6 24 -24q29 41 82 41q51 0 80 -41q29 41 82 41q55 0 80 -41q29 41 84 41q51 0 80 -41q12 18 24 24q-40 28 -40 79q0 56 40 85q-40 24 -40 79q0 56 40 85q-14 6 -24 22q-29 -41 -80 -41q-55 0 -84 41q-25 -41 -76 -41t-75.5 23t-24.5 76 q0 47 27.5 72.5t68.5 25.5q55 0 80 -41q29 41 84 41q51 0 80 -41q29 41 82 41q51 0 82 -41q25 41 80 41q41 0 69.5 -25.5t28.5 -72.5q0 -55 -41 -80q41 -29 41 -82q0 -57 -41 -82q41 -29 41 -82q0 -47 -28.5 -72.5t-69.5 -25.5q-55 0 -80 43q-10 -18 -25 -27q41 -25 41 -80 q0 -47 -29.5 -72.5t-68.5 -25.5q-53 0 -82 41q-29 -41 -80 -41q-55 0 -84 41q-25 -41 -80 -41q-53 0 -82 41q-29 -41 -80 -41q-53 0 -82 41q-29 -41 -81 -41q-41 0 -69 25.5t-28 72.5q0 57 41 80q-16 10 -26 27q-29 -43 -80 -43q-41 0 -70 25.5t-29 72.5z" />
<glyph unicode="H" d="M104 100q0 57 41 80q-41 27 -41 82t41 82q-41 23 -41 82q0 55 41 82q-41 23 -41 80q0 55 41 82q-41 23 -41 80t41 84q-41 23 -41 79q0 55 41 82q-41 23 -41 80t41 84q-41 23 -41 80q0 47 29 71.5t70 24.5q53 0 80 -41q27 41 82 41q39 0 68.5 -24.5t29.5 -71.5 q0 -55 -41 -80q41 -29 41 -84t-41 -80q41 -29 41 -82q0 -55 -41 -79q18 -14 22 -27q27 41 84 41q53 0 80 -41q27 41 82 41q53 0 80 -41q27 41 82 41t82 -41q8 14 24 27q-40 24 -40 76q0 56 40 85q-40 24 -40 77q0 58 40 87q-40 24 -40 77q0 50 28.5 74.5t69.5 24.5 q53 0 82 -41q23 41 80 41q39 0 68.5 -24.5t29.5 -71.5q0 -55 -41 -80q41 -29 41 -84t-41 -80q41 -29 41 -82q0 -55 -41 -79q41 -29 41 -84t-41 -80q41 -29 41 -82q0 -55 -41 -80q41 -29 41 -82q0 -57 -41 -82q41 -29 41 -82t-41 -82q41 -25 41 -80q0 -47 -29.5 -72.5 t-68.5 -25.5q-55 0 -80 41q-31 -41 -82 -41q-41 0 -69.5 25.5t-28.5 72.5q0 55 40 80q-40 28 -40 79q0 55 40 85q-40 24 -40 79q0 56 40 85q-40 24 -40 77q0 56 40 85q-16 8 -24 24q-29 -41 -82 -41t-82 41q-29 -41 -80 -41q-53 0 -82 41q-29 -41 -80 -41q-55 0 -84 41 q-6 -14 -22 -24q41 -29 41 -82q0 -55 -41 -80q41 -29 41 -82q0 -57 -41 -82q41 -29 41 -82t-41 -82q41 -25 41 -80q0 -47 -30 -72.5t-68 -25.5q-53 0 -82 41q-29 -41 -80 -41q-41 0 -70 25.5t-29 72.5z" />
<glyph unicode="I" horiz-adv-x="567" d="M104 100q0 57 41 80q-41 27 -41 82t41 82q-41 23 -41 82q0 55 41 82q-41 23 -41 80q0 55 41 82q-41 23 -41 80t41 84q-41 23 -41 79q0 55 41 82q-41 23 -41 80t41 84q-41 23 -41 80q0 47 29 71.5t70 24.5q53 0 80 -41q27 41 82 41q39 0 68.5 -24.5t29.5 -71.5 q0 -55 -41 -80q41 -29 41 -84t-41 -80q41 -29 41 -82q0 -55 -41 -79q41 -29 41 -84t-41 -80q41 -29 41 -82q0 -55 -41 -80q41 -29 41 -82q0 -57 -41 -82q41 -29 41 -82t-41 -82q41 -25 41 -80q0 -47 -30 -72.5t-68 -25.5q-53 0 -82 41q-29 -41 -80 -41q-41 0 -70 25.5 t-29 72.5z" />
<glyph unicode="J" horiz-adv-x="1308" d="M33 262q0 47 28.5 72.5t69.5 25.5q51 0 82 -41q25 41 80 41q39 0 68.5 -25.5t29.5 -72.5q0 -53 -41 -82q12 -6 25 -24q25 41 82 41q51 0 82 -41q25 41 79 41q51 0 82 -41q25 41 80 41q53 0 84 -41q8 18 23 24q-41 29 -41 82t41 82q-41 25 -41 82q0 53 41 82 q-41 25 -41 80q0 53 41 82q-41 25 -41 80t41 84q-41 25 -41 79q0 53 41 82q-41 25 -41 80t41 84q-16 6 -23 23q-31 -41 -84 -41q-41 0 -68.5 25.5t-27.5 72.5t27.5 71.5t68.5 24.5q55 0 84 -41q23 41 80 41q53 0 82 -41q23 41 80 41q41 0 69.5 -24.5t28.5 -71.5 q0 -57 -41 -80q41 -27 41 -84t-41 -80q41 -27 41 -82q0 -57 -41 -79q41 -27 41 -84t-41 -80q41 -27 41 -82q0 -57 -41 -80q41 -27 41 -82q0 -59 -41 -82q41 -27 41 -82q0 -47 -28.5 -72.5t-69.5 -25.5q-55 0 -80 43q-10 -16 -27 -27q43 -23 43 -80q0 -47 -28.5 -72.5 t-69.5 -25.5q-55 0 -80 41q-31 -41 -84 -41q-55 0 -80 41q-31 -41 -82 -41q-55 0 -79 41q-31 -41 -82 -41q-57 0 -82 41q-29 -41 -82 -41q-41 0 -69.5 25.5t-28.5 72.5q0 55 43 80q-18 10 -25 27q-31 -43 -82 -43q-41 0 -69.5 25.5t-28.5 72.5z" />
<glyph unicode="K" horiz-adv-x="1316" d="M104 100q0 57 41 80q-41 27 -41 82t41 82q-41 23 -41 82q0 55 41 82q-41 23 -41 80q0 55 41 82q-41 23 -41 80t41 84q-41 23 -41 79q0 55 41 82q-41 23 -41 80t41 84q-41 23 -41 80q0 47 29 71.5t70 24.5q53 0 80 -41q27 41 82 41q39 0 68.5 -24.5t29.5 -71.5 q0 -55 -41 -80q41 -29 41 -84t-41 -80q41 -29 41 -82q0 -55 -41 -79q16 -12 24 -27q27 41 82 41q53 0 80 -41q4 8 11.5 14t15.5 13q-41 23 -41 79q0 47 28.5 73t67.5 26q57 0 80 -43q6 8 12 15t15 11q-41 25 -41 80q0 47 29.5 73t68.5 26q53 0 80 -41q4 8 11 14t16 12 q-43 25 -43 80q0 47 29.5 71.5t68.5 24.5q55 0 82 -41q27 41 82 41q41 0 68.5 -24.5t27.5 -71.5t-28.5 -72.5t-67.5 -25.5q-57 0 -82 41q-10 -16 -25 -23q41 -29 41 -84q0 -47 -29.5 -71.5t-68.5 -24.5q-53 0 -82 41q-6 -18 -25 -25q41 -29 41 -82q0 -47 -28.5 -72.5 t-67.5 -25.5q-55 0 -84 41q-6 -16 -22 -22q40 -28 40 -81q0 -58 -40 -83q40 -28 40 -79q0 -57 -40 -83q16 -10 22 -27q29 41 84 41q39 0 67.5 -24.5t28.5 -71.5q0 -57 -41 -82q18 -12 25 -25q29 41 82 41q39 0 68.5 -25.5t29.5 -72.5q0 -53 -41 -82q12 -6 25 -24 q29 41 82 41q41 0 68.5 -25t27.5 -72t-28.5 -72.5t-67.5 -25.5q-57 0 -82 41q-29 -41 -82 -41q-41 0 -69.5 25.5t-28.5 72.5q0 55 43 80q-16 10 -27 27q-29 -43 -80 -43q-41 0 -69.5 25.5t-28.5 72.5q0 53 41 82q-14 8 -27 25q-25 -41 -80 -41q-41 0 -68.5 25.5t-27.5 72.5 q0 55 41 82q-16 6 -27 22q-29 -41 -80 -41q-53 0 -82 41q-10 -16 -24 -22q41 -29 41 -82q0 -57 -41 -82q41 -29 41 -82t-41 -82q41 -25 41 -80q0 -47 -30 -72.5t-68 -25.5q-53 0 -82 41q-29 -41 -80 -41q-41 0 -70 25.5t-29 72.5z" />
<glyph unicode="L" horiz-adv-x="1296" d="M104 100q0 57 41 80q-41 27 -41 82t41 82q-41 23 -41 82q0 55 41 82q-41 23 -41 80q0 55 41 82q-41 23 -41 80t41 84q-41 23 -41 79q0 55 41 82q-41 23 -41 80t41 84q-41 23 -41 80q0 47 28 71.5t69 24.5q57 0 80 -41q27 41 84 41q39 0 66.5 -24.5t27.5 -71.5 q0 -55 -41 -80q41 -29 41 -84t-41 -80q41 -29 41 -82q0 -55 -41 -79q41 -29 41 -84t-41 -80q41 -29 41 -82q0 -55 -41 -80q41 -29 41 -82q0 -57 -41 -82q41 -29 41 -82t-41 -82q14 -6 24 -24q31 41 82 41q53 0 82 -41q29 41 82 41t82 -41q29 41 80 41q53 0 82 -41 q29 41 80 41q55 0 84 -41q25 41 80 41q41 0 69.5 -25t28.5 -72t-28.5 -72.5t-69.5 -25.5q-55 0 -80 41q-29 -41 -84 -41q-51 0 -80 41q-29 -41 -82 -41q-51 0 -80 41q-29 -41 -82 -41t-82 41q-29 -41 -82 -41q-51 0 -82 41q-25 -41 -80 -41q-52 0 -81 41q-25 -41 -82 -41 q-39 0 -67 25.5t-28 72.5z" />
<glyph unicode="M" horiz-adv-x="1705" d="M104 100q0 57 41 80q-41 27 -41 82t41 82q-41 23 -41 82q0 55 41 82q-41 23 -41 80q0 55 41 82q-41 23 -41 80t41 84q-41 23 -41 79q0 55 41 82q-41 23 -41 80t41 84q-41 23 -41 80q0 47 29 71.5t70 24.5q53 0 80 -41q27 41 82 41q39 0 68.5 -24.5t29.5 -71.5 q0 -55 -41 -80q18 -14 22 -26q27 41 84 41q39 0 68 -26t29 -73q0 -55 -41 -80q18 -10 24 -26q27 43 82 43q39 0 68.5 -25.5t29.5 -73.5q0 -55 -40 -79q18 -14 22 -27q27 41 82 41t82 -41q8 14 24 27q-40 24 -40 76q0 50 28.5 76t69.5 26q53 0 82 -43q6 16 24 26 q-41 25 -41 80q0 47 28 73t69 26q55 0 84 -41q4 12 22 26q-41 25 -41 80q0 47 28.5 71.5t69.5 24.5q53 0 82 -41q23 41 80 41q41 0 70 -24.5t29 -71.5q0 -57 -41 -80q41 -27 41 -84t-41 -80q41 -27 41 -82q0 -57 -41 -79q41 -27 41 -84t-41 -80q41 -27 41 -82q0 -57 -41 -80 q41 -27 41 -82q0 -59 -41 -82q41 -27 41 -82t-41 -82q41 -23 41 -80q0 -47 -29 -72.5t-70 -25.5q-55 0 -80 41q-31 -41 -82 -41q-41 0 -69.5 25.5t-28.5 72.5q0 55 41 80q-41 29 -41 82t41 82q-41 25 -41 82q0 53 41 82q-41 25 -41 80q0 53 41 82q-41 25 -41 80t41 84 q-16 6 -22 22q-31 -41 -84 -41q-55 0 -80 41q-10 -16 -27 -22q43 -29 43 -84q0 -47 -29.5 -72t-68.5 -25q-53 0 -82 41q-10 -16 -25 -24q41 -29 41 -82q0 -47 -29.5 -73t-68.5 -26q-41 0 -68.5 26t-27.5 73q0 53 41 82q-18 10 -27 24q-29 -41 -80 -41q-41 0 -69.5 24.5 t-28.5 72.5q0 55 41 84q-14 6 -25 22q-29 -41 -80 -41q-55 0 -84 41q-6 -16 -22 -22q41 -29 41 -84t-41 -80q41 -29 41 -82q0 -55 -41 -80q41 -29 41 -82q0 -57 -41 -82q41 -29 41 -82t-41 -82q41 -25 41 -80q0 -47 -30 -72.5t-68 -25.5q-53 0 -82 41q-29 -41 -80 -41 q-41 0 -70 25.5t-29 72.5z" />
<glyph unicode="N" d="M104 100q0 57 41 80q-41 27 -41 82t41 82q-41 23 -41 82q0 55 41 82q-41 23 -41 80q0 55 41 82q-41 23 -41 80t41 84q-41 23 -41 79q0 55 41 82q-41 23 -41 80t41 84q-41 23 -41 80q0 47 29 71.5t70 24.5q53 0 80 -41q27 41 82 41q39 0 68.5 -24.5t29.5 -71.5 q0 -55 -41 -80q18 -14 22 -26q27 41 84 41q39 0 68 -26t29 -73q0 -55 -41 -80q41 -29 41 -82q0 -55 -41 -79q8 -6 14 -12.5t10 -14.5q27 41 82 41q39 0 68.5 -25.5t29.5 -72.5q0 -55 -40 -80q16 -10 22 -25q29 41 82 41t82 -41q8 14 24 25q-40 24 -40 77q0 58 40 87 q-40 24 -40 76q0 56 40 85q-40 24 -40 77q0 58 40 87q-40 24 -40 77q0 50 28.5 74.5t69.5 24.5q53 0 82 -41q23 41 80 41q39 0 68.5 -24.5t29.5 -71.5q0 -55 -41 -80q41 -29 41 -84t-41 -80q41 -29 41 -82q0 -55 -41 -79q41 -29 41 -84t-41 -80q41 -29 41 -82q0 -55 -41 -80 q41 -29 41 -82q0 -57 -41 -82q41 -29 41 -82t-41 -82q41 -25 41 -80q0 -47 -29.5 -72.5t-68.5 -25.5q-55 0 -80 41q-31 -41 -82 -41q-41 0 -69.5 25.5t-28.5 72.5q0 55 40 80q-14 8 -24 27q-29 -43 -82 -43q-41 0 -68.5 25.5t-27.5 72.5q0 53 41 82q-41 25 -41 82 q0 53 41 82q-16 6 -27 22q-29 -41 -80 -41q-41 0 -69.5 26t-28.5 73q0 53 41 82q-16 8 -25 24q-29 -41 -80 -41q-55 0 -84 41q-6 -14 -22 -24q41 -29 41 -82q0 -55 -41 -80q41 -29 41 -82q0 -57 -41 -82q41 -29 41 -82t-41 -82q41 -25 41 -80q0 -47 -30 -72.5t-68 -25.5 q-53 0 -82 41q-29 -41 -80 -41q-41 0 -70 25.5t-29 72.5z" />
<glyph unicode="O" d="M104 262q0 55 41 82q-41 23 -41 82q0 55 41 82q-41 23 -41 80q0 55 41 82q-41 23 -41 80t41 84q-41 23 -41 79q0 55 41 82q-41 23 -41 80q0 47 29 73t70 26q57 0 80 -41q8 14 24 26q-41 23 -41 80q0 47 30 71.5t71 24.5q55 0 77 -41q29 41 82 41q59 0 82 -41q27 41 82 41 q57 0 80 -41q29 41 82 41q55 0 82 -41q27 41 82 41q41 0 68.5 -24.5t27.5 -71.5q0 -55 -41 -80q18 -12 27 -26q27 41 80 41q41 0 69.5 -26t28.5 -73q0 -55 -41 -80q41 -29 41 -82q0 -55 -41 -79q41 -29 41 -84t-41 -80q41 -29 41 -82q0 -55 -41 -80q41 -29 41 -82 q0 -57 -41 -82q41 -29 41 -82q0 -47 -28.5 -72.5t-69.5 -25.5q-53 0 -80 43q-12 -18 -27 -27q41 -25 41 -80q0 -47 -27.5 -72.5t-68.5 -25.5q-53 0 -82 41q-29 -41 -82 -41q-51 0 -82 41q-25 -41 -80 -41q-53 0 -82 41q-25 -41 -82 -41q-51 0 -82 41q-25 -41 -79 -41 q-41 0 -70 25.5t-29 72.5q0 57 41 80q-14 8 -24 27q-25 -43 -82 -43q-41 0 -69 25.5t-28 72.5zM420 180q14 -6 24 -24q31 41 82 41q57 0 82 -41q29 41 82 41q55 0 80 -41q31 41 82 41q53 0 82 -41q12 18 24 24q-40 28 -40 79q0 55 40 85q-40 24 -40 79q0 56 40 85 q-40 24 -40 77q0 56 40 85q-40 24 -40 77q0 58 40 87q-40 24 -40 76q0 56 40 85q-40 24 -40 77q0 58 40 87q-14 6 -24 23q-29 -41 -82 -41q-51 0 -82 41q-25 -41 -80 -41q-53 0 -82 41q-25 -41 -82 -41q-51 0 -82 41q-6 -16 -24 -23q43 -29 43 -84t-43 -80q43 -29 43 -82 q0 -55 -43 -79q43 -29 43 -84t-43 -80q43 -29 43 -82q0 -55 -43 -80q43 -29 43 -82q0 -57 -43 -82q43 -29 43 -82q0 -55 -43 -82z" />
<glyph unicode="P" horiz-adv-x="1310" d="M104 100q0 57 41 80q-41 27 -41 82t41 82q-41 23 -41 82q0 55 41 82q-41 23 -41 80q0 55 41 82q-41 23 -41 80t41 84q-41 23 -41 79q0 47 29 73t70 26q55 0 78 -43q29 43 84 43q41 0 68.5 -25.5t27.5 -73.5q0 -55 -41 -79q18 -12 24 -27q29 41 82 41q57 0 80 -41 q29 41 82 41q59 0 82 -41q27 41 82 41t82 -41q4 8 10 14t14 13q-38 26 -38 76q0 56 38 85q-38 26 -38 77q0 58 38 87q-18 8 -24 23q-29 -41 -82 -41t-82 41q-25 -41 -82 -41q-51 0 -82 41q-25 -41 -80 -41q-51 0 -82 41q-25 -41 -79 -41q-53 0 -84 41q-25 -41 -74 -41 q-51 0 -77 22.5t-26 75.5q0 47 28 71.5t69 24.5q57 0 80 -41q29 41 84 41q57 0 79 -41q29 41 82 41q57 0 80 -41q29 41 82 41q59 0 82 -41q27 41 82 41t82 -41q27 41 82 41q39 0 67.5 -24.5t28.5 -71.5q0 -55 -41 -80q16 -12 25 -26q27 41 84 41q39 0 66.5 -26t27.5 -73 q0 -57 -41 -80q41 -27 41 -82q0 -47 -27.5 -72.5t-68.5 -25.5q-53 0 -82 41q-10 -16 -25 -22q41 -29 41 -84q0 -47 -28.5 -72t-69.5 -25q-51 0 -80 41q-29 -41 -82 -41t-82 41q-25 -41 -82 -41q-51 0 -82 41q-25 -41 -80 -41q-51 0 -82 41q-6 -16 -24 -24q41 -29 41 -82 q0 -55 -41 -80q41 -29 41 -82q0 -57 -41 -82q41 -29 41 -82t-41 -82q41 -25 41 -80q0 -47 -27.5 -72.5t-68.5 -25.5q-53 0 -84 41q-25 -41 -80 -41q-41 0 -69 25.5t-28 72.5z" />
<glyph unicode="Q" horiz-adv-x="1409" d="M104 262q0 55 41 82q-41 23 -41 82q0 55 41 82q-41 23 -41 80q0 55 41 82q-41 23 -41 80t41 84q-41 23 -41 79q0 55 41 82q-41 23 -41 80q0 47 29 73t70 26q53 0 80 -41q4 8 11 14t15 12q-41 23 -41 80q0 47 28 71.5t69 24.5q55 0 81 -41q27 41 82 41q53 0 80 -41 q27 41 82 41q57 0 80 -41q27 41 84 41q53 0 80 -41q27 41 82 41q39 0 68.5 -24.5t29.5 -71.5q0 -55 -41 -80q16 -12 25 -26q23 41 80 41q41 0 69.5 -26t28.5 -73q0 -55 -41 -80q41 -29 41 -82q0 -55 -41 -79q41 -29 41 -84t-41 -80q41 -29 41 -82q0 -55 -41 -80 q41 -29 41 -82q0 -47 -28.5 -72.5t-69.5 -25.5q-55 0 -80 41q-31 -41 -82 -41q-41 0 -69.5 25.5t-28.5 72.5q0 53 40 82q-40 24 -40 77q0 56 40 85q-40 24 -40 77q0 58 40 87q-40 24 -40 76q0 56 40 85q-40 24 -40 77q0 58 40 87q-14 6 -24 23q-29 -41 -80 -41q-55 0 -84 41 q-25 -41 -80 -41q-53 0 -82 41q-29 -41 -80 -41q-53 0 -82 41q-10 -16 -24 -23q41 -29 41 -84t-41 -80q41 -29 41 -82q0 -55 -41 -79q41 -29 41 -84t-41 -80q41 -29 41 -82q0 -55 -41 -80q41 -29 41 -82q0 -57 -41 -82q41 -29 41 -82t-41 -82q12 -6 24 -24q29 41 82 41 q51 0 80 -41q29 41 82 41q55 0 80 -41q29 41 84 41q51 0 80 -41q29 41 82 41q51 0 82 -41q25 41 80 41q53 0 84 -41q25 41 79 41q39 0 69 -25t30 -72t-30 -72.5t-69 -25.5q-55 0 -79 41q-31 -41 -84 -41q-55 0 -80 41q-31 -41 -82 -41q-53 0 -82 41q-29 -41 -80 -41 q-55 0 -84 41q-25 -41 -80 -41q-53 0 -82 41q-29 -41 -80 -41q-53 0 -82 41q-29 -41 -84 -41q-39 0 -66.5 25.5t-27.5 72.5q0 57 41 80q-16 10 -26 27q-29 -43 -80 -43q-41 0 -70 25.5t-29 72.5z" />
<glyph unicode="R" horiz-adv-x="1345" d="M104 100q0 55 39 80q-39 27 -39 82t39 82q-39 25 -39 82q0 55 39 82q-39 25 -39 80t39 82q-39 25 -39 80q0 57 39 84q-39 25 -39 79q0 47 28 73t69 26q57 0 80 -43q29 43 86 43q39 0 66.5 -25.5t27.5 -73.5q0 -55 -41 -79q8 -6 14 -12.5t10 -14.5q27 41 82 41 q57 0 80 -41q29 41 82 41q59 0 82 -41q27 41 82 41t82 -41q4 8 10 14t14 13q-40 24 -40 76q0 56 40 85q-40 24 -40 77q0 58 40 87q-18 8 -24 23q-29 -41 -82 -41t-82 41q-25 -41 -82 -41q-51 0 -82 41q-25 -41 -80 -41q-53 0 -82 41q-25 -41 -82 -41q-51 0 -81 41 q-25 -41 -80 -41q-41 0 -69 25.5t-28 72.5t28 71.5t69 24.5q57 0 80 -41q29 41 81 41q59 0 82 -41q27 41 82 41q57 0 80 -41q29 41 82 41q59 0 82 -41q27 41 82 41t82 -41q27 41 82 41q39 0 67.5 -24.5t28.5 -71.5q0 -55 -41 -80q16 -12 25 -26q27 41 84 41q39 0 66.5 -26 t27.5 -73q0 -57 -41 -80q41 -27 41 -82q0 -47 -27.5 -72.5t-68.5 -25.5q-53 0 -82 41q-10 -16 -25 -22q41 -29 41 -84q0 -47 -28.5 -72t-69.5 -25q-51 0 -80 41q-29 -41 -82 -41t-82 41q-6 -12 -25 -24q41 -29 41 -82q0 -55 -41 -80q18 -10 25 -27q29 41 84 41 q39 0 66.5 -24.5t27.5 -71.5q0 -57 -41 -82q16 -8 27 -25q29 41 82 41q39 0 67.5 -25.5t28.5 -72.5q0 -53 -41 -82q12 -6 25 -24q29 41 82 41q41 0 68.5 -25t27.5 -72t-27.5 -72.5t-68.5 -25.5q-53 0 -82 41q-29 -41 -82 -41q-39 0 -67.5 25.5t-28.5 72.5q0 55 40 80 q-18 10 -24 27q-29 -43 -82 -43q-39 0 -68.5 25.5t-29.5 72.5q0 53 41 82q-16 8 -25 25q-25 -41 -82 -41q-39 0 -67.5 25.5t-28.5 72.5q0 53 41 82q-16 6 -27 22q-25 -41 -80 -41q-53 0 -82 41q-6 -14 -24 -22q41 -29 41 -82q0 -57 -41 -82q41 -29 41 -82t-41 -82 q41 -25 41 -80q0 -47 -29 -72.5t-70 -25.5q-50 0 -81 41q-25 -41 -80 -41q-41 0 -69 25.5t-28 72.5z" />
<glyph unicode="S" horiz-adv-x="1355" d="M86 262q0 47 28.5 72.5t67.5 25.5q53 0 82 -41q29 41 80 41q41 0 69.5 -25.5t28.5 -72.5q0 -55 -39 -82q10 -6 23 -24q29 41 82 41q57 0 82 -41q25 41 82 41q55 0 80 -41q29 41 82 41q57 0 81 -41q12 18 23 24q-37 27 -37 82q0 53 37 82q-37 25 -37 82q0 53 37 82 q-37 25 -37 80q0 53 37 82q-14 10 -23 24q-25 -41 -81 -41q-53 0 -82 41q-25 -41 -80 -41q-57 0 -82 41q-25 -41 -82 -41q-53 0 -82 41q-25 -41 -82 -41q-39 0 -67.5 24.5t-28.5 72.5q0 55 43 84q-16 6 -27 22q-29 -41 -82 -41q-39 0 -67.5 25.5t-28.5 72.5q0 53 41 82 q-41 25 -41 80q0 47 28.5 73t69.5 26q53 0 80 -41q8 12 27 26q-43 25 -43 80q0 47 28.5 71.5t69.5 24.5q57 0 80 -41q27 41 82 41q27 0 48.5 -9t33.5 -32q23 41 82 41q57 0 80 -41q27 41 82 41q27 0 48 -9t33 -32q27 41 82 41q41 0 69 -24.5t28 -71.5q0 -55 -41 -80 q14 -10 24 -26q29 41 84 41q39 0 67.5 -26t28.5 -73t-28.5 -71.5t-69.5 -24.5q-51 0 -82 41q-25 -41 -80 -41q-41 0 -68.5 24.5t-27.5 71.5q0 55 37 84q-12 6 -23 23q-25 -41 -81 -41q-53 0 -82 41q-25 -41 -80 -41q-57 0 -82 41q-25 -41 -82 -41q-53 0 -82 41 q-10 -16 -23 -23q39 -27 39 -84q0 -55 -39 -80q39 -27 39 -82t-39 -79l12.5 -12.5t10.5 -14.5q27 41 82 41q27 0 48.5 -9.5t33.5 -31.5q23 41 82 41q57 0 80 -41q27 41 82 41q27 0 48 -9.5t33 -31.5q27 41 82 41q41 0 69 -25.5t28 -72.5q0 -55 -41 -80q14 -6 24 -25 q31 41 84 41q39 0 67.5 -25.5t28.5 -72.5q0 -55 -40 -80q40 -28 40 -79q0 -59 -40 -85q40 -28 40 -79q0 -49 -28.5 -75t-69.5 -26q-51 0 -82 43q-12 -20 -24 -27q41 -25 41 -80q0 -47 -28 -72.5t-69 -25.5q-53 0 -82 41q-25 -41 -81 -41q-53 0 -82 41q-25 -41 -80 -41 q-57 0 -82 41q-25 -41 -82 -41q-53 0 -82 41q-25 -41 -82 -41q-39 0 -67.5 25.5t-28.5 72.5q0 55 43 80q-14 8 -27 27q-29 -43 -76 -43q-51 0 -76.5 22.5t-25.5 75.5z" />
<glyph unicode="T" horiz-adv-x="1067" d="M29 1239q0 47 29.5 71.5t68.5 24.5q53 0 82 -41q23 41 80 41q55 0 84 -41q23 41 80 41q53 0 82 -41q23 41 79 41q55 0 82 -41q23 41 82 41q53 0 82 -41q27 41 80 41q41 0 69.5 -24.5t28.5 -71.5t-28.5 -72.5t-69.5 -25.5q-55 0 -80 41q-31 -41 -82 -41q-57 0 -82 41 q-29 -41 -82 -41q-51 0 -79 41q-31 -41 -82 -41q-55 0 -80 41q-31 -41 -84 -41q-51 0 -80 41q-31 -41 -82 -41q-41 0 -69.5 25.5t-28.5 72.5zM354 100q0 55 41 80q-41 29 -41 82t41 82q-41 25 -41 82q0 53 41 82q-41 25 -41 80q0 53 41 82q-41 25 -41 80t41 84 q-41 25 -41 79q0 47 30 73t69 26q53 0 82 -43q27 43 79 43q41 0 70 -25.5t29 -73.5q0 -57 -41 -79q41 -27 41 -84t-41 -80q41 -27 41 -82q0 -57 -41 -80q41 -27 41 -82q0 -59 -41 -82q41 -27 41 -82t-41 -82q41 -23 41 -80q0 -47 -29 -72.5t-70 -25.5q-54 0 -79 41 q-31 -41 -82 -41q-39 0 -69 25.5t-30 72.5z" />
<glyph unicode="U" d="M104 262q0 55 41 82q-41 23 -41 82q0 55 41 82q-41 23 -41 80q0 55 41 82q-41 23 -41 80t41 84q-41 23 -41 79q0 55 41 82q-41 23 -41 80t41 84q-41 23 -41 80q0 47 29 71.5t70 24.5q53 0 80 -41q27 41 82 41q39 0 68.5 -24.5t29.5 -71.5q0 -55 -41 -80q41 -29 41 -84 t-41 -80q41 -29 41 -82q0 -55 -41 -79q41 -29 41 -84t-41 -80q41 -29 41 -82q0 -55 -41 -80q41 -29 41 -82q0 -57 -41 -82q41 -29 41 -82t-41 -82q14 -6 22 -24q29 41 84 41q51 0 80 -41q29 41 82 41q51 0 80 -41q29 41 82 41t82 -41q12 18 24 24q-40 28 -40 79q0 55 40 85 q-40 24 -40 79q0 56 40 85q-40 24 -40 77q0 56 40 85q-40 24 -40 77q0 58 40 87q-40 24 -40 76q0 56 40 85q-40 24 -40 77q0 58 40 87q-40 24 -40 77q0 50 28.5 74.5t69.5 24.5q53 0 82 -41q23 41 80 41q39 0 68.5 -24.5t29.5 -71.5q0 -55 -41 -80q41 -29 41 -84t-41 -80 q41 -29 41 -82q0 -55 -41 -79q41 -29 41 -84t-41 -80q41 -29 41 -82q0 -55 -41 -80q41 -29 41 -82q0 -57 -41 -82q41 -29 41 -82t-41 -82q41 -25 41 -80q0 -47 -29.5 -72.5t-68.5 -25.5q-55 0 -80 41q-31 -41 -82 -41q-53 0 -82 41q-29 -41 -82 -41t-82 41q-29 -41 -80 -41 q-53 0 -82 41q-29 -41 -80 -41q-55 0 -84 41q-25 -41 -79 -41q-41 0 -70 25.5t-29 72.5q0 57 43 80q-16 10 -26 27q-29 -43 -80 -43q-41 0 -70 25.5t-29 72.5z" />
<glyph unicode="V" horiz-adv-x="1359" d="M92 588q0 53 41 82q-41 25 -41 80t41 84q-41 25 -41 79q0 53 41 82q-41 25 -41 80t41 84q-41 25 -41 80q0 47 30 71.5t68 24.5q55 0 82 -41q27 41 80 41q41 0 70 -24.5t29 -71.5q0 -57 -41 -80q41 -27 41 -84t-41 -80q41 -27 41 -82q0 -57 -41 -79q41 -27 41 -84t-41 -80 q41 -27 41 -82q0 -57 -41 -80q8 -4 14 -11.5t12 -15.5q25 41 80 41q41 0 68.5 -24.5t27.5 -71.5q0 -57 -39 -82q6 -4 13.5 -10t11.5 -15q29 41 80 41q53 0 82 -41q6 8 11 14.5t13 10.5q-41 25 -41 82q0 47 30 71.5t69 24.5q53 0 82 -41q10 18 24 27q-43 25 -43 80 q0 53 43 82q-43 25 -43 80t43 84q-43 25 -43 79q0 53 43 82q-43 25 -43 80t43 84q-43 25 -43 80q0 47 30 71.5t69 24.5q55 0 81 -41q27 41 82 41q41 0 69 -24.5t28 -71.5q0 -55 -39 -80q39 -27 39 -84q0 -55 -39 -80q39 -27 39 -82t-39 -79q39 -27 39 -84q0 -55 -39 -80 q39 -27 39 -82q0 -47 -28 -73t-69 -26q-53 0 -82 41q-10 -16 -22 -22q39 -27 39 -82q0 -47 -29 -72.5t-69 -25.5q-51 0 -80 41q-4 -8 -11.5 -14.5t-13.5 -10.5q39 -27 39 -82q0 -47 -27.5 -72.5t-68.5 -25.5q-55 0 -82 43q-10 -18 -23 -27q39 -25 39 -80q0 -47 -28.5 -72.5 t-69.5 -25.5q-39 0 -67.5 25.5t-28.5 72.5q0 55 41 80q-14 8 -25 27q-29 -43 -82 -43q-39 0 -68.5 25.5t-29.5 72.5q0 53 41 82q-12 8 -23 25q-29 -41 -84 -41q-39 0 -67.5 25.5t-28.5 72.5q0 53 41 82q-14 6 -25 22q-29 -41 -82 -41q-39 0 -68.5 26t-29.5 73z" />
<glyph unicode="W" horiz-adv-x="1542" d="M104 262q0 55 41 82q-41 23 -41 82q0 55 41 82q-41 23 -41 80q0 55 41 82q-41 23 -41 80t41 84q-41 23 -41 79q0 55 41 82q-41 23 -41 80t41 84q-41 23 -41 80q0 47 29 71.5t70 24.5q53 0 80 -41q27 41 82 41q39 0 68.5 -24.5t29.5 -71.5q0 -55 -41 -80q41 -29 41 -84 t-41 -80q41 -29 41 -82q0 -55 -41 -79q41 -29 41 -84t-41 -80q41 -29 41 -82q0 -55 -41 -80q41 -29 41 -82q0 -57 -41 -82q41 -29 41 -82t-41 -82q14 -6 22 -24q29 41 84 41q51 0 80 -41q12 18 25 24q-41 29 -41 82t41 82q-41 25 -41 82q0 53 41 82q-41 25 -41 80 q0 53 41 82q-41 25 -41 80q0 47 28.5 72.5t69.5 25.5q53 0 80 -41q27 41 82 41q39 0 68.5 -25.5t29.5 -72.5q0 -55 -41 -80q41 -29 41 -82q0 -55 -41 -80q41 -29 41 -82q0 -57 -41 -82q41 -29 41 -82t-41 -82q12 -6 25 -24q29 41 82 41q51 0 82 -41q6 18 24 24 q-41 29 -41 82t41 82q-41 25 -41 82q0 53 41 82q-41 25 -41 80q0 53 41 82q-41 25 -41 80t41 84q-41 25 -41 79q0 53 41 82q-41 25 -41 80t41 84q-41 25 -41 80q0 47 28 71.5t69 24.5q55 0 82 -41q23 41 81 41q39 0 68 -24.5t29 -71.5q0 -57 -41 -80q41 -27 41 -84t-41 -80 q41 -27 41 -82q0 -57 -41 -79q41 -27 41 -84t-41 -80q41 -27 41 -82q0 -57 -41 -80q41 -27 41 -82q0 -59 -41 -82q41 -27 41 -82t-41 -82q41 -23 41 -80q0 -47 -29 -72.5t-68 -25.5q-57 0 -81 41q-29 -41 -82 -41q-55 0 -80 41q-31 -41 -82 -41q-53 0 -82 41 q-29 -41 -82 -41t-82 41q-29 -41 -80 -41q-53 0 -82 41q-29 -41 -80 -41q-55 0 -84 41q-25 -41 -82 -41q-39 0 -67.5 25.5t-28.5 72.5q0 57 43 80q-16 10 -26 27q-29 -43 -82 -43q-41 0 -69 25.5t-28 72.5z" />
<glyph unicode="X" horiz-adv-x="1363" d="M98 100q0 55 41 80q-41 29 -41 82t41 82q-41 25 -41 82q0 47 28 71.5t69 24.5q51 0 79 -41q6 10 13.5 16.5t13.5 10.5q-41 25 -41 80q0 47 28.5 72.5t69.5 25.5q51 0 80 -41q6 14 27 25q-43 25 -43 80t43 84q-20 6 -27 22q-29 -41 -82 -41q-39 0 -67.5 25.5t-28.5 72.5 q0 53 41 82q-16 8 -27 25q-29 -41 -81 -41q-39 0 -67 24.5t-28 71.5q0 55 41 84q-41 25 -41 80q0 47 28 71.5t69 24.5q53 0 79 -41q27 41 84 41q39 0 67 -24.5t28 -71.5q0 -57 -41 -80q41 -27 41 -84t-41 -80q14 -8 26 -26q27 43 82 43q41 0 68.5 -25.5t27.5 -73.5 q0 -57 -41 -79q16 -12 25 -27q27 41 82 41t82 -41q8 14 24 27q-40 24 -40 76q0 50 28.5 76t69.5 26q53 0 80 -43q4 8 10 15t16 11q-41 25 -41 80t41 84q-41 25 -41 80q0 47 28 71.5t69 24.5q55 0 82 -41q23 41 81 41q41 0 68 -24.5t27 -71.5q0 -55 -39 -80q39 -27 39 -84 q0 -47 -28 -71.5t-69 -24.5q-55 0 -79 41q-10 -18 -25 -25q39 -27 39 -82q0 -47 -28.5 -72.5t-69.5 -25.5q-51 0 -80 41q-10 -16 -25 -22q41 -27 41 -84t-41 -80q14 -10 25 -25q29 41 82 41q41 0 68.5 -25.5t27.5 -72.5q0 -55 -39 -80q16 -12 25 -27q25 41 81 41 q41 0 68 -24.5t27 -71.5q0 -57 -39 -82q39 -27 39 -82t-39 -82q39 -25 39 -80q0 -47 -28 -72.5t-69 -25.5q-55 0 -79 41q-29 -41 -84 -41q-39 0 -67 25.5t-28 72.5q0 55 41 80q-41 29 -41 82t41 82q-41 25 -41 82q0 53 41 82q-16 6 -26 22q-29 -41 -82 -41q-39 0 -67.5 26 t-28.5 73q0 53 40 82q-16 8 -24 24q-29 -41 -82 -41t-82 41q-10 -16 -25 -24q41 -27 41 -82q0 -47 -28.5 -73t-69.5 -26q-51 0 -80 41q-10 -16 -26 -22q41 -27 41 -82q0 -59 -41 -82q41 -27 41 -82t-41 -82q41 -23 41 -80q0 -47 -28 -72.5t-69 -25.5q-53 0 -82 41 q-29 -41 -81 -41q-39 0 -67 25.5t-28 72.5z" />
<glyph unicode="Y" horiz-adv-x="1359" d="M82 100q0 47 29.5 72t68.5 25q57 0 82 -41q29 41 82 41q55 0 80 -41q29 41 84 41t80 -41q29 41 82 41q55 0 80 -41q31 41 81 41q57 0 82 -41q12 18 23 24q-39 27 -39 82t39 82q-39 25 -39 82q0 55 39 82q-39 25 -39 80t39 82q-14 10 -23 24q-25 -41 -82 -41q-51 0 -81 41 q-25 -41 -80 -41q-53 0 -82 41q-25 -41 -80 -41t-84 41q-25 -41 -80 -41q-41 0 -69.5 24.5t-28.5 72.5q0 57 41 84q-16 8 -25 22q-25 -41 -82 -41q-39 0 -68.5 25.5t-29.5 72.5q0 53 41 82q-41 25 -41 80t41 84q-41 25 -41 80q0 47 29.5 71.5t68.5 24.5q59 0 82 -41 q27 41 82 41q41 0 69.5 -24.5t28.5 -71.5q0 -55 -41 -80q41 -29 41 -84t-41 -80q41 -29 41 -82q0 -55 -41 -79l12.5 -12.5t10.5 -14.5q27 41 84 41t80 -41q27 41 82 41q57 0 80 -41q29 41 81 41q59 0 82 -41q4 8 10.5 14t12.5 13q-39 25 -39 79q0 55 39 82q-39 25 -39 80 q0 57 39 84q-39 25 -39 80q0 47 28.5 71.5t69.5 24.5q57 0 80 -41q29 41 82 41q41 0 69.5 -24.5t28.5 -71.5q0 -55 -41 -80q41 -29 41 -84t-41 -80q41 -29 41 -82q0 -55 -41 -79q41 -29 41 -84t-41 -80q41 -29 41 -82q0 -55 -41 -80q41 -29 41 -82q0 -57 -41 -82 q41 -29 41 -82q0 -47 -28.5 -72.5t-69.5 -25.5q-51 0 -82 43q-10 -18 -24 -27q43 -25 43 -80q0 -47 -29 -72.5t-70 -25.5q-53 0 -82 41q-25 -41 -82 -41q-51 0 -81 41q-25 -41 -80 -41q-53 0 -82 41q-25 -41 -80 -41t-84 41q-25 -41 -80 -41q-53 0 -82 41q-29 -41 -76 -41 q-53 0 -78.5 22.5t-25.5 75.5z" />
<glyph unicode="Z" horiz-adv-x="1331" d="M80 100q0 55 39 80q-39 27 -39 82q0 47 28.5 72.5t69.5 25.5q51 0 80 -41q8 14 25 25q-39 25 -39 82q0 47 27.5 71.5t68.5 24.5q53 0 82 -41q10 18 22 27q-38 24 -38 77q0 50 28.5 75.5t69.5 25.5q51 0 80 -41q8 14 24 25q-39 25 -39 80q0 47 28 72.5t69 25.5 q55 0 82 -41q4 8 10 14t12 13q-39 25 -39 79q0 47 28.5 73t69.5 26q53 0 80 -43q10 16 25 26q-41 23 -41 80t41 84q-14 6 -25 23q-29 -41 -80 -41q-53 0 -81 41q-29 -41 -82 -41t-82 41q-29 -41 -80 -41q-53 0 -82 41q-29 -41 -82 -41t-82 41q-29 -41 -78 -41t-74.5 22.5 t-25.5 75.5q0 47 28.5 71.5t69.5 24.5q53 0 80 -41q27 41 82 41t82 -41q27 41 82 41q53 0 80 -41q27 41 82 41t82 -41q27 41 81 41q53 0 80 -41q27 41 82 41q57 0 80 -41q27 41 84 41q39 0 67.5 -24.5t28.5 -71.5q0 -55 -41 -80q41 -29 41 -84q0 -47 -28.5 -71.5 t-67.5 -24.5q-55 0 -84 41q-4 -8 -9 -14.5t-13 -10.5q41 -29 41 -82q0 -47 -30 -72.5t-69 -25.5q-53 0 -82 41q-10 -16 -24 -22q41 -29 41 -84q0 -47 -29 -72t-68 -25q-53 0 -81 41q-6 -8 -11.5 -14t-13.5 -10q41 -29 41 -82q0 -47 -29.5 -73t-68.5 -26q-53 0 -82 41 q-10 -16 -25 -22q43 -29 43 -82q0 -47 -29.5 -72.5t-68.5 -25.5q-53 0 -82 41q-6 -8 -11 -14.5t-14 -10.5q41 -29 41 -82t-41 -82q8 -4 13.5 -10t11.5 -14q29 41 82 41q51 0 80 -41q29 41 82 41t82 -41q29 41 81 41q51 0 80 -41q29 41 82 41q55 0 80 -41q29 41 84 41 q39 0 67.5 -25t28.5 -72t-28.5 -72.5t-67.5 -25.5q-55 0 -84 41q-25 -41 -80 -41q-53 0 -82 41q-29 -41 -80 -41q-53 0 -81 41q-29 -41 -82 -41t-82 41q-29 -41 -80 -41q-53 0 -82 41q-29 -41 -82 -41t-82 41q-29 -41 -82 -41q-41 0 -68.5 25.5t-27.5 72.5z" />
<glyph unicode="[" horiz-adv-x="729" d="M180 100q0 55 41 80q-41 29 -41 82t41 82q-41 25 -41 82q0 53 41 82q-41 25 -41 80q0 53 41 82q-41 25 -41 80t41 84q-41 25 -41 79q0 53 41 82q-41 25 -41 80t41 84q-41 25 -41 80q0 47 29 71.5t70 24.5q27 0 48 -9t33 -32q23 41 82 41q57 0 80 -41q27 41 82 41 q41 0 69.5 -24.5t28.5 -71.5t-28.5 -72.5t-69.5 -25.5q-53 0 -82 41q-10 -16 -24 -23q41 -29 41 -84t-41 -80q41 -29 41 -82q0 -55 -41 -79q41 -29 41 -84t-41 -80q41 -29 41 -82q0 -55 -41 -80q41 -29 41 -82q0 -57 -41 -82q41 -29 41 -82t-41 -82q12 -6 24 -24 q29 41 82 41q41 0 69.5 -25t28.5 -72t-28.5 -72.5t-69.5 -25.5q-53 0 -82 41q-25 -41 -80 -41q-57 0 -82 41q-25 -41 -81 -41q-41 0 -70 25.5t-29 72.5z" />
<glyph unicode="\" horiz-adv-x="1171" d="M0 1075q0 55 41 84q-41 25 -41 80q0 47 28.5 71.5t69.5 24.5q39 0 69 -24.5t30 -71.5q0 -55 -43 -80q8 -6 15 -12t11 -14q23 41 80 41q41 0 69.5 -26t28.5 -73q0 -55 -41 -80q8 -4 14.5 -11t12.5 -15q23 43 80 43q41 0 68.5 -25.5t27.5 -73.5q0 -57 -41 -79 q8 -6 15.5 -12.5t11.5 -14.5q23 41 80 41q41 0 69.5 -25.5t28.5 -72.5q0 -57 -41 -80q14 -10 25 -25q25 41 82 41q41 0 68.5 -25.5t27.5 -72.5q0 -57 -41 -80q16 -10 26 -27q25 41 80 41q41 0 70 -24.5t29 -71.5q0 -59 -41 -82q14 -10 24 -25q25 41 82 41q41 0 68.5 -25.5 t27.5 -72.5q0 -55 -41 -82q41 -23 41 -80q0 -47 -27.5 -72.5t-68.5 -25.5t-69.5 25.5t-28.5 72.5q0 55 41 80q-14 8 -25 27q-29 -43 -82 -43q-41 0 -69.5 25.5t-28.5 72.5q0 53 43 82q-18 12 -25 25q-31 -41 -81 -41q-41 0 -70 25.5t-29 72.5q0 53 41 82q-14 6 -24 22 q-29 -41 -82 -41q-41 0 -69 26t-28 73q0 53 41 82q-18 12 -24 24q-31 -41 -82 -41q-41 0 -69.5 24.5t-28.5 72.5q0 55 41 84q-16 6 -23 22q-31 -41 -84 -41q-41 0 -68.5 25.5t-27.5 72.5q0 53 41 82q-18 6 -25 25q-31 -41 -82 -41q-41 0 -69.5 24.5t-28.5 71.5z" />
<glyph unicode="]" horiz-adv-x="729" d="M27 100q0 47 28.5 72t67.5 25q55 0 84 -41q4 8 9 14t13 10q-41 29 -41 82t41 82q-41 25 -41 82q0 53 41 82q-41 25 -41 80q0 53 41 82q-41 25 -41 80t41 84q-41 25 -41 79q0 53 41 82q-41 25 -41 80t41 84q-12 4 -22 23q-29 -41 -84 -41q-39 0 -67.5 25.5t-28.5 72.5 t28.5 71.5t67.5 24.5q57 0 84 -41q23 41 80 41q55 0 82 -41q27 41 80 41q41 0 69.5 -24.5t28.5 -71.5q0 -55 -39 -80q39 -27 39 -84q0 -55 -39 -80q39 -27 39 -82t-39 -79q39 -27 39 -84q0 -55 -39 -80q39 -27 39 -82t-39 -80q39 -27 39 -82q0 -57 -39 -82q39 -27 39 -82 t-39 -82q39 -25 39 -80q0 -47 -29 -72.5t-69 -25.5q-51 0 -80 41q-29 -41 -82 -41q-55 0 -80 41q-29 -41 -84 -41q-39 0 -67.5 25.5t-28.5 72.5z" />
<glyph unicode="^" horiz-adv-x="897" d="M25 913q0 47 29.5 73t68.5 26q55 0 82 -43q10 18 24 26q-43 25 -43 80q0 47 30 73t69 26q55 0 82 -41q6 8 11 14t13 12q-41 25 -41 80q0 47 30 71.5t69 24.5q41 0 68.5 -24.5t27.5 -71.5q0 -55 -39 -80q6 -6 13 -12t11 -14q27 41 80 41q41 0 70 -26t29 -73q0 -55 -39 -80 q12 -8 22 -26q27 43 82 43q41 0 68.5 -25.5t27.5 -73.5q0 -47 -27.5 -72.5t-70.5 -25.5q-51 0 -80 41q-29 -41 -82 -41q-39 0 -68.5 25.5t-29.5 72.5q0 53 41 82q-8 4 -13 10.5t-10 14.5q-29 -41 -81 -41q-53 0 -82 41q-12 -18 -23 -25q39 -27 39 -82q0 -47 -28.5 -72.5 t-69.5 -25.5q-51 0 -80 41q-29 -41 -76 -41q-53 0 -78.5 22.5t-25.5 75.5z" />
<glyph unicode="_" horiz-adv-x="952" d="M-27 -219q0 47 28 71.5t69 24.5q25 0 46 -10t34 -31q29 41 81 41q25 0 46.5 -10t33.5 -31q29 41 84 41q25 0 46.5 -10t33.5 -31q29 41 84 41q25 0 46.5 -10t33.5 -31q29 41 82 41t82 -41q25 41 80 41q39 0 67.5 -24.5t28.5 -71.5q0 -49 -28.5 -74.5t-67.5 -25.5 q-55 0 -80 40q-29 -41 -82 -40q-53 0 -82 40q-12 -20 -33.5 -30t-46.5 -10q-55 0 -84 40q-12 -20 -33.5 -30t-46.5 -10q-55 0 -84 40q-12 -20 -33.5 -30t-46.5 -10q-53 0 -81 40q-12 -20 -34 -30t-46 -10q-41 0 -69 25.5t-28 74.5z" />
<glyph unicode="`" horiz-adv-x="727" d="M104 1399q0 47 28 72.5t69 25.5q25 0 46 -10t34 -31q29 41 81 41q39 0 68 -25.5t29 -72.5q0 -29 -11.5 -49.5t-27.5 -30.5q16 -14 22 -25q29 41 84 41q39 0 68 -25.5t29 -72.5t-29 -72.5t-68 -25.5q-57 0 -84 43q-12 -23 -33.5 -33t-46.5 -10q-41 0 -68.5 25.5 t-27.5 72.5q0 53 37 82q-6 4 -12 9t-10 13q-12 -20 -34 -30.5t-46 -10.5q-41 0 -69 26t-28 73z" />
<glyph unicode="a" d="M104 262q0 55 43 82q-43 23 -43 82q0 47 29 71.5t70 24.5q55 0 80 -41q6 8 12 15.5t14 11.5q-41 23 -41 80q0 47 29 72.5t70 25.5q55 0 79 -41q31 41 82 41q55 0 80 -41q31 41 82 41q57 0 82 -41q29 41 82 41q55 0 80 -41q8 14 27 25q-41 25 -41 80t41 84q-16 6 -27 22 q-25 -41 -80 -41q-53 0 -82 41q-25 -41 -82 -41q-51 0 -82 41q-25 -41 -80 -41q-51 0 -82 41q-25 -41 -79 -41q-53 0 -84 41q-25 -41 -76 -41t-77 22.5t-26 75.5q0 47 29 73t70 26q57 0 80 -43q29 43 84 43q57 0 79 -43q29 43 82 43q57 0 80 -43q29 43 82 43q59 0 82 -43 q27 43 82 43q57 0 80 -43q29 43 82 43q41 0 69.5 -25.5t28.5 -73.5q0 -55 -41 -79q16 -12 25 -27q27 41 82 41q41 0 68.5 -25.5t27.5 -72.5q0 -55 -41 -80q41 -29 41 -82q0 -55 -41 -80q41 -29 41 -82q0 -57 -41 -82q41 -29 41 -82t-41 -82q41 -25 41 -80q0 -47 -28.5 -72.5 t-67.5 -25.5q-53 0 -82 41q-29 -41 -82 -41q-51 0 -82 41q-25 -41 -80 -41q-53 0 -82 41q-25 -41 -82 -41q-51 0 -82 41q-25 -41 -80 -41q-51 0 -82 41q-25 -41 -79 -41q-41 0 -70 25.5t-29 72.5q0 57 41 80q-8 4 -14 11.5t-12 15.5q-25 -43 -80 -43q-41 0 -70 25.5 t-29 72.5zM422 180q12 -6 24 -24q31 41 82 41q55 0 80 -41q31 41 82 41q57 0 82 -41q29 41 82 41q55 0 80 -41q10 18 27 24q-41 29 -41 82t41 82q-41 25 -41 82q0 53 41 82q-16 6 -27 22q-25 -41 -80 -41q-53 0 -82 41q-25 -41 -82 -41q-51 0 -82 41q-25 -41 -80 -41 q-51 0 -82 41q-10 -16 -24 -22q41 -29 41 -82q0 -57 -41 -82q41 -29 41 -82t-41 -82z" />
<glyph unicode="b" horiz-adv-x="1378" d="M104 100q0 57 41 80q-41 27 -41 82t41 82q-41 23 -41 82q0 55 41 82q-41 23 -41 80q0 47 29 72.5t70 25.5q51 0 80 -41q29 41 82 41q39 0 67.5 -25.5t28.5 -72.5q0 -53 -39 -80q39 -29 39 -82q0 -55 -39 -82q39 -29 39 -82t-39 -82q14 -6 22 -24q29 41 84 41q51 0 80 -41 q29 41 82 41q51 0 80 -41q29 41 82 41t82 -41q12 18 24 24q-40 28 -40 79q0 55 40 85q-40 24 -40 79q0 56 40 85q-40 24 -40 77q0 56 40 85q-40 24 -40 77q0 58 40 87q-14 6 -24 22q-29 -41 -82 -41t-82 41q-29 -41 -80 -41q-53 0 -82 41q-29 -41 -80 -41q-55 0 -84 41 q-25 -41 -79 -41q-53 0 -82 41q-29 -41 -82 -41q-41 0 -69 25.5t-28 72.5q0 55 41 82q-41 23 -41 80t41 84q-41 23 -41 80q0 47 29 71.5t70 24.5q53 0 80 -41q27 41 82 41q39 0 67.5 -24.5t28.5 -71.5q0 -53 -39 -80q39 -29 39 -84q0 -53 -39 -80q16 -10 22 -26q27 43 84 43 q53 0 80 -43q27 43 82 43q53 0 80 -43q27 43 82 43t82 -43q27 43 82 43q39 0 66.5 -25.5t27.5 -73.5q0 -55 -39 -79q8 -6 15.5 -12.5t11.5 -14.5q23 41 80 41q39 0 67.5 -25.5t28.5 -72.5q0 -55 -39 -80q39 -27 39 -82t-39 -80q39 -27 39 -82q0 -57 -39 -82q39 -27 39 -82 q0 -47 -28.5 -72.5t-69.5 -25.5q-53 0 -78 43q-10 -16 -27 -27q39 -25 39 -80q0 -47 -27.5 -72.5t-66.5 -25.5q-53 0 -82 41q-29 -41 -82 -41t-82 41q-29 -41 -80 -41q-53 0 -82 41q-29 -41 -80 -41q-55 0 -84 41q-25 -41 -79 -41q-53 0 -82 41q-29 -41 -82 -41 q-41 0 -69 25.5t-28 72.5z" />
<glyph unicode="c" horiz-adv-x="1327" d="M104 262q0 55 41 82q-41 23 -41 82q0 55 41 82q-41 23 -41 80q0 55 41 82q-41 23 -41 80q0 47 29 72.5t70 25.5q53 0 80 -41q8 14 26 27q-41 23 -41 79q0 47 28 73t69 26q55 0 81 -43q27 43 82 43q53 0 80 -43q27 43 82 43t82 -43q27 43 82 43q53 0 80 -43q27 43 82 43 t82 -43q23 43 82 43q39 0 67.5 -25.5t28.5 -73.5q0 -47 -28.5 -72.5t-67.5 -25.5q-57 0 -82 41q-29 -41 -82 -41t-82 41q-29 -41 -80 -41q-53 0 -82 41q-29 -41 -82 -41t-82 41q-29 -41 -80 -41q-53 0 -82 41q-10 -16 -24 -22q41 -29 41 -84t-41 -80q41 -29 41 -82 q0 -55 -41 -80q41 -29 41 -82q0 -57 -41 -82q41 -29 41 -82t-41 -82q12 -6 24 -24q29 41 82 41q51 0 80 -41q29 41 82 41t82 -41q29 41 82 41q51 0 80 -41q29 41 82 41t82 -41q25 41 82 41q39 0 67.5 -25t28.5 -72t-28.5 -72.5t-69.5 -25.5q-55 0 -80 41q-29 -41 -82 -41 t-82 41q-29 -41 -80 -41q-53 0 -82 41q-29 -41 -82 -41t-82 41q-29 -41 -80 -41q-53 0 -82 41q-29 -41 -84 -41q-39 0 -66.5 25.5t-27.5 72.5q0 57 41 80q-14 8 -26 27q-29 -43 -80 -43q-41 0 -70 25.5t-29 72.5z" />
<glyph unicode="d" horiz-adv-x="1378" d="M104 262q0 55 41 82q-41 23 -41 82q0 55 41 82q-41 23 -41 80q0 55 41 82q-41 23 -41 80q0 47 29 72.5t70 25.5q53 0 80 -41q8 14 26 27q-43 23 -43 79q0 47 29 73t70 26q57 0 79 -43q27 43 84 43q53 0 80 -43q27 43 82 43q53 0 80 -43q27 43 82 43t82 -43q10 18 24 26 q-40 24 -40 77q0 58 40 87q-40 24 -40 77q0 50 28.5 74.5t69.5 24.5q53 0 82 -41q23 41 80 41q39 0 67.5 -24.5t28.5 -71.5q0 -55 -39 -80q39 -27 39 -84q0 -55 -39 -80q39 -27 39 -82q0 -47 -28.5 -72.5t-69.5 -25.5q-53 0 -78 41q-31 -41 -82 -41q-53 0 -82 41 q-29 -41 -82 -41t-82 41q-29 -41 -80 -41q-53 0 -82 41q-29 -41 -80 -41q-55 0 -84 41q-6 -16 -22 -22q39 -29 39 -84q0 -53 -39 -80q39 -29 39 -82t-39 -80q39 -29 39 -82q0 -55 -39 -82q39 -29 39 -82t-39 -82q14 -6 22 -24q29 41 84 41q51 0 80 -41q29 41 82 41 q51 0 80 -41q29 41 82 41t82 -41q12 18 24 24q-40 28 -40 79q0 55 40 85q-40 24 -40 79q0 56 40 85q-40 24 -40 77q0 50 28.5 75.5t69.5 25.5q51 0 82 -41q25 41 80 41q39 0 67.5 -25.5t28.5 -72.5q0 -55 -39 -80q39 -27 39 -82q0 -57 -39 -82q39 -27 39 -82t-39 -82 q39 -25 39 -80q0 -47 -28.5 -72.5t-67.5 -25.5q-55 0 -80 41q-31 -41 -82 -41q-53 0 -82 41q-29 -41 -82 -41t-82 41q-29 -41 -80 -41q-53 0 -82 41q-29 -41 -80 -41q-55 0 -84 41q-25 -41 -82 -41q-39 0 -67.5 25.5t-28.5 72.5q0 57 43 80q-14 8 -26 27q-29 -43 -80 -43 q-41 0 -70 25.5t-29 72.5z" />
<glyph unicode="e" horiz-adv-x="1359" d="M104 262q0 55 41 82q-41 23 -41 82q0 55 41 82q-41 23 -41 80q0 55 41 82q-41 23 -41 80q0 47 29 72.5t70 25.5q53 0 80 -41q8 14 26 27q-43 23 -43 79q0 47 29 73t70 26q57 0 79 -43q27 43 84 43q53 0 80 -43q27 43 82 43q53 0 80 -43q27 43 82 43t82 -43q27 43 82 43 q39 0 68.5 -25.5t29.5 -73.5q0 -55 -43 -79q8 -6 15.5 -12.5t11.5 -14.5q23 41 80 41q39 0 68.5 -25.5t29.5 -72.5q0 -55 -41 -80q41 -29 41 -82q0 -47 -29.5 -73t-70.5 -26q-53 0 -78 41q-31 -41 -82 -41q-53 0 -82 41q-29 -41 -82 -41t-82 41q-29 -41 -80 -41 q-53 0 -82 41q-29 -41 -80 -41q-55 0 -84 41q-6 -16 -22 -22q41 -29 41 -82q0 -57 -41 -82q41 -29 41 -82t-41 -82q14 -6 22 -24q29 41 84 41q51 0 80 -41q29 41 82 41q51 0 80 -41q29 41 82 41t82 -41q29 41 82 41q51 0 82 -41q25 41 80 41q39 0 68.5 -25t29.5 -72 t-29.5 -72.5t-68.5 -25.5q-55 0 -80 41q-31 -41 -82 -41q-53 0 -82 41q-29 -41 -82 -41t-82 41q-29 -41 -80 -41q-53 0 -82 41q-29 -41 -80 -41q-55 0 -84 41q-25 -41 -82 -41q-39 0 -67.5 25.5t-28.5 72.5q0 57 43 80q-14 8 -26 27q-29 -43 -80 -43q-41 0 -70 25.5 t-29 72.5zM422 670q16 -10 22 -25q29 41 84 41q51 0 80 -41q29 41 82 41q51 0 80 -41q29 41 82 41t82 -41q8 14 24 25q-40 24 -40 77q0 58 40 87q-14 6 -24 22q-29 -41 -82 -41t-82 41q-29 -41 -80 -41q-53 0 -82 41q-29 -41 -80 -41q-55 0 -84 41q-6 -16 -22 -22 q41 -29 41 -84t-41 -80z" />
<glyph unicode="f" horiz-adv-x="1245" d="M104 100q0 57 41 80q-41 27 -41 82t41 82q-41 23 -41 82q0 55 41 82q-41 23 -41 80q0 55 41 82q-41 23 -41 80t41 84q-41 23 -41 79q0 55 41 82q-41 23 -41 80q0 47 29 73t70 26q57 0 80 -41q4 8 11 14t15 12q-43 23 -43 80q0 47 29 71.5t70 24.5q57 0 79 -41 q29 41 84 41q57 0 80 -41q29 41 82 41q57 0 80 -41q29 41 82 41q59 0 82 -41q27 41 82 41t82 -41q27 41 80 41q41 0 69.5 -24.5t28.5 -71.5t-28.5 -72.5t-69.5 -25.5q-51 0 -80 41q-29 -41 -82 -41t-82 41q-25 -41 -82 -41q-51 0 -82 41q-25 -41 -80 -41q-51 0 -82 41 q-25 -41 -80 -41q-53 0 -84 41q-6 -16 -22 -23q41 -29 41 -84t-41 -80q16 -10 22 -26q29 43 84 43q57 0 80 -43q29 43 82 43q57 0 80 -43q29 43 82 43q41 0 69.5 -25.5t28.5 -73.5q0 -47 -28.5 -72.5t-69.5 -25.5q-51 0 -82 41q-25 -41 -80 -41q-51 0 -82 41 q-25 -41 -80 -41q-53 0 -84 41q-6 -16 -22 -22q41 -29 41 -84t-41 -80q41 -29 41 -82q0 -55 -41 -80q41 -29 41 -82q0 -57 -41 -82q41 -29 41 -82t-41 -82q41 -25 41 -80q0 -47 -28.5 -72.5t-69.5 -25.5q-51 0 -82 41q-25 -41 -80 -41q-41 0 -70 25.5t-29 72.5z" />
<glyph unicode="g" horiz-adv-x="1378" d="M104 -225q0 47 29 72.5t70 25.5q55 0 80 -43q27 43 84 43q51 0 79 -43q27 43 82 43q51 0 80 -43q27 43 82 43q53 0 82 -43q27 43 82 43q51 0 80 -43q12 18 27 25q-41 29 -41 82q0 55 41 79q-18 12 -27 27q-29 -41 -80 -41q-53 0 -82 41q-29 -41 -82 -41t-82 41 q-29 -41 -80 -41q-53 0 -82 41q-29 -41 -79 -41q-41 0 -70 25.5t-29 72.5q0 57 41 80q-16 10 -26 27q-25 -43 -80 -43q-41 0 -70 25.5t-29 72.5q0 55 43 82q-43 23 -43 82q0 55 43 82q-43 23 -43 80q0 55 43 82q-43 23 -43 80q0 47 29 72.5t70 25.5q57 0 80 -41q4 8 11 14 t15 13q-41 23 -41 79q0 47 29 73t70 26q53 0 79 -43q27 43 82 43q53 0 80 -43q27 43 82 43t82 -43q27 43 82 43q53 0 80 -43q27 43 82 43t82 -43q23 43 82 43q39 0 66.5 -25.5t27.5 -73.5q0 -57 -41 -79q41 -27 41 -84t-41 -80q41 -27 41 -82q0 -57 -41 -80q41 -27 41 -82 q0 -47 -27.5 -72.5t-66.5 -25.5q-57 0 -82 41q-29 -41 -82 -41q-41 0 -68.5 25.5t-27.5 72.5q0 53 41 82q-41 25 -41 80q0 53 41 82q-41 25 -41 80t41 84q-16 6 -27 22q-29 -41 -80 -41q-53 0 -82 41q-29 -41 -82 -41t-82 41q-29 -41 -80 -41q-53 0 -82 41q-10 -16 -26 -22 q41 -29 41 -84t-41 -80q41 -29 41 -82q0 -55 -41 -80q41 -29 41 -82q0 -57 -41 -82q41 -29 41 -82t-41 -82q14 -8 26 -24q29 41 82 41q51 0 80 -41q29 41 82 41t82 -41q29 41 82 41q51 0 80 -41q29 41 82 41t82 -41q25 41 82 41q39 0 66.5 -25t27.5 -72q0 -57 -41 -84 q41 -23 41 -79q0 -47 -27.5 -72t-66.5 -25q-59 0 -82 41q-10 -16 -27 -26q41 -25 41 -80q0 -47 -28.5 -73t-67.5 -26q-55 0 -82 41q-27 -41 -80 -41q-55 0 -82 41q-27 -41 -82 -41t-82 41q-27 -41 -80 -41q-55 0 -82 41q-27 -41 -79 -41q-57 0 -84 41q-23 -41 -82 -41 q-41 0 -69 26t-28 73z" />
<glyph unicode="h" horiz-adv-x="1378" d="M104 100q0 57 41 80q-41 27 -41 82t41 82q-41 23 -41 82q0 55 41 82q-41 23 -41 80q0 55 41 82q-41 23 -41 80t41 84q-41 23 -41 79q0 55 41 82q-41 23 -41 80t41 84q-41 23 -41 80q0 47 29 71.5t70 24.5q53 0 80 -41q27 41 82 41q39 0 67.5 -24.5t28.5 -71.5 q0 -55 -41 -80q41 -29 41 -84t-41 -80q6 -4 13 -10t13 -16q27 43 82 43q53 0 80 -43q27 43 82 43q57 0 80 -43q27 43 84 43q53 0 80 -43q27 43 82 43q39 0 67.5 -25.5t28.5 -73.5q0 -55 -41 -79q8 -6 15.5 -12.5t11.5 -14.5q23 41 82 41q39 0 66.5 -25.5t27.5 -72.5 q0 -57 -41 -80q41 -27 41 -82q0 -57 -41 -80q41 -27 41 -82q0 -59 -41 -82q41 -27 41 -82t-41 -82q41 -23 41 -80q0 -47 -27.5 -72.5t-68.5 -25.5q-55 0 -80 41q-29 -41 -84 -41q-39 0 -67.5 25.5t-28.5 72.5q0 55 43 80q-43 27 -43 82q0 53 43 82q-43 25 -43 82q0 53 43 82 q-43 25 -43 80q0 53 43 82q-43 25 -43 80t43 84q-16 6 -27 22q-29 -41 -80 -41q-55 0 -84 41q-25 -41 -80 -41q-53 0 -82 41q-29 -41 -80 -41q-53 0 -82 41q-10 -16 -26 -22q41 -29 41 -84t-41 -80q41 -29 41 -82q0 -55 -41 -80q41 -29 41 -82q0 -57 -41 -82q41 -29 41 -82 t-41 -82q41 -25 41 -80q0 -47 -29 -72.5t-70 -25.5q-50 0 -79 41q-29 -41 -82 -41q-41 0 -69 25.5t-28 72.5z" />
<glyph unicode="i" horiz-adv-x="624" d="M0 913q0 47 29.5 73t68.5 26q55 0 82 -43q27 43 80 43q55 0 82 -43q27 43 80 43q41 0 69.5 -25.5t28.5 -73.5q0 -57 -41 -79q41 -27 41 -84t-41 -80q41 -27 41 -82q0 -57 -41 -80q41 -27 41 -82q0 -59 -41 -82q41 -27 41 -82t-41 -82q41 -23 41 -80q0 -47 -28.5 -72.5 t-69.5 -25.5q-51 0 -80 41q-29 -41 -82 -41q-39 0 -68.5 25.5t-29.5 72.5q0 55 41 80q-41 29 -41 82t41 82q-41 25 -41 82q0 53 41 82q-41 25 -41 80q0 53 41 82q-41 25 -41 80t41 84q-16 6 -23 22q-29 -41 -82 -41q-39 0 -68.5 25.5t-29.5 72.5zM162 1239q0 47 29.5 71.5 t68.5 24.5q55 0 82 -41q27 41 80 41q41 0 69.5 -24.5t28.5 -71.5t-28.5 -72.5t-69.5 -25.5q-51 0 -80 41q-29 -41 -82 -41q-39 0 -68.5 25.5t-29.5 72.5z" />
<glyph unicode="j" horiz-adv-x="716" d="M-72 -225q0 47 30 72.5t69 25.5q53 0 82 -43q12 18 24 25q-41 29 -41 82q0 47 29 72.5t67 25.5q55 0 84 -41q10 18 23 22q-41 29 -41 84t41 80q-41 29 -41 82t41 82q-41 25 -41 82q0 53 41 82q-41 25 -41 80q0 53 41 82q-41 25 -41 80t41 84q-12 4 -23 22 q-29 -41 -84 -41q-39 0 -67.5 25.5t-28.5 72.5t29 73t67 26q57 0 84 -43q23 43 80 43q55 0 82 -43q27 43 80 43q41 0 69.5 -25.5t28.5 -73.5q0 -55 -39 -79q39 -27 39 -84q0 -55 -39 -80q39 -27 39 -82t-39 -80q39 -27 39 -82q0 -57 -39 -82q39 -27 39 -82t-39 -82 q39 -25 39 -80q0 -47 -28.5 -72.5t-69.5 -25.5q-51 0 -80 41q-4 -8 -11 -14t-13 -13q41 -23 41 -79q0 -47 -29 -72t-70 -25q-57 0 -80 41q-6 -8 -12 -15t-14 -11q41 -23 41 -80q0 -47 -28 -73t-71 -26q-52 0 -79 41q-27 -41 -82 -41q-39 0 -69 26t-30 73zM254 1239 q0 47 29.5 71.5t68.5 24.5q55 0 82 -41q27 41 80 41q41 0 69.5 -24.5t28.5 -71.5t-28.5 -72.5t-69.5 -25.5q-51 0 -80 41q-29 -41 -82 -41q-39 0 -68.5 25.5t-29.5 72.5z" />
<glyph unicode="k" horiz-adv-x="1306" d="M104 100q0 57 41 80q-41 27 -41 82t41 82q-41 23 -41 82q0 55 41 82q-41 23 -41 80q0 55 41 82q-41 23 -41 80t41 84q-41 23 -41 79q0 55 41 82q-41 23 -41 80t41 84q-41 23 -41 80q0 47 28 71.5t69 24.5q55 0 82 -41q27 41 82 41q39 0 68.5 -24.5t29.5 -71.5 q0 -55 -43 -80q43 -29 43 -84t-43 -80q43 -29 43 -82q0 -55 -43 -79q43 -29 43 -84t-43 -80q18 -12 24 -25q29 41 82 41t82 -41q8 14 25 25q-41 25 -41 80q0 47 28.5 72.5t69.5 25.5q53 0 80 -41q8 14 27 27q-41 25 -41 79q0 47 27.5 73t68.5 26q55 0 82 -43q23 43 82 43 q39 0 67.5 -25.5t28.5 -73.5q0 -47 -28.5 -72.5t-69.5 -25.5q-55 0 -80 41q-10 -16 -25 -22q41 -29 41 -84q0 -47 -29.5 -72t-68.5 -25q-53 0 -82 41q-6 -12 -25 -24q41 -29 41 -82q0 -55 -41 -80q18 -10 25 -27q29 41 82 41q39 0 68.5 -24.5t29.5 -71.5q0 -57 -41 -82 q14 -10 25 -25q25 41 82 41q39 0 67.5 -25.5t28.5 -72.5q0 -53 -41 -82q16 -6 27 -24q25 41 80 41q39 0 68.5 -25t29.5 -72t-29.5 -72.5t-68.5 -25.5q-55 0 -80 41q-31 -41 -84 -41q-39 0 -67.5 25.5t-28.5 72.5q0 55 40 80q-18 10 -24 27q-29 -43 -82 -43q-41 0 -68.5 25.5 t-27.5 72.5q0 53 41 82q-16 8 -27 25q-29 -41 -80 -41q-41 0 -69.5 25.5t-28.5 72.5q0 53 41 82q-14 6 -25 22q-29 -41 -82 -41t-82 41q-6 -14 -24 -22q43 -29 43 -82q0 -57 -43 -82q43 -29 43 -82q0 -55 -43 -82q43 -25 43 -80q0 -47 -30 -72.5t-68 -25.5q-53 0 -82 41 q-29 -41 -84 -41q-39 0 -67 25.5t-28 72.5z" />
<glyph unicode="l" horiz-adv-x="624" d="M0 1239q0 47 27.5 71.5t68.5 24.5q55 0 82 -41q23 41 82 41q53 0 82 -41q23 41 80 41q41 0 69.5 -24.5t28.5 -71.5q0 -57 -41 -80q41 -27 41 -84t-41 -80q41 -27 41 -82q0 -57 -41 -79q41 -27 41 -84t-41 -80q41 -27 41 -82q0 -57 -41 -80q41 -27 41 -82q0 -59 -41 -82 q41 -27 41 -82t-41 -82q41 -23 41 -80q0 -47 -28.5 -72.5t-69.5 -25.5q-55 0 -80 41q-31 -41 -82 -41q-41 0 -69.5 25.5t-28.5 72.5q0 55 41 80q-41 29 -41 82t41 82q-41 25 -41 82q0 53 41 82q-41 25 -41 80q0 53 41 82q-41 25 -41 80t41 84q-41 25 -41 79q0 53 41 82 q-41 25 -41 80t41 84q-18 8 -25 23q-29 -41 -82 -41q-41 0 -68.5 25.5t-27.5 72.5z" />
<glyph unicode="m" horiz-adv-x="1540" d="M104 100q0 57 41 80q-41 27 -41 82t41 82q-41 23 -41 82q0 55 41 82q-41 23 -41 80q0 55 41 82q-41 23 -41 80t41 84q-41 23 -41 79q0 47 29 73t70 26q55 0 78 -43q29 43 81 43q57 0 80 -43q29 43 82 43q59 0 82 -43q27 43 82 43t82 -43q27 43 80 43q57 0 84 -43 q23 43 80 43q55 0 82 -43q27 43 82 43q39 0 67.5 -25.5t28.5 -73.5q0 -57 -41 -79q16 -12 24 -27q27 41 84 41q39 0 67 -25.5t28 -72.5q0 -57 -41 -80q41 -27 41 -82q0 -57 -41 -80q41 -27 41 -82q0 -59 -41 -82q41 -27 41 -82t-41 -82q41 -23 41 -80q0 -47 -28 -72.5 t-69 -25.5q-53 0 -82 41q-29 -41 -81 -41q-39 0 -67 25.5t-28 72.5q0 55 41 80q-41 29 -41 82t41 82q-41 25 -41 82q0 53 41 82q-41 25 -41 80q0 53 41 82q-41 25 -41 80t41 84q-20 6 -26 22q-29 -41 -82 -41q-55 0 -80 41q-10 -16 -27 -22q41 -29 41 -84t-41 -80 q41 -29 41 -82q0 -55 -41 -80q41 -29 41 -82q0 -57 -41 -82q41 -29 41 -82t-41 -82q41 -25 41 -80q0 -47 -28.5 -72.5t-69.5 -25.5q-51 0 -80 41q-29 -41 -82 -41q-39 0 -67.5 25.5t-28.5 72.5q0 55 41 80q-41 29 -41 82t41 82q-41 25 -41 82q0 53 41 82q-41 25 -41 80 q0 53 41 82q-41 25 -41 80t41 84q-16 6 -27 22q-25 -41 -82 -41q-51 0 -82 41q-6 -16 -22 -22q41 -29 41 -84t-41 -80q41 -29 41 -82q0 -55 -41 -80q41 -29 41 -82q0 -57 -41 -82q41 -29 41 -82t-41 -82q41 -25 41 -80q0 -47 -29 -72.5t-70 -25.5q-50 0 -81 41 q-25 -41 -80 -41q-41 0 -69 25.5t-28 72.5z" />
<glyph unicode="n" horiz-adv-x="1378" d="M104 100q0 57 41 80q-41 27 -41 82t41 82q-41 23 -41 82q0 55 41 82q-41 23 -41 80q0 55 41 82q-41 23 -41 80t41 84q-41 23 -41 79q0 47 29 73t70 26q55 0 78 -43q29 43 81 43q57 0 80 -43q29 43 82 43q59 0 82 -43q27 43 82 43t82 -43q27 43 80 43q57 0 84 -43 q23 43 82 43q39 0 66.5 -25.5t27.5 -73.5q0 -57 -41 -79q18 -12 27 -27q27 41 82 41q39 0 67.5 -25.5t28.5 -72.5q0 -57 -41 -80q41 -27 41 -82q0 -57 -41 -80q41 -27 41 -82q0 -59 -41 -82q41 -27 41 -82t-41 -82q41 -23 41 -80q0 -47 -28.5 -72.5t-69.5 -25.5 q-51 0 -80 41q-29 -41 -82 -41q-39 0 -67.5 25.5t-28.5 72.5q0 55 40 80q-40 28 -40 79q0 55 40 85q-40 24 -40 79q0 56 40 85q-40 24 -40 77q0 56 40 85q-40 24 -40 77q0 58 40 87q-18 8 -24 22q-29 -41 -84 -41q-51 0 -80 41q-29 -41 -82 -41t-82 41q-25 -41 -82 -41 q-51 0 -82 41q-6 -16 -22 -22q41 -29 41 -84t-41 -80q41 -29 41 -82q0 -55 -41 -80q41 -29 41 -82q0 -57 -41 -82q41 -29 41 -82t-41 -82q41 -25 41 -80q0 -47 -29 -72.5t-70 -25.5q-50 0 -81 41q-25 -41 -80 -41q-41 0 -69 25.5t-28 72.5z" />
<glyph unicode="o" d="M104 262q0 55 41 82q-41 23 -41 82q0 55 41 82q-41 23 -41 80q0 55 41 82q-41 23 -41 80q0 47 28 72.5t69 25.5q55 0 82 -41q8 14 24 27q-41 23 -41 79q0 47 29 73t70 26q53 0 79 -43q27 43 82 43q57 0 80 -43q27 43 84 43q53 0 80 -43q27 43 82 43t82 -43q23 43 82 43 q39 0 67.5 -25.5t28.5 -73.5q0 -55 -41 -79q14 -12 27 -27q23 41 80 41q39 0 68.5 -25.5t29.5 -72.5q0 -55 -41 -80q41 -29 41 -82q0 -55 -41 -80q41 -29 41 -82q0 -57 -41 -82q41 -29 41 -82q0 -47 -29.5 -72.5t-68.5 -25.5q-55 0 -80 43q-6 -8 -12.5 -15.5t-14.5 -11.5 q41 -25 41 -80q0 -47 -28.5 -72.5t-67.5 -25.5q-57 0 -82 41q-29 -41 -82 -41t-82 41q-29 -41 -80 -41q-55 0 -84 41q-25 -41 -80 -41q-53 0 -82 41q-29 -41 -79 -41q-41 0 -70 25.5t-29 72.5q0 57 41 80q-14 8 -24 27q-29 -43 -82 -43q-41 0 -69 25.5t-28 72.5zM420 180 q18 -6 24 -24q29 41 82 41q55 0 80 -41q29 41 84 41q51 0 80 -41q29 41 82 41t82 -41q12 18 24 24q-40 28 -40 79q0 55 40 85q-40 24 -40 79q0 56 40 85q-40 24 -40 77q0 56 40 85q-40 24 -40 77q0 58 40 87q-14 6 -24 22q-29 -41 -82 -41t-82 41q-29 -41 -80 -41 q-55 0 -84 41q-25 -41 -80 -41q-53 0 -82 41q-6 -14 -24 -22q41 -29 41 -84t-41 -80q41 -29 41 -82q0 -55 -41 -80q41 -29 41 -82q0 -57 -41 -82q41 -29 41 -82t-41 -82z" />
<glyph unicode="p" d="M104 -63q0 57 43 79q-43 27 -43 84q0 47 29 72t70 25q55 0 80 -41q29 41 84 41q51 0 79 -41q29 41 82 41q51 0 80 -41q29 41 82 41t82 -41q29 41 82 41q51 0 80 -41q10 18 27 24q-41 29 -41 82t41 82q-41 25 -41 82q0 53 41 82q-41 25 -41 80q0 53 41 82q-41 25 -41 80 t41 84q-16 6 -27 22q-29 -41 -80 -41q-53 0 -82 41q-29 -41 -82 -41t-82 41q-29 -41 -80 -41q-53 0 -82 41q-6 -14 -24 -22q41 -29 41 -84t-41 -80q41 -29 41 -82q0 -55 -41 -80q41 -29 41 -82q0 -47 -28.5 -72.5t-67.5 -25.5q-55 0 -84 41q-25 -41 -80 -41q-41 0 -70 25.5 t-29 72.5q0 55 43 82q-43 23 -43 80q0 55 43 82q-43 23 -43 80t43 84q-43 23 -43 79q0 47 29 73t70 26q57 0 80 -43q27 43 84 43q53 0 79 -43q27 43 82 43q53 0 80 -43q27 43 82 43t82 -43q27 43 82 43q53 0 80 -43q27 43 82 43q39 0 68.5 -25.5t29.5 -73.5q0 -55 -41 -79 q16 -12 25 -27q27 41 82 41q39 0 67.5 -25.5t28.5 -72.5q0 -55 -41 -80q41 -29 41 -82q0 -55 -41 -80q41 -29 41 -82q0 -57 -41 -82q41 -29 41 -82q0 -47 -28.5 -72.5t-67.5 -25.5q-55 0 -82 43q-10 -18 -25 -27q41 -25 41 -80q0 -47 -29.5 -72.5t-68.5 -25.5q-53 0 -82 41 q-29 -41 -80 -41q-53 0 -82 41q-29 -41 -82 -41t-82 41q-29 -41 -80 -41q-53 0 -82 41q-4 -8 -10 -14t-14 -13q41 -25 41 -79q0 -53 -41 -82q41 -25 41 -80q0 -47 -28.5 -73t-67.5 -26q-57 0 -84 41q-23 -41 -80 -41q-41 0 -70 26t-29 73q0 57 43 80q-43 27 -43 82z" />
<glyph unicode="q" d="M104 262q0 55 41 82q-41 23 -41 82q0 55 41 82q-41 23 -41 80q0 55 41 82q-41 23 -41 80q0 47 29 72.5t70 25.5q57 0 80 -41q4 8 11 14t15 13q-41 23 -41 79q0 47 28 73t69 26q57 0 79 -43q29 43 84 43q57 0 80 -43q29 43 82 43q57 0 80 -43q29 43 82 43q59 0 82 -43 q27 43 82 43t82 -43q27 43 80 43q41 0 69.5 -25.5t28.5 -73.5q0 -55 -41 -79q41 -29 41 -84t-41 -80q41 -29 41 -82q0 -55 -41 -80q41 -29 41 -82q0 -47 -29.5 -72.5t-68.5 -25.5q-51 0 -80 41q-29 -41 -82 -41q-39 0 -68.5 25.5t-29.5 72.5q0 53 40 82q-40 24 -40 77 q0 56 40 85q-40 24 -40 77q0 58 40 87q-14 6 -24 22q-25 -41 -82 -41q-51 0 -82 41q-25 -41 -80 -41q-51 0 -82 41q-25 -41 -80 -41q-53 0 -84 41q-6 -16 -22 -22q41 -29 41 -84t-41 -80q41 -29 41 -82q0 -55 -41 -80q41 -29 41 -82q0 -57 -41 -82q41 -29 41 -82t-41 -82 q14 -6 22 -24q31 41 84 41q55 0 80 -41q31 41 82 41q55 0 80 -41q31 41 82 41q57 0 82 -41q29 41 82 41t82 -41q29 41 80 41q41 0 69.5 -25t28.5 -72q0 -55 -41 -84q41 -25 41 -79q0 -53 -41 -82q41 -25 41 -80q0 -47 -29.5 -73t-68.5 -26q-53 0 -80 41q-27 -41 -82 -41 q-39 0 -68.5 26t-29.5 73q0 55 40 80q-40 28 -40 79q0 58 40 82q-16 12 -24 27q-25 -41 -82 -41q-51 0 -82 41q-25 -41 -80 -41q-51 0 -82 41q-25 -41 -80 -41q-53 0 -84 41q-25 -41 -79 -41q-41 0 -69 25.5t-28 72.5q0 57 41 80q-16 10 -26 27q-25 -43 -80 -43 q-41 0 -70 25.5t-29 72.5z" />
<glyph unicode="r" horiz-adv-x="1316" d="M104 100q0 57 41 80q-41 27 -41 82t41 82q-41 23 -41 82q0 55 41 82q-41 23 -41 80q0 55 41 82q-41 23 -41 80t41 84q-41 23 -41 79q0 47 29 73t70 26q53 0 80 -43q27 43 82 43t81 -43q27 43 82 43q53 0 80 -43q27 43 82 43t82 -43q27 43 82 43q53 0 80 -43q27 43 82 43 q39 0 68.5 -25.5t29.5 -73.5q0 -55 -41 -79q16 -12 25 -27q23 41 82 41q39 0 67.5 -25.5t28.5 -72.5t-28.5 -72t-67.5 -25q-57 0 -82 41q-29 -41 -82 -41q-41 0 -69.5 24.5t-28.5 72.5q0 55 43 84q-16 6 -27 22q-29 -41 -80 -41q-53 0 -82 41q-29 -41 -82 -41t-82 41 q-29 -41 -80 -41q-53 0 -82 41q-10 -16 -24 -22q41 -29 41 -84t-41 -80q41 -29 41 -82q0 -55 -41 -80q41 -29 41 -82q0 -57 -41 -82q41 -29 41 -82t-41 -82q41 -25 41 -80q0 -47 -30 -72.5t-68 -25.5q-53 0 -82 41q-29 -41 -80 -41q-41 0 -70 25.5t-29 72.5z" />
<glyph unicode="s" horiz-adv-x="1345" d="M86 100q0 47 27.5 72t68.5 25q53 0 82 -41q25 41 82 41q53 0 82 -41q25 41 80 41q57 0 82 -41q25 41 82 41q53 0 82 -41q25 41 82 41q51 0 79 -41q10 18 25 24q-39 27 -39 82t39 82q-39 25 -39 82q0 55 39 82q-16 8 -25 22q-29 -41 -79 -41q-57 0 -82 41q-29 -41 -82 -41 q-57 0 -82 41q-25 -41 -82 -41q-55 0 -80 41q-29 -41 -82 -41q-41 0 -69.5 26t-28.5 73q0 53 41 82q-8 4 -13.5 10t-11.5 14q-29 -41 -82 -41q-41 0 -68.5 24.5t-27.5 72.5q0 47 27.5 72.5t68.5 25.5q55 0 82 -41q6 8 11.5 14t13.5 13q-41 25 -41 79q0 47 28.5 73t69.5 26 q55 0 82 -43q23 43 80 43q59 0 82 -43q23 43 82 43q55 0 82 -43q23 43 82 43q53 0 79 -43q27 43 82 43t82 -43q27 43 82 43q39 0 69 -25.5t30 -73.5q0 -47 -30 -72.5t-69 -25.5q-53 0 -82 41q-29 -41 -82 -41t-82 41q-29 -41 -79 -41q-57 0 -82 41q-29 -41 -82 -41 q-57 0 -82 41q-25 -41 -82 -41q-55 0 -80 41q-8 -14 -25 -22q39 -27 39 -84q0 -55 -39 -80q6 -4 13.5 -10.5t11.5 -14.5q25 41 80 41q57 0 82 -41q25 41 82 41q53 0 82 -41q25 41 82 41q51 0 79 -41q29 41 82 41q39 0 69 -25.5t30 -72.5q0 -55 -41 -80q8 -4 13 -11.5 t11 -15.5q29 41 82 41q39 0 69 -24.5t30 -71.5q0 -57 -43 -82q43 -29 43 -82q0 -47 -30 -72.5t-69 -25.5q-55 0 -82 43q-6 -8 -11 -15.5t-13 -11.5q41 -25 41 -80q0 -47 -30 -72.5t-69 -25.5q-53 0 -82 41q-29 -41 -79 -41q-57 0 -82 41q-29 -41 -82 -41q-57 0 -82 41 q-25 -41 -82 -41q-55 0 -80 41q-29 -41 -82 -41q-57 0 -82 41q-29 -41 -82 -41q-41 0 -68.5 25.5t-27.5 72.5z" />
<glyph unicode="t" horiz-adv-x="1193" d="M0 913q0 47 27.5 73t68.5 26q55 0 84 -43q6 16 23 26q-41 25 -41 80t41 84q-41 25 -41 80q0 47 29.5 71.5t68.5 24.5q53 0 82 -41q23 41 80 41q41 0 69.5 -24.5t28.5 -71.5q0 -57 -41 -80q41 -27 41 -84t-41 -80q8 -4 14.5 -11t12.5 -15q23 43 80 43q53 0 82 -43 q23 43 80 43q41 0 69.5 -25.5t28.5 -73.5q0 -47 -29 -72.5t-69 -25.5q-55 0 -80 41q-31 -41 -82 -41q-55 0 -80 41q-14 -18 -27 -22q41 -27 41 -84t-41 -80q41 -27 41 -82q0 -57 -41 -80q41 -27 41 -82q0 -59 -41 -82q41 -27 41 -82t-41 -82q8 -4 14.5 -10t12.5 -14 q25 41 80 41q51 0 82 -41q25 41 80 41q53 0 81 -41q25 41 82 41q51 0 82 -41q25 41 80 41q41 0 69.5 -25t28.5 -72t-28.5 -72.5t-69.5 -25.5q-55 0 -80 41q-31 -41 -82 -41q-57 0 -82 41q-29 -41 -81 -41q-55 0 -80 41q-31 -41 -82 -41q-55 0 -80 41q-31 -41 -84 -41 q-41 0 -68.5 25.5t-27.5 72.5q0 55 41 80q-18 10 -25 27q-31 -43 -82 -43q-41 0 -69.5 25.5t-28.5 72.5q0 53 41 82q-41 25 -41 82q0 53 41 82q-41 25 -41 80q0 53 41 82q-41 25 -41 80t41 84q-16 6 -23 22q-31 -41 -84 -41q-41 0 -68.5 25.5t-27.5 72.5z" />
<glyph unicode="u" d="M104 262q0 55 41 82q-41 23 -41 82q0 55 41 82q-41 23 -41 80q0 55 41 82q-41 23 -41 80t41 84q-41 23 -41 79q0 45 29 72t72 27q55 0 78 -43q29 43 82 43q41 0 69.5 -25.5t28.5 -73.5q0 -55 -41 -79q41 -29 41 -84t-41 -80q41 -29 41 -82q0 -55 -41 -80q41 -29 41 -82 q0 -57 -41 -82q41 -29 41 -82t-41 -82q14 -6 22 -24q31 41 82 41q57 0 82 -41q29 41 82 41q55 0 80 -41q31 41 82 41q57 0 82 -41q12 18 24 24q-40 28 -40 79q0 55 40 85q-40 24 -40 79q0 56 40 85q-40 24 -40 77q0 56 40 85q-40 24 -40 77q0 58 40 87q-40 24 -40 76 q0 48 29.5 75t70.5 27q53 0 80 -43q27 43 80 43q41 0 69.5 -25.5t28.5 -73.5q0 -55 -41 -79q41 -29 41 -84t-41 -80q41 -29 41 -82q0 -55 -41 -80q41 -29 41 -82q0 -57 -41 -82q41 -29 41 -82t-41 -82q41 -25 41 -80q0 -47 -28.5 -72.5t-69.5 -25.5q-51 0 -80 41 q-29 -41 -82 -41t-82 41q-25 -41 -82 -41q-51 0 -82 41q-25 -41 -80 -41q-53 0 -82 41q-25 -41 -82 -41q-51 0 -82 41q-25 -41 -79 -41q-41 0 -70 25.5t-29 72.5q0 57 41 80q-14 8 -24 27q-25 -43 -80 -43q-41 0 -70 25.5t-29 72.5z" />
<glyph unicode="v" horiz-adv-x="1351" d="M88 588q0 53 41 82q-41 25 -41 80t41 84q-41 25 -41 79q0 47 28.5 73t69.5 26q53 0 82 -43q23 43 80 43q41 0 69.5 -25.5t28.5 -73.5q0 -55 -38 -79q38 -26 38 -81q0 -58 -38 -83q38 -26 38 -79q0 -58 -38 -83q12 -8 22 -27q25 41 82 41q41 0 68.5 -24.5t27.5 -71.5 q0 -57 -39 -82q6 -4 13.5 -10t11.5 -15q25 41 80 41q53 0 82 -41q8 14 24 25q-41 25 -41 82q0 47 28 71.5t69 24.5q55 0 84 -41q10 18 22 27q-41 25 -41 80q0 53 41 82q-41 25 -41 80t41 84q-41 25 -41 79q0 47 28.5 73t69.5 26q55 0 82 -43q23 43 82 43q39 0 69 -25.5 t30 -73.5q0 -55 -41 -79q41 -29 41 -84t-41 -80q41 -29 41 -82q0 -47 -30 -73t-71 -26q-55 0 -80 41q-8 -14 -24 -22q41 -27 41 -82q0 -47 -29 -72.5t-70 -25.5q-55 0 -79 41q-12 -16 -25 -25q39 -27 39 -82q0 -47 -28.5 -72.5t-69.5 -25.5q-55 0 -80 43q-10 -18 -23 -27 q39 -25 39 -80q0 -47 -28.5 -72.5t-69.5 -25.5t-70 25.5t-29 72.5q0 55 41 80q-8 4 -13 11.5t-9 15.5q-31 -43 -82 -43q-41 0 -69.5 25.5t-28.5 72.5q0 53 41 82q-16 8 -25 25q-29 -41 -82 -41q-41 0 -69.5 25.5t-28.5 72.5q0 53 43 82q-14 4 -25 22q-31 -41 -82 -41 q-41 0 -69.5 26t-28.5 73z" />
<glyph unicode="w" horiz-adv-x="1542" d="M104 262q0 55 41 82q-41 23 -41 82q0 55 41 82q-41 23 -41 80q0 55 41 82q-41 23 -41 80t41 84q-41 23 -41 79q0 47 29 73t70 26q57 0 80 -43q29 43 82 43q41 0 69.5 -25.5t28.5 -73.5q0 -55 -41 -79q41 -29 41 -84t-41 -80q41 -29 41 -82q0 -55 -41 -80q41 -29 41 -82 q0 -57 -41 -82q41 -29 41 -82t-41 -82q14 -6 22 -24q31 41 82 41q57 0 82 -41q12 18 25 24q-41 29 -41 82t41 82q-41 25 -41 82q0 53 41 82q-41 25 -41 80q0 53 41 82q-41 25 -41 80t41 84q-41 25 -41 79q0 47 29.5 73t68.5 26q57 0 80 -43q29 43 82 43q41 0 69.5 -25.5 t28.5 -73.5q0 -55 -41 -79q41 -29 41 -84t-41 -80q41 -29 41 -82q0 -55 -41 -80q41 -29 41 -82q0 -57 -41 -82q41 -29 41 -82t-41 -82q18 -6 25 -24q29 41 82 41t82 -41q6 18 24 24q-41 29 -41 82t41 82q-41 25 -41 82q0 53 41 82q-41 25 -41 80q0 53 41 82q-41 25 -41 80 t41 84q-41 25 -41 79q0 47 29 73t68 26q55 0 82 -43q27 43 81 43q41 0 69 -25.5t28 -73.5q0 -57 -41 -79q41 -27 41 -84t-41 -80q41 -27 41 -82q0 -57 -41 -80q41 -27 41 -82q0 -59 -41 -82q41 -27 41 -82t-41 -82q41 -23 41 -80q0 -47 -28 -72.5t-69 -25.5q-53 0 -81 41 q-29 -41 -82 -41q-51 0 -80 41q-29 -41 -82 -41t-82 41q-25 -41 -82 -41q-51 0 -82 41q-25 -41 -80 -41q-53 0 -82 41q-25 -41 -82 -41q-51 0 -82 41q-25 -41 -79 -41q-41 0 -70 25.5t-29 72.5q0 57 41 80q-14 8 -24 27q-25 -43 -80 -43q-41 0 -70 25.5t-29 72.5z" />
<glyph unicode="x" horiz-adv-x="1318" d="M74 100q0 47 28.5 72t69.5 25q51 0 80 -41q12 18 27 24q-41 27 -41 82q0 47 27.5 72.5t68.5 25.5q55 0 80 -41q8 14 26 25q-41 23 -41 82q0 55 41 82q-41 23 -41 80q0 55 41 82q-18 10 -26 24q-25 -41 -82 -41q-41 0 -67.5 24.5t-26.5 72.5q0 57 41 84q-16 6 -27 22 q-29 -41 -82 -41q-41 0 -68.5 25.5t-27.5 72.5t28.5 73t69.5 26q53 0 80 -43q27 43 82 43q39 0 67.5 -25.5t28.5 -73.5q0 -55 -41 -79q8 -6 14.5 -12.5t10.5 -14.5q27 41 84 41q39 0 66.5 -25.5t27.5 -72.5q0 -55 -41 -80q20 -10 27 -25q29 41 81 41q55 0 80 -41q8 14 27 25 q-41 23 -41 80q0 47 28.5 72.5t69.5 25.5q53 0 80 -41q8 14 25 27q-41 25 -41 79q0 47 28.5 73t69.5 26q53 0 80 -43q27 43 82 43q39 0 67.5 -25.5t28.5 -73.5q0 -47 -28.5 -72.5t-69.5 -25.5q-51 0 -80 41q-6 -16 -27 -22q43 -29 43 -84q0 -47 -28.5 -72t-69.5 -25 q-51 0 -80 41q-8 -14 -26 -24q41 -29 41 -82q0 -55 -41 -80q41 -29 41 -82q0 -57 -41 -82q18 -10 26 -25q29 41 82 41q39 0 67.5 -25.5t28.5 -72.5q0 -55 -43 -82q18 -6 27 -24q29 41 82 41q39 0 67.5 -25t28.5 -72t-28.5 -72.5t-69.5 -25.5q-51 0 -80 41q-29 -41 -82 -41 q-39 0 -67.5 25.5t-28.5 72.5q0 55 41 80q-14 8 -25 27q-29 -43 -84 -43q-39 0 -66.5 25.5t-27.5 72.5q0 55 41 82q-18 10 -27 25q-25 -41 -80 -41q-53 0 -81 41q-6 -10 -27 -25q41 -29 41 -82q0 -47 -27.5 -72.5t-68.5 -25.5q-55 0 -82 43q-6 -16 -25 -27q41 -25 41 -80 q0 -47 -28.5 -72.5t-69.5 -25.5q-51 0 -80 41q-29 -41 -82 -41q-41 0 -68.5 25.5t-27.5 72.5z" />
<glyph unicode="y" d="M104 -225q0 47 28 72.5t69 25.5q53 0 82 -43q27 43 82 43q51 0 79 -43q27 43 82 43t80 -43q27 43 84 43q51 0 80 -43q27 43 82 43q51 0 82 -43q12 18 24 25q-40 28 -40 79q0 58 40 82q-16 12 -24 27q-31 -41 -82 -41q-53 0 -82 41q-29 -41 -80 -41q-55 0 -84 41 q-25 -41 -80 -41q-53 0 -82 41q-29 -41 -79 -41q-41 0 -70 25.5t-29 72.5q0 57 41 80q-14 8 -24 27q-29 -43 -82 -43q-41 0 -69 25.5t-28 72.5q0 55 41 82q-41 23 -41 82q0 55 41 82q-41 23 -41 80q0 55 41 82q-41 23 -41 80t41 84q-41 23 -41 79q0 47 28 73t69 26 q55 0 82 -43q27 43 82 43q39 0 67.5 -25.5t28.5 -73.5q0 -55 -41 -79q41 -29 41 -84t-41 -80q41 -29 41 -82q0 -55 -41 -80q41 -29 41 -82q0 -57 -41 -82q41 -29 41 -82t-41 -82q18 -6 24 -24q29 41 82 41q55 0 80 -41q29 41 84 41q51 0 80 -41q29 41 82 41q51 0 82 -41 q12 18 24 24q-40 28 -40 79q0 56 40 85q-40 24 -40 79q0 56 40 85q-40 24 -40 77q0 56 40 85q-40 24 -40 77q0 58 40 87q-40 24 -40 76q0 50 28.5 76t67.5 26q55 0 84 -43q23 43 80 43q39 0 68.5 -25.5t29.5 -73.5q0 -55 -43 -79q43 -29 43 -84t-43 -80q43 -29 43 -82 q0 -55 -43 -80q43 -29 43 -82q0 -57 -43 -82q43 -29 43 -82q0 -55 -43 -82q43 -25 43 -80q0 -57 -43 -84q43 -25 43 -79q0 -47 -29.5 -72t-68.5 -25q-57 0 -80 41q-6 -8 -12.5 -15t-14.5 -11q41 -25 41 -80q0 -47 -28.5 -73t-69.5 -26q-57 0 -80 41q-29 -41 -82 -41 q-55 0 -82 41q-27 -41 -80 -41q-57 0 -84 41q-23 -41 -80 -41q-55 0 -82 41q-27 -41 -79 -41q-55 0 -82 41q-27 -41 -82 -41q-41 0 -69 26t-28 73z" />
<glyph unicode="z" horiz-adv-x="1327" d="M78 100q0 47 28.5 72t69.5 25q55 0 80 -41q6 8 12 14t13 10q-39 27 -39 82q0 47 28.5 72.5t69.5 25.5q55 0 80 -41q8 14 22 25q-39 25 -39 82q0 47 29 71.5t70 24.5q55 0 80 -41q6 8 12 15.5t12 11.5q-39 25 -39 80q0 47 28 72.5t69 25.5q57 0 81 -41q8 14 25 25 q-41 23 -41 80t41 84q-14 6 -25 22q-29 -41 -81 -41q-53 0 -82 41q-29 -41 -80 -41q-53 0 -82 41q-29 -41 -80 -41q-55 0 -84 41q-25 -41 -80 -41q-41 0 -69.5 25.5t-28.5 72.5t28.5 73t69.5 26q57 0 80 -43q27 43 84 43q53 0 80 -43q29 43 82 43q57 0 80 -43q27 43 82 43 t81 -43q27 43 82 43q57 0 80 -43q27 43 82 43t82 -43q27 43 82 43q39 0 67.5 -25.5t28.5 -73.5q0 -47 -28.5 -72.5t-67.5 -25.5q-53 0 -82 41q-10 -16 -24 -22q40 -28 40 -81q0 -50 -29.5 -75t-68.5 -25q-53 0 -82 41q-10 -16 -24 -24q43 -29 43 -82q0 -47 -30 -73t-69 -26 q-53 0 -82 41q-14 -18 -24 -22q41 -29 41 -82q0 -47 -28.5 -72.5t-69.5 -25.5q-53 0 -82 41q-10 -16 -23 -25q41 -29 41 -82t-41 -82q8 -4 13.5 -10t9.5 -14q29 41 82 41t81 -41q29 41 82 41q55 0 80 -41q29 41 82 41t82 -41q29 41 82 41q39 0 67.5 -25t28.5 -72 t-28.5 -72.5t-67.5 -25.5q-53 0 -82 41q-29 -41 -82 -41t-82 41q-29 -41 -80 -41q-53 0 -82 41q-29 -41 -81 -41q-53 0 -82 41q-29 -41 -80 -41q-53 0 -82 41q-29 -41 -80 -41q-55 0 -84 41q-25 -41 -80 -41q-41 0 -69.5 25.5t-28.5 72.5z" />
<glyph unicode="{" horiz-adv-x="890" d="M162 590q0 27 10 47t27 33q-37 27 -37 82q0 47 27.5 72.5t68.5 25.5q53 0 82 -43q25 43 80 43q41 0 68.5 -25.5t27.5 -72.5q0 -55 -39 -82q39 -27 39 -80q0 -47 -27.5 -74t-68.5 -27q-55 0 -80 41q-29 -41 -82 -41q-41 0 -68.5 27t-27.5 74zM324 266q0 47 27.5 71.5 t68.5 24.5t68.5 -24.5t27.5 -71.5q0 -49 -27.5 -74.5t-68.5 -25.5t-68.5 25.5t-27.5 74.5zM324 1075q0 47 27.5 73t68.5 26t68.5 -26t27.5 -73t-27.5 -72.5t-68.5 -25.5t-68.5 25.5t-27.5 72.5zM487 104q0 47 28 72t69 25q51 0 82 -43q27 43 82 43q41 0 68.5 -25t27.5 -72 q0 -49 -28 -74.5t-68 -25.5q-59 0 -82 43q-14 -23 -36 -33t-46 -10q-41 0 -69 25.5t-28 74.5zM487 428q0 47 28 72.5t69 25.5t68.5 -25.5t27.5 -72.5q0 -49 -27.5 -74.5t-68.5 -25.5t-69 25.5t-28 74.5zM487 913q0 47 28 73t69 26t68.5 -26t27.5 -73t-27.5 -73.5 t-68.5 -26.5t-69 26.5t-28 73.5zM487 1237q0 47 28 72.5t69 25.5q53 0 82 -41q25 41 82 41q41 0 68.5 -25.5t27.5 -72.5t-28 -72.5t-68 -25.5q-57 0 -82 43q-29 -43 -82 -43q-41 0 -69 25.5t-28 72.5z" />
<glyph unicode="|" horiz-adv-x="579" d="M193 -63q0 55 40 79q-41 29 -40 84q0 55 40 80q-41 29 -40 82q0 53 40 82q-41 25 -40 82q0 53 40 82q-41 25 -40 80q0 53 40 82q-41 25 -40 80q0 55 40 84q-41 25 -40 79q0 53 40 82q-41 25 -40 80q0 55 40 84q-41 25 -40 80q0 47 28.5 71.5t69.5 24.5t68.5 -24.5 t27.5 -71.5q0 -57 -41 -80q41 -27 41 -84t-41 -80q41 -27 41 -82q0 -57 -41 -79q41 -27 41 -84t-41 -80q41 -27 41 -82q0 -57 -41 -80q41 -27 41 -82q0 -59 -41 -82q41 -27 41 -82t-41 -82q41 -23 41 -80t-41 -84q41 -22 41 -79q0 -47 -27.5 -72t-68.5 -25t-69.5 24.5 t-28.5 72.5z" />
<glyph unicode="}" horiz-adv-x="890" d="M47 104q0 47 27.5 72t68.5 25q55 0 82 -43q31 43 82 43q41 0 68.5 -24.5t27.5 -72.5q0 -49 -27.5 -74.5t-68.5 -25.5q-25 0 -46 10.5t-36 32.5q-23 -43 -82 -43q-41 0 -68.5 25.5t-27.5 74.5zM47 1237q0 47 27.5 72.5t68.5 25.5q57 0 82 -41q29 41 82 41q41 0 68.5 -25.5 t27.5 -72.5t-27.5 -72.5t-68.5 -25.5q-25 0 -46 10t-36 33q-25 -43 -82 -43q-41 0 -68.5 25.5t-27.5 72.5zM211 428q0 47 27.5 72.5t68.5 25.5t68.5 -25.5t27.5 -72.5q0 -49 -27.5 -74.5t-68.5 -25.5t-68.5 25.5t-27.5 74.5zM211 913q0 47 27.5 73t68.5 26t68.5 -25.5 t27.5 -73.5q0 -47 -27.5 -73.5t-68.5 -26.5t-68.5 26.5t-27.5 73.5zM375 266q0 47 27.5 71.5t68.5 24.5t68.5 -24.5t27.5 -71.5q0 -49 -27.5 -74.5t-68.5 -25.5t-68.5 25.5t-27.5 74.5zM375 590q0 53 37 80q-37 27 -37 82q0 47 27.5 72.5t68.5 25.5q55 0 80 -43 q14 23 35.5 33t46.5 10q41 0 68.5 -25.5t27.5 -72.5q0 -55 -37 -82q16 -12 26.5 -33t10.5 -47q0 -47 -27.5 -74t-68.5 -27q-53 0 -82 41q-25 -41 -80 -41q-41 0 -68.5 27t-27.5 74zM375 1075q0 47 27.5 73t68.5 26t68.5 -26t27.5 -73t-27.5 -72.5t-68.5 -25.5t-68.5 25.5 t-27.5 72.5z" />
<glyph unicode="~" horiz-adv-x="1214" d="M104 1075q0 47 28 73t69 26q39 0 67.5 -26t28.5 -73t-28.5 -71.5t-67.5 -24.5q-41 0 -69 24.5t-28 71.5zM266 1239q0 47 29 71.5t70 24.5q53 0 79 -41q27 41 82 41q39 0 68 -24.5t29 -71.5t-29 -72.5t-70 -25.5q-51 0 -80 41q-29 -41 -75 -41q-51 0 -77 22.5t-26 75.5z M592 1075q0 47 28.5 73t69.5 26q53 0 80 -41q27 41 82 41q39 0 67.5 -26t28.5 -73t-28.5 -71.5t-69.5 -24.5q-51 0 -80 41q-29 -41 -76 -41q-102 0 -102 96zM918 1239q0 47 27.5 71.5t68.5 24.5q39 0 67.5 -24.5t28.5 -71.5t-28.5 -72.5t-67.5 -25.5q-41 0 -68.5 25.5 t-27.5 72.5z" />
<glyph unicode="&#xa1;" horiz-adv-x="622" d="M104 -61q0 55 39 79q-39 27 -39 82t39 80q-39 27 -39 84q0 55 39 80q-39 27 -39 82t39 80q-39 27 -39 82q0 47 29 72.5t70 25.5q53 0 78 -41q31 41 84 41q39 0 67.5 -25.5t28.5 -72.5q0 -53 -41 -82q41 -25 41 -80q0 -53 -41 -82q41 -25 41 -80t-41 -84q41 -25 41 -80 q0 -53 -41 -82q41 -25 41 -79q0 -55 -41 -84q18 -8 24 -23q29 41 84 41q39 0 67 -25.5t28 -72.5t-28 -72t-69 -25q-55 0 -82 41q-23 -41 -82 -41q-53 0 -81 41q-23 -41 -80 -41q-41 0 -69 25t-28 72q0 55 39 80q-39 27 -39 84zM104 913q0 47 29 73t70 26q53 0 78 -41 q31 41 84 41q39 0 67.5 -25.5t28.5 -73.5q0 -47 -29 -71.5t-70 -24.5q-51 0 -81 41q-25 -41 -80 -41q-41 0 -69 24.5t-28 71.5z" />
<glyph unicode="&#xa2;" horiz-adv-x="983" d="M70 590q0 53 36 80q-37 25 -36 82q0 47 27.5 72.5t68.5 25.5q25 0 46 -10.5t34 -32.5q8 14 22 24q-37 27 -37 82q0 47 28 73t69 26q53 0 82 -43q4 8 10 14t14 12q-39 23 -39 80q0 51 37 82q-37 23 -37 80q0 47 28 72.5t69 25.5q39 0 67.5 -25.5t28.5 -72.5q0 -57 -39 -80 q39 -29 39 -82q0 -57 -39 -80q16 -12 24 -26q25 43 82 43q53 0 82 -43q25 43 80 43q39 0 67.5 -25.5t28.5 -73.5q0 -47 -28.5 -73.5t-67.5 -26.5q-55 0 -80 41q-29 -41 -82 -41q-55 0 -82 43q-31 -43 -81 -43q-55 0 -82 43q-10 -16 -25 -25q39 -27 39 -79q0 -55 -39 -82 q39 -27 39 -80q0 -55 -39 -82q14 -8 25 -27q27 45 82 45q53 0 81 -45q27 45 82 45q51 0 82 -43q27 43 80 43q39 0 67.5 -25.5t28.5 -72.5q0 -49 -28.5 -74.5t-67.5 -25.5q-55 0 -80 41q-29 -41 -82 -41q-57 0 -82 43q-8 -16 -24 -27q39 -27 39 -78q0 -57 -39 -84 q39 -27 39 -78q0 -49 -29 -74.5t-67 -25.5q-41 0 -69 25.5t-28 74.5q0 51 37 78q-37 27 -37 84q0 51 37 78q-16 12 -22 27q-29 -43 -82 -43q-41 0 -69 25.5t-28 74.5q0 53 37 80q-6 4 -12 9t-10 13q-12 -20 -34 -30.5t-46 -10.5q-41 0 -68.5 27t-27.5 74z" />
<glyph unicode="&#xa3;" horiz-adv-x="1159" d="M82 104q0 47 28.5 72t69.5 25q39 0 67.5 -25t28.5 -72q0 -49 -28.5 -74.5t-67.5 -25.5q-41 0 -69.5 25.5t-28.5 74.5zM82 590q0 47 28.5 72.5t69.5 25.5q53 0 80 -43q4 8 10 14.5t11 10.5q-35 25 -35 82q0 27 9 47t26 32q-35 25 -35 82q0 53 35 82q-35 23 -35 80 q0 47 27.5 73t68.5 26q25 0 46.5 -10.5t33.5 -33.5q4 8 10 14.5t12 12.5q-35 23 -34 80q0 47 27.5 72.5t68.5 25.5q25 0 46 -10t34 -31q29 41 84 41q25 0 46 -10t34 -31q29 41 81 41q39 0 68 -25.5t29 -72.5t-29 -72.5t-68 -25.5q-53 0 -81 41q-12 -20 -34 -30.5t-46 -10.5 q-57 0 -84 43q-8 -16 -23 -25q16 -14 27.5 -33.5t11.5 -48.5t-11 -49t-28 -31q16 -14 27.5 -33.5t11.5 -48.5t-11 -49t-28 -33q16 -12 27.5 -32.5t11.5 -46.5q0 -29 -11 -49.5t-28 -32.5q8 -4 13.5 -11.5t9.5 -15.5q29 45 84 45q53 0 80 -43q31 43 81 43q39 0 68 -25.5 t29 -72.5t-29 -74t-68 -27q-53 0 -81 41q-12 -20 -34 -30.5t-46 -10.5q-53 0 -84 43q-10 -16 -23 -24q16 -12 27.5 -32.5t11.5 -47.5q0 -29 -11 -50.5t-28 -33.5q16 -12 27.5 -30.5t11.5 -47.5t-11 -50t-28 -34q12 -8 23 -24q31 43 84 43t80 -41q31 41 81 41q39 0 68 -25 t29 -72q0 -49 -29 -74.5t-68 -25.5q-55 0 -81 41q-12 -23 -34 -32t-46 -9q-57 0 -84 43q-12 -23 -34 -33t-46 -10q-41 0 -68.5 25.5t-27.5 74.5q0 53 34 78q-4 4 -11 11.5t-11 15.5q-12 -23 -33.5 -33t-46.5 -10q-41 0 -68.5 25.5t-27.5 74.5q0 53 35 78q-35 25 -35 84 q0 27 9 47.5t26 32.5q-4 4 -10.5 9t-10.5 13q-12 -20 -33.5 -30.5t-46.5 -10.5q-41 0 -69.5 27t-28.5 74zM897 266q0 47 27.5 71.5t68.5 24.5q39 0 68 -24.5t29 -71.5q0 -49 -29 -74.5t-68 -25.5q-41 0 -68.5 25.5t-27.5 74.5zM897 1075q0 47 27.5 73t68.5 26q39 0 68 -26 t29 -73t-29 -72.5t-68 -25.5q-41 0 -68.5 25.5t-27.5 72.5z" />
<glyph unicode="&#xa4;" horiz-adv-x="1214" d="M104 266q0 47 28 71.5t69 24.5q39 0 67.5 -24.5t28.5 -71.5q0 -49 -28.5 -74.5t-67.5 -25.5q-41 0 -69 25.5t-28 74.5zM104 1075q0 47 28 73t69 26q39 0 67.5 -26t28.5 -73t-28.5 -72.5t-67.5 -25.5q-41 0 -69 25.5t-28 72.5zM266 428q0 53 37 80q-37 25 -37 82 q0 53 37 80q-37 25 -37 82q0 53 37 79q-37 25 -37 82q0 47 28 73t68 26q25 0 46.5 -10.5t33.5 -32.5q27 43 84 43q25 0 46.5 -10.5t33.5 -32.5q27 43 84 43q25 0 46.5 -10.5t33.5 -32.5q27 43 82 43q39 0 67.5 -25.5t28.5 -73.5q0 -55 -39 -82q39 -27 39 -79q0 -55 -39 -82 q39 -27 39 -80q0 -55 -39 -82q39 -27 39 -80q0 -49 -28.5 -74.5t-67.5 -25.5q-53 0 -82 41q-12 -20 -33.5 -30.5t-46.5 -10.5q-57 0 -84 43q-12 -23 -33.5 -33t-46.5 -10q-57 0 -84 43q-12 -23 -33.5 -33t-46.5 -10q-41 0 -68.5 25.5t-27.5 74.5zM420 508q16 -10 22 -27 q29 45 84 45q53 0 80 -45q29 45 84 45q53 0 80 -43q8 14 23 25q-37 27 -37 82q0 53 37 80q-37 27 -37 82q0 53 37 79q-6 4 -12.5 9.5t-10.5 13.5q-12 -20 -33.5 -30.5t-46.5 -10.5q-53 0 -84 43q-27 -43 -80 -43t-84 43q-6 -14 -22 -25q16 -12 27.5 -32.5t11.5 -46.5 q0 -29 -11.5 -49.5t-27.5 -32.5q16 -12 27.5 -32.5t11.5 -47.5q0 -29 -11.5 -49.5t-27.5 -32.5zM918 266q0 47 27.5 71.5t68.5 24.5q39 0 67.5 -24.5t28.5 -71.5q0 -49 -28.5 -74.5t-67.5 -25.5q-41 0 -68.5 25.5t-27.5 74.5zM918 1075q0 47 27.5 73t68.5 26q39 0 67.5 -26 t28.5 -73t-28.5 -72.5t-67.5 -25.5q-41 0 -68.5 25.5t-27.5 72.5z" />
<glyph unicode="&#xa5;" horiz-adv-x="1052" d="M104 266q0 47 28 71.5t69 24.5q53 0 80 -40q31 41 81 40q53 0 80 -43q8 14 25 25q-37 25 -37 84q0 53 37 80q-16 8 -25 24q-27 -43 -80 -43t-81 41q-12 -20 -34 -30.5t-46 -10.5q-41 0 -69 27t-28 74t28 72.5t69 25.5q53 0 80 -43q31 43 81 43q53 0 80 -45q8 14 25 27 q-37 25 -37 82q0 53 37 79q-37 25 -37 82q0 47 27.5 73t68.5 26q39 0 68 -25.5t29 -73.5q0 -29 -11.5 -49t-27.5 -33q16 -12 27.5 -32.5t11.5 -46.5q0 -29 -11.5 -49.5t-27.5 -32.5q16 -10 22 -27q29 45 84 45q53 0 80 -43q31 43 82 43q39 0 67.5 -25.5t28.5 -72.5 t-28.5 -74t-67.5 -27q-53 0 -82 41q-12 -20 -33.5 -30.5t-46.5 -10.5q-53 0 -84 43q-6 -14 -22 -24q16 -12 27.5 -32.5t11.5 -47.5q0 -29 -11.5 -50.5t-27.5 -33.5q16 -10 22 -25q31 43 84 43t80 -40q31 41 82 40q39 0 67.5 -24.5t28.5 -71.5q0 -49 -28.5 -74.5t-67.5 -25.5 q-53 0 -82 41q-12 -20 -33.5 -30.5t-46.5 -10.5q-57 0 -84 43q-6 -16 -22 -27q16 -12 27.5 -30.5t11.5 -47.5q0 -49 -29 -74.5t-68 -25.5q-41 0 -68.5 25.5t-27.5 74.5q0 53 37 78q-16 12 -25 27q-12 -23 -33.5 -33t-46.5 -10q-53 0 -81 41q-12 -20 -34 -30.5t-46 -10.5 q-41 0 -69 25.5t-28 74.5zM104 1237q0 47 28 72.5t69 25.5q39 0 67.5 -25.5t28.5 -72.5t-28.5 -72.5t-67.5 -25.5q-41 0 -69 25.5t-28 72.5zM266 1075q0 47 28 73t68 26q39 0 68 -26t29 -73t-29 -72.5t-68 -25.5q-41 0 -68.5 25.5t-27.5 72.5zM594 1075q0 47 27.5 73 t68.5 26q39 0 67.5 -26t28.5 -73t-28.5 -72.5t-67.5 -25.5q-41 0 -68.5 25.5t-27.5 72.5zM756 1237q0 47 27.5 72.5t68.5 25.5q39 0 67.5 -25.5t28.5 -72.5t-28.5 -72.5t-67.5 -25.5q-41 0 -68.5 25.5t-27.5 72.5z" />
<glyph unicode="&#xa6;" horiz-adv-x="579" d="M193 -59q0 29 11 48t27 29q-16 14 -27 35t-11 51q0 51 36 78q-37 27 -36 84q0 47 27.5 71.5t68.5 24.5t68.5 -24.5t27.5 -71.5q0 -57 -39 -84q39 -27 39 -78q0 -57 -41 -86q41 -23 41 -77q0 -49 -27.5 -75t-68.5 -26t-68.5 25.5t-27.5 75.5zM193 913q0 51 36 82 q-37 23 -36 80q0 51 36 82q-37 23 -36 80q0 47 27.5 72.5t68.5 25.5t68.5 -25.5t27.5 -72.5q0 -57 -39 -80q39 -29 39 -82q0 -57 -39 -80q39 -29 39 -82q0 -47 -27.5 -73.5t-68.5 -26.5t-68.5 26.5t-27.5 73.5z" />
<glyph unicode="&#xa7;" d="M104 -66q0 47 28 72t69 25q55 0 80 -41q29 41 84 41q51 0 79 -41q29 41 82 41q55 0 80 -41q29 41 84 41q51 0 80 -41q29 41 82 41q51 0 82 -41q6 16 24 26q-41 25 -40 80q0 53 40 82q-41 25 -40 82q0 53 40 82q-18 8 -24 23q-31 -41 -82 -41q-53 0 -82 41 q-29 -41 -80 -41q-55 0 -84 41q-25 -41 -80 -41q-53 0 -82 41q-29 -41 -79 -41q-41 0 -70 25.5t-29 72.5q0 55 41 82q-14 8 -26 24q-25 -41 -80 -41q-41 0 -69 25t-28 72t28 72.5t69 25.5q57 0 80 -41q12 14 26 27q-41 23 -41 80t41 81q-41 25 -41 82q0 55 41 82 q-14 8 -26 25q-25 -41 -80 -41q-41 0 -69 24.5t-28 71.5t28 72.5t69 25.5q57 0 80 -41q12 14 26 27q-41 23 -41 80q0 47 29 72.5t70 25.5q53 0 79 -41q27 41 82 41q57 0 80 -41q27 41 84 41q53 0 80 -41q27 41 82 41q53 0 82 -41q23 41 80 41q55 0 84 -41q23 41 80 41 q39 0 68.5 -25.5t29.5 -72.5t-29.5 -72.5t-68.5 -25.5q-55 0 -80 41q-31 -41 -84 -41q-55 0 -80 41q-31 -41 -82 -41q-53 0 -82 41q-29 -41 -80 -41q-55 0 -84 41q-25 -41 -80 -41q-53 0 -82 41q-4 -8 -10 -13.5t-14 -9.5q41 -29 41 -84t-41 -80q18 -12 24 -24q27 41 82 41 q57 0 80 -41q27 41 84 41q53 0 80 -41q27 41 82 41q53 0 82 -41q23 41 80 41q39 0 68.5 -26t29.5 -73q0 -55 -41 -80q8 -4 14.5 -11t12.5 -15q23 41 80 41q39 0 68.5 -24.5t29.5 -71.5q0 -57 -43 -82q43 -29 43 -82q0 -47 -29.5 -73t-68.5 -26q-55 0 -80 43q-6 -8 -12.5 -14 t-14.5 -10q16 -16 28.5 -35.5t12.5 -48.5q0 -55 -41 -80q8 -4 14.5 -11t12.5 -16q23 41 80 41q39 0 68.5 -24.5t29.5 -71.5q0 -57 -43 -82q43 -29 43 -82q0 -47 -29.5 -72.5t-68.5 -25.5q-55 0 -80 43q-6 -8 -12.5 -14.5t-14.5 -10.5q41 -29 41 -82q0 -47 -29.5 -72.5 t-68.5 -25.5q-55 0 -80 41q-31 -41 -82 -41q-53 0 -82 41q-29 -41 -80 -41q-55 0 -84 41q-25 -41 -80 -41q-53 0 -82 41q-29 -41 -79 -41q-55 0 -84 41q-25 -41 -80 -41q-41 0 -69 25.5t-28 72.5zM420 504q18 -12 24 -25q27 41 82 41q57 0 80 -41q27 41 84 41q53 0 80 -41 q27 41 82 41q53 0 82 -41l7 10.5t7 8.5l8 8q-39 27 -38 80q0 51 36 80q-14 12 -20 24q-31 -41 -82 -41q-53 0 -82 41q-29 -41 -80 -41q-55 0 -84 41q-25 -41 -80 -41q-53 0 -82 41q-6 -14 -24 -22q41 -29 41 -84t-41 -80z" />
<glyph unicode="&#xa8;" horiz-adv-x="1052" d="M104 1237q0 53 37 82q-37 20 -37 80q0 47 28 72.5t69 25.5q25 0 46 -10t34 -31q29 41 81 41q39 0 68 -25.5t29 -72.5q0 -29 -11.5 -49.5t-27.5 -30.5q16 -14 27.5 -33.5t11.5 -48.5q0 -47 -29 -72.5t-68 -25.5q-53 0 -81 41q-12 -20 -34 -30.5t-46 -10.5q-41 0 -69 25.5 t-28 72.5zM594 1237q0 53 39 82q-39 23 -39 80q0 47 27.5 72.5t68.5 25.5q25 0 46.5 -10t33.5 -31q29 41 82 41q39 0 67.5 -25.5t28.5 -72.5q0 -57 -39 -80q39 -29 39 -82q0 -47 -28.5 -72.5t-67.5 -25.5q-53 0 -82 41q-12 -20 -33.5 -30.5t-46.5 -10.5q-41 0 -68.5 25.5 t-27.5 72.5z" />
<glyph unicode="&#xaa;" horiz-adv-x="1214" d="M104 590q0 53 37 80q-37 25 -37 82q0 53 37 79q-37 25 -37 82q0 53 37 82q-37 20 -37 80q0 47 28 73t69 26q25 0 46 -10.5t34 -33.5q10 18 22 27q-37 20 -37 80q0 47 28 72.5t68 25.5q25 0 46.5 -10t33.5 -31q29 41 84 41q25 0 46.5 -10t33.5 -31q29 41 84 41 q25 0 46.5 -10t33.5 -31q29 41 82 41q39 0 67.5 -25.5t28.5 -72.5q0 -57 -39 -80l25 -27q25 43 80 44q39 0 67.5 -26t28.5 -73q0 -57 -39 -80q39 -29 39 -82q0 -55 -39 -82q39 -27 39 -79q0 -55 -39 -82q39 -27 39 -80q0 -47 -28.5 -74t-67.5 -27q-55 0 -80 41 q-29 -41 -82 -41q-41 0 -68.5 27t-27.5 74q0 53 37 80q-37 27 -37 82q0 53 37 79q-6 4 -12.5 9.5t-10.5 13.5q-12 -20 -33.5 -30.5t-46.5 -10.5q-53 0 -84 43q-27 -43 -80 -43t-84 43q-6 -14 -22 -25q16 -12 27.5 -32.5t11.5 -46.5q0 -29 -11.5 -49.5t-27.5 -32.5 q16 -12 27.5 -32.5t11.5 -47.5q0 -47 -29 -74t-68 -27q-53 0 -81 41q-12 -20 -34 -30.5t-46 -10.5q-41 0 -69 27t-28 74zM420 995q18 -14 22 -26q27 43 84 43q25 0 46.5 -10.5t33.5 -32.5q27 43 84 43q25 0 46.5 -10.5t33.5 -32.5q10 18 23 26q-37 23 -37 80q0 53 39 82 q-16 10 -25 23q-12 -20 -33.5 -30.5t-46.5 -10.5q-57 0 -84 43q-12 -23 -33.5 -33t-46.5 -10q-57 0 -84 43q-4 -14 -22 -25q16 -14 27.5 -33.5t11.5 -48.5t-11.5 -49t-27.5 -31z" />
<glyph unicode="&#xab;" horiz-adv-x="1478" d="M29 752q0 47 27.5 72.5t68.5 25.5q53 0 82 -43q10 16 20 24q-37 27 -37 82q0 47 28 73t69 26q53 0 82 -43q8 14 24 26q-16 10 -27.5 31t-11.5 49q0 47 28 73t69 26q53 0 81 -44q25 43 82 44q41 0 69 -26t28 -73t-28 -72.5t-69 -25.5q-57 0 -82 43q-10 -18 -24 -25 q39 -29 39 -82q0 -47 -27.5 -73.5t-68.5 -26.5q-55 0 -82 43q-10 -16 -25 -25q39 -27 39 -79q0 -55 -39 -82q14 -8 25 -27q27 45 82 45q41 0 68.5 -25.5t27.5 -72.5q0 -55 -39 -82q14 -8 24 -27q27 45 82 45q41 0 69 -25.5t28 -72.5q0 -49 -28 -74.5t-69 -25.5q-57 0 -82 43 q-29 -43 -81 -43q-41 0 -69 25.5t-28 74.5q0 27 10.5 47.5t26.5 32.5q-12 8 -22 24q-31 -43 -82 -43q-41 0 -69 27t-28 74q0 27 10.5 47t26.5 33q-12 10 -20 22q-29 -41 -82 -41q-41 0 -68.5 27t-27.5 74zM768 752q0 47 27.5 72.5t68.5 25.5q53 0 82 -43q10 16 20 24 q-37 27 -37 82q0 47 28 73t69 26q53 0 82 -43q8 14 24 26q-16 10 -27.5 31t-11.5 49q0 47 28 73t69 26q53 0 81 -44q25 43 82 44q41 0 69 -26t28 -73t-28 -72.5t-69 -25.5q-57 0 -82 43q-10 -18 -24 -25q39 -29 39 -82q0 -47 -27.5 -73.5t-68.5 -26.5q-55 0 -82 43 q-10 -16 -25 -25q39 -27 39 -79q0 -55 -39 -82q14 -8 25 -27q27 45 82 45q41 0 68.5 -25.5t27.5 -72.5q0 -55 -39 -82q14 -8 24 -27q27 45 82 45q41 0 69 -25.5t28 -72.5q0 -49 -28 -74.5t-69 -25.5q-57 0 -82 43q-29 -43 -81 -43q-41 0 -69 25.5t-28 74.5q0 27 10.5 47.5 t26.5 32.5q-12 8 -22 24q-31 -43 -82 -43q-41 0 -69 27t-28 74q0 27 10.5 47t26.5 33q-12 10 -20 22q-29 -41 -82 -41q-41 0 -68.5 27t-27.5 74z" />
<glyph unicode="&#xac;" horiz-adv-x="1214" d="M104 752q0 47 28 72.5t69 25.5q25 0 46 -10.5t34 -32.5q27 43 81 43q25 0 46.5 -11.5t33.5 -33.5q27 45 84 45q25 0 46.5 -11.5t33.5 -33.5q27 45 84 45q25 0 46.5 -10.5t33.5 -32.5q27 43 82 43q53 0 82 -43q25 43 80 43q39 0 67.5 -25.5t28.5 -72.5q0 -55 -39 -82 q39 -27 39 -80q0 -55 -39 -82q39 -27 39 -80q0 -57 -39 -84q39 -27 39 -78q0 -57 -39 -84q39 -27 39 -78q0 -49 -28.5 -74.5t-67.5 -25.5q-41 0 -68.5 25.5t-27.5 74.5q0 51 36 78q-37 27 -36 84q0 51 36 78q-37 27 -36 84q0 27 10 47.5t26 32.5q-37 27 -36 82q0 27 10 47 t26 33q-16 12 -20 22q-29 -41 -82 -41t-82 41q-12 -20 -33.5 -30.5t-46.5 -10.5q-53 0 -84 43q-27 -43 -80 -43t-84 43q-27 -43 -80 -43t-81 41q-12 -20 -34 -30.5t-46 -10.5q-41 0 -69 27t-28 74z" />
<glyph unicode="&#xad;" horiz-adv-x="741" d="M29 750q0 47 29.5 72.5t68.5 25.5q53 0 82 -41q27 41 80 41q55 0 82 -41q27 41 82 41q53 0 82 -41q27 41 79 41q41 0 70 -25.5t29 -72.5t-29 -72t-70 -25q-51 0 -79 41q-31 -41 -82 -41q-53 0 -82 41q-29 -41 -82 -41q-51 0 -80 41q-31 -41 -82 -41q-39 0 -68.5 24.5 t-29.5 72.5z" />
<glyph unicode="&#xaf;" horiz-adv-x="1052" d="M104 1399q0 47 28 72.5t69 25.5q25 0 46 -10t34 -31q29 41 81 41q25 0 46.5 -10t33.5 -31q29 41 84 41q25 0 46.5 -10t33.5 -31q29 41 84 41q25 0 46.5 -10t33.5 -31q29 41 82 41q39 0 67.5 -25.5t28.5 -72.5t-28.5 -73t-67.5 -26q-53 0 -82 41q-12 -20 -33.5 -30.5 t-46.5 -10.5q-57 0 -84 43q-12 -23 -33.5 -33t-46.5 -10q-57 0 -84 43q-12 -23 -33.5 -33t-46.5 -10q-53 0 -81 41q-12 -20 -34 -30.5t-46 -10.5q-41 0 -69 26t-28 73z" />
<glyph unicode="&#xb0;" horiz-adv-x="890" d="M104 913q0 53 37 82q-37 20 -37 80q0 47 28 73t69 26q39 0 67.5 -26t28.5 -73q0 -29 -11.5 -49t-27.5 -31q16 -14 27.5 -33.5t11.5 -48.5q0 -47 -28.5 -73.5t-67.5 -26.5q-41 0 -69 26.5t-28 73.5zM266 752q0 47 28 72.5t68 25.5q25 0 46.5 -11.5t33.5 -33.5q27 45 84 45 q39 0 68 -25.5t29 -72.5t-29 -74t-68 -27q-53 0 -84 43q-27 -43 -80 -43q-41 0 -68.5 27t-27.5 74zM266 1237q0 47 28 72.5t68 25.5q25 0 46.5 -10t33.5 -31q29 41 84 41q39 0 68 -25.5t29 -72.5t-29 -72.5t-68 -25.5q-57 0 -84 43q-12 -23 -33.5 -33t-46.5 -10 q-41 0 -68.5 25.5t-27.5 72.5zM594 913q0 53 39 82q-39 23 -39 80q0 47 27.5 73t68.5 26q39 0 67.5 -26t28.5 -73q0 -29 -11 -49t-27 -31q16 -14 27 -33.5t11 -48.5q0 -47 -28.5 -73.5t-67.5 -26.5q-41 0 -68.5 26.5t-27.5 73.5z" />
<glyph unicode="&#xb1;" horiz-adv-x="1052" d="M104 750q0 47 29 72.5t70 25.5q55 0 78 -41q29 41 84 41q57 0 79 -41q8 14 25 27q-39 25 -39 79q0 55 39 82q-39 25 -39 80q0 47 28.5 73t67.5 26q41 0 70 -26t29 -73q0 -55 -41 -80q41 -29 41 -82q0 -55 -41 -79q18 -14 22 -27q29 41 82 41q59 0 82 -41q27 41 84 41 q39 0 66.5 -25.5t27.5 -72.5t-27.5 -72t-68.5 -25q-53 0 -82 41q-25 -41 -82 -41q-51 0 -82 41q-6 -14 -22 -24q41 -29 41 -82q0 -55 -41 -80q41 -29 41 -82q0 -47 -29 -72.5t-70 -25.5q-39 0 -67.5 25.5t-28.5 72.5q0 55 39 82q-39 25 -39 80t39 82q-16 8 -25 24 q-25 -41 -79 -41q-53 0 -84 41q-25 -41 -74 -41q-102 0 -103 97zM184 99q0 47 29 72.5t70 25.5q53 0 80 -41q29 41 82 41q57 0 79 -41q29 41 84 41q53 0 80 -41q29 41 82 41q39 0 68.5 -25.5t29.5 -72.5t-29.5 -72t-68.5 -25q-51 0 -82 41q-29 -41 -80 -41q-53 0 -84 41 q-25 -41 -79 -41q-51 0 -82 41q-29 -41 -80 -41q-41 0 -70 24.5t-29 72.5z" />
<glyph unicode="&#xb2;" horiz-adv-x="702" d="M92 589q0 51 37 78q-37 27 -37 84q0 51 37 78q-37 27 -37 84q0 47 27.5 72.5t68.5 25.5q49 0 80 -43q25 43 82 43q53 0 82 -45q4 8 10.5 14.5l12.5 12.5q-37 27 -37 82q0 53 37 80q-16 10 -25 26q-27 -45 -80 -45q-57 0 -82 43q-29 -43 -80 -43q-41 0 -68.5 27t-27.5 74 t27.5 72.5t68.5 25.5q49 0 80 -43q25 43 82 43q53 0 82 -45q27 45 82 45q39 0 67.5 -25.5t28.5 -72.5q0 -29 -11 -49.5t-28 -32.5q16 -12 27.5 -33t11.5 -47q0 -29 -11 -49.5t-28 -32.5q16 -12 27.5 -32.5t11.5 -47.5q0 -49 -28.5 -74.5t-67.5 -25.5q-27 0 -49.5 10 t-34.5 33q-12 -23 -33.5 -33t-46.5 -10q-57 0 -82 41q-8 -14 -22 -25q16 -12 27.5 -31.5t11.5 -46.5q0 -29 -11.5 -50t-27.5 -34q12 -10 22 -22q25 41 82 41q53 0 80 -43q27 43 84 43q39 0 67.5 -25t28.5 -72q0 -49 -28.5 -74.5t-67.5 -25.5q-27 0 -49.5 10.5t-34.5 32.5 q-12 -23 -33.5 -33t-46.5 -10q-57 0 -82 41q-29 -41 -80 -41q-41 0 -68.5 25.5t-27.5 74.5z" />
<glyph unicode="&#xb3;" horiz-adv-x="702" d="M92 589q0 47 27.5 72t68.5 25q51 0 80 -41q25 41 82 41q53 0 80 -43q8 14 25 24q-37 27 -37 84q0 47 27.5 71.5t68.5 24.5q39 0 67.5 -24.5t28.5 -71.5q0 -29 -11 -50t-28 -34q16 -12 27.5 -31.5t11.5 -46.5q0 -49 -28.5 -74.5t-67.5 -25.5q-27 0 -49.5 10.5t-34.5 32.5 q-12 -23 -33.5 -33t-46.5 -10q-57 0 -82 41q-29 -41 -80 -41q-41 0 -68.5 25.5t-27.5 74.5zM92 1237q0 47 27.5 72.5t68.5 25.5q49 0 80 -43q25 43 82 43q53 0 82 -45q27 45 82 45q39 0 67.5 -25.5t28.5 -72.5q0 -29 -11 -49.5t-28 -32.5q16 -12 27.5 -32.5t11.5 -47.5 q0 -47 -28.5 -74t-67.5 -27q-41 0 -68.5 27t-27.5 74q0 53 37 80q-16 10 -25 26q-27 -45 -80 -45q-57 0 -82 43q-29 -43 -80 -43q-41 0 -68.5 27t-27.5 74zM254 913q0 47 27.5 72.5t68.5 25.5q39 0 67.5 -25.5t28.5 -72.5q0 -49 -28.5 -74.5t-67.5 -25.5q-41 0 -68.5 25.5 t-27.5 74.5z" />
<glyph unicode="&#xb4;" horiz-adv-x="727" d="M104 1237q0 47 28 72.5t69 25.5q25 0 46 -10t34 -31q4 6 10 13.5t12 11.5q-37 20 -37 80q0 47 28 72.5t68 25.5q25 0 46.5 -10t33.5 -31q29 41 84 41q39 0 68 -25.5t29 -72.5t-29 -73t-68 -26q-57 0 -84 43q-4 -14 -22 -24q16 -14 27.5 -33.5t11.5 -48.5q0 -47 -29 -72.5 t-68 -25.5q-53 0 -81 41q-12 -20 -34 -30.5t-46 -10.5q-41 0 -69 25.5t-28 72.5z" />
<glyph unicode="&#xb6;" horiz-adv-x="1171" d="M61 913q0 51 37 82q-37 23 -37 80q0 47 28 73t69 26q53 0 82 -44q4 8 9 15.5t11 11.5q-37 23 -37 80q0 47 28 72.5t68 25.5q53 0 82 -41q25 41 82 41q53 0 82 -41q25 41 82 41q53 0 82 -41q25 41 80 41q53 0 82 -41q25 41 80 41q41 0 68.5 -25.5t27.5 -72.5 q0 -57 -37 -80q37 -31 37 -82q0 -57 -37 -80q37 -31 37 -82q0 -55 -37 -82q37 -27 37 -79q0 -55 -37 -82q37 -27 37 -80q0 -55 -37 -82q37 -27 37 -80q0 -57 -37 -84q37 -27 37 -78q0 -57 -37 -84q37 -27 37 -78q0 -49 -27.5 -74.5t-68.5 -25.5t-69 25.5t-28 74.5 q0 51 37 78q-37 27 -37 84q0 51 37 78q-37 27 -37 84q0 27 10.5 47.5t26.5 32.5q-37 27 -37 82q0 27 10.5 47t26.5 33q-37 27 -37 82q0 27 10.5 47t26.5 32q-37 27 -37 82q0 51 37 82q-37 23 -37 80q0 51 37 82q-12 10 -20 23q-29 -41 -82 -41q-55 0 -80 41q-29 -41 -82 -41 q-57 0 -82 43q-6 -14 -24 -25q39 -29 39 -82q0 -57 -39 -80q39 -29 39 -82q0 -55 -39 -82q39 -27 39 -79q0 -55 -39 -82q39 -27 39 -80q0 -55 -39 -82q39 -27 39 -80q0 -57 -39 -84q39 -27 39 -78q0 -57 -39 -84q39 -27 39 -78q0 -49 -28 -74.5t-69 -25.5t-68.5 25.5 t-27.5 74.5q0 51 37 78q-37 27 -37 84q0 51 37 78q-37 27 -37 84q0 27 10.5 47.5t26.5 32.5q-37 27 -37 82q0 27 10.5 47t26.5 33q-12 8 -23 24q-31 -43 -82 -43q-41 0 -68.5 27t-27.5 74q0 27 10.5 47t26.5 32q-12 10 -20 23q-29 -41 -82 -41q-41 0 -69 26.5t-28 73.5z" />
<glyph unicode="&#xb7;" horiz-adv-x="567" d="M104 587q0 57 41 80q-41 27 -41 82q0 47 29 72.5t70 25.5q55 0 80 -41q31 41 82 41q41 0 69.5 -25.5t28.5 -72.5q0 -53 -41 -82q41 -25 41 -80q0 -47 -28.5 -72.5t-69.5 -25.5q-51 0 -82 41q-25 -41 -80 -41q-41 0 -70 25.5t-29 72.5z" />
<glyph unicode="&#xb8;" horiz-adv-x="567" d="M104 -223q0 47 28 71.5t69 24.5q53 0 82 -41q29 41 82 41q39 0 68.5 -24.5t29.5 -71.5q0 -57 -43 -84q43 -25 43 -76q0 -53 -43 -80q43 -25 43 -78q0 -47 -30 -71.5t-68 -24.5q-41 0 -70 24.5t-29 71.5q0 55 41 78q-14 8 -24 23q-25 -39 -82 -39q-41 0 -69 24.5t-28 71.5 q0 53 41 76q-41 27 -41 84z" />
<glyph unicode="&#xb9;" horiz-adv-x="581" d="M92 1237q0 47 27.5 72.5t68.5 25.5q49 0 80 -43q25 43 82 43q39 0 67.5 -25.5t28.5 -72.5q0 -29 -11 -49.5t-27 -32.5q16 -12 27 -33t11 -47q0 -29 -11 -49.5t-27 -32.5q16 -12 27 -32.5t11 -47.5q0 -29 -11 -50.5t-27 -33.5q16 -12 27 -31.5t11 -46.5q0 -29 -11 -50 t-27 -34q16 -12 27 -31.5t11 -46.5q0 -49 -28.5 -74.5t-67.5 -25.5q-41 0 -68.5 25.5t-27.5 74.5q0 51 37 78q-37 27 -37 84q0 51 37 78q-37 27 -37 84q0 53 37 80q-37 27 -37 82q0 53 37 80q-14 10 -23 24q-29 -43 -80 -43q-41 0 -68.5 27t-27.5 74z" />
<glyph unicode="&#xba;" horiz-adv-x="1214" d="M104 752q0 53 37 79q-37 25 -37 82q0 53 37 82q-37 20 -37 80q0 47 28 73t69 26q25 0 46 -10.5t34 -33.5q10 18 22 27q-37 20 -37 80q0 47 28 72.5t68 25.5q25 0 46.5 -10t33.5 -31q29 41 84 41q25 0 46.5 -10t33.5 -31q29 41 84 41q25 0 46.5 -10t33.5 -31q29 41 82 41 q39 0 67.5 -25.5t28.5 -72.5q0 -57 -39 -80l25 -27q25 43 80 44q39 0 67.5 -26t28.5 -73q0 -57 -39 -80q39 -29 39 -82q0 -55 -39 -82q39 -27 39 -79q0 -47 -28.5 -74t-67.5 -27q-55 0 -80 41q-8 -12 -25 -22q39 -27 39 -80q0 -47 -28.5 -74t-67.5 -27q-53 0 -82 41 q-12 -20 -33.5 -30.5t-46.5 -10.5q-53 0 -84 43q-27 -43 -80 -43t-84 43q-27 -43 -80 -43q-41 0 -68.5 27t-27.5 74q0 53 37 80q-6 4 -12 9t-10 13q-12 -20 -34 -30.5t-46 -10.5q-41 0 -69 27t-28 74zM420 670q16 -10 22 -27q29 45 84 45q53 0 80 -45q29 45 84 45 q53 0 80 -43q8 14 23 25q-37 27 -37 82q0 53 37 79q-37 27 -37 82q0 51 37 82q-37 23 -37 80q0 53 39 82q-16 10 -25 23q-12 -20 -33.5 -30.5t-46.5 -10.5q-57 0 -84 43q-12 -23 -33.5 -33t-46.5 -10q-57 0 -84 43q-4 -14 -22 -25q16 -14 27.5 -33.5t11.5 -48.5t-11.5 -49 t-27.5 -31q16 -14 27.5 -33.5t11.5 -48.5t-11.5 -49t-27.5 -33q16 -12 27.5 -32t11.5 -47q0 -29 -11.5 -49.5t-27.5 -32.5z" />
<glyph unicode="&#xbb;" horiz-adv-x="1478" d="M29 428q0 47 28.5 72.5t67.5 25.5q55 0 84 -45q6 16 22 27q-16 12 -27 32.5t-11 49.5q0 47 28.5 72.5t67.5 25.5q55 0 84 -45q6 16 22 27q-16 12 -27.5 32.5t-11.5 49.5q0 27 11.5 47t27.5 32q-16 10 -22 25q-31 -43 -84 -43q-39 0 -67.5 26.5t-28.5 73.5q0 29 11 48.5 t27 33.5q-16 6 -22 25q-29 -43 -84 -43q-39 0 -67.5 25.5t-28.5 72.5t28.5 73t67.5 26q55 0 84 -44q12 23 33.5 33.5t46.5 10.5q41 0 68.5 -26t27.5 -73q0 -57 -39 -80q8 -6 15.5 -12t11.5 -14q12 23 33.5 33t46.5 10q41 0 68.5 -25.5t27.5 -73.5q0 -57 -37 -82 q14 -10 23 -24q12 23 33.5 33t45.5 10q41 0 69 -25.5t28 -72.5t-28 -74t-69 -27q-25 0 -46 10.5t-33 30.5q-4 -8 -10.5 -13t-12.5 -9q37 -27 37 -80q0 -47 -27.5 -74t-68.5 -27q-53 0 -80 43q-10 -16 -25 -24q37 -27 37 -80q0 -49 -27.5 -74.5t-68.5 -25.5q-25 0 -46.5 10 t-33.5 33q-29 -43 -84 -43q-39 0 -67.5 25.5t-28.5 74.5zM768 428q0 47 28.5 72.5t67.5 25.5q55 0 84 -45q6 16 22 27q-16 12 -27 32.5t-11 49.5q0 47 28.5 72.5t67.5 25.5q55 0 84 -45q6 16 22 27q-16 12 -27.5 32.5t-11.5 49.5q0 27 11.5 47t27.5 32q-16 10 -22 25 q-31 -43 -84 -43q-39 0 -67.5 26.5t-28.5 73.5q0 29 11 48.5t27 33.5q-16 6 -22 25q-29 -43 -84 -43q-39 0 -67.5 25.5t-28.5 72.5t28.5 73t67.5 26q55 0 84 -44q12 23 33.5 33.5t46.5 10.5q41 0 68.5 -26t27.5 -73q0 -57 -39 -80q8 -6 15.5 -12t11.5 -14q12 23 33.5 33 t46.5 10q41 0 68.5 -25.5t27.5 -73.5q0 -57 -37 -82q14 -10 23 -24q12 23 33.5 33t45.5 10q41 0 69 -25.5t28 -72.5t-28 -74t-69 -27q-25 0 -46 10.5t-33 30.5q-4 -8 -10.5 -13t-12.5 -9q37 -27 37 -80q0 -47 -27.5 -74t-68.5 -27q-53 0 -80 43q-10 -16 -25 -24 q37 -27 37 -80q0 -49 -27.5 -74.5t-68.5 -25.5q-25 0 -46.5 10t-33.5 33q-29 -43 -84 -43q-39 0 -67.5 25.5t-28.5 74.5z" />
<glyph unicode="&#xbc;" horiz-adv-x="1738" d="M92 1237q0 47 27.5 72.5t68.5 25.5q49 0 80 -43q25 43 82 43q39 0 67.5 -25.5t28.5 -72.5q0 -29 -11 -49.5t-27 -32.5q16 -12 27 -33t11 -47q0 -29 -11 -49.5t-27 -32.5q16 -12 27 -32.5t11 -47.5q0 -29 -11 -50.5t-27 -33.5q16 -12 27 -31.5t11 -46.5q0 -29 -11 -50 t-27 -34q16 -12 27 -31.5t11 -46.5q0 -49 -28.5 -74.5t-67.5 -25.5q-41 0 -68.5 25.5t-27.5 74.5q0 51 37 78q-37 27 -37 84q0 51 37 78q-37 27 -37 84q0 53 37 80q-37 27 -37 82q0 53 37 80q-14 10 -23 24q-29 -43 -80 -43q-41 0 -68.5 27t-27.5 74zM224 100q0 47 28.5 72 t69.5 25q39 0 67.5 -25t28.5 -72t-28.5 -72.5t-67.5 -25.5q-41 0 -69.5 25.5t-28.5 72.5zM385 262q0 47 29 72.5t70 25.5q39 0 68.5 -25.5t29.5 -72.5t-29.5 -72.5t-68.5 -25.5q-41 0 -70 25.5t-29 72.5zM549 426q0 47 29 71.5t70 24.5q39 0 67.5 -24.5t28.5 -71.5 t-29 -72.5t-67 -25.5q-41 0 -70 25.5t-29 72.5zM711 588q0 53 41 82q-41 25 -41 80q0 47 28.5 72.5t69.5 25.5q39 0 69 -25.5t30 -72.5q0 -55 -41 -80q41 -29 41 -82q0 -47 -30 -73t-69 -26q-41 0 -69.5 26t-28.5 73zM875 913q0 47 27.5 73t68.5 26t69.5 -26t28.5 -73 t-28.5 -72.5t-69.5 -25.5t-68.5 25.5t-27.5 72.5zM1037 1075q0 47 28.5 73t69.5 26t68.5 -26t27.5 -73t-27.5 -71.5t-68.5 -24.5t-69.5 24.5t-28.5 71.5zM1128 428q0 53 37 80q-37 27 -37 82q0 53 37 80q-37 27 -37 82q0 47 27.5 72.5t68.5 25.5q39 0 68 -25.5t29 -72.5 q0 -29 -11.5 -49.5t-27.5 -32.5q16 -12 27.5 -32.5t11.5 -47.5q0 -29 -11.5 -49.5t-27.5 -32.5q14 -10 22 -25q25 43 82 43q53 0 82 -45q4 8 10.5 14.5l12.5 12.5q-37 27 -37 82q0 53 37 80q-37 27 -37 82q0 47 27.5 72.5t68.5 25.5q39 0 67.5 -25.5t28.5 -72.5 q0 -29 -11 -49.5t-28 -32.5q16 -12 27.5 -33t11.5 -47q0 -29 -11 -49.5t-28 -32.5q16 -12 27.5 -32.5t11.5 -47.5q0 -29 -11 -50.5t-28 -33.5q16 -12 27.5 -31.5t11.5 -46.5q0 -29 -11 -50t-28 -34q16 -12 27.5 -31.5t11.5 -46.5q0 -49 -28.5 -74.5t-67.5 -25.5 q-41 0 -68.5 25.5t-27.5 74.5q0 51 37 78q-37 27 -37 84q0 51 37 78q-16 12 -25 27q-12 -23 -33.5 -33t-46.5 -10q-57 0 -82 41q-29 -41 -80 -41q-41 0 -68.5 25.5t-27.5 74.5zM1200 1239q0 47 28 71.5t69 24.5t69.5 -24.5t28.5 -71.5t-28.5 -72.5t-69.5 -25.5t-69 25.5 t-28 72.5z" />
<glyph unicode="&#xbd;" horiz-adv-x="1738" d="M92 1237q0 47 27.5 72.5t68.5 25.5q49 0 80 -43q25 43 82 43q39 0 67.5 -25.5t28.5 -72.5q0 -29 -11 -49.5t-27 -32.5q16 -12 27 -33t11 -47q0 -29 -11 -49.5t-27 -32.5q16 -12 27 -32.5t11 -47.5q0 -29 -11 -50.5t-27 -33.5q16 -12 27 -31.5t11 -46.5q0 -29 -11 -50 t-27 -34q16 -12 27 -31.5t11 -46.5q0 -49 -28.5 -74.5t-67.5 -25.5q-41 0 -68.5 25.5t-27.5 74.5q0 51 37 78q-37 27 -37 84q0 51 37 78q-37 27 -37 84q0 53 37 80q-37 27 -37 82q0 53 37 80q-14 10 -23 24q-29 -43 -80 -43q-41 0 -68.5 27t-27.5 74zM224 100q0 47 28.5 72 t69.5 25q39 0 67.5 -25t28.5 -72t-28.5 -72.5t-67.5 -25.5q-41 0 -69.5 25.5t-28.5 72.5zM385 262q0 47 29 72.5t70 25.5q39 0 68.5 -25.5t29.5 -72.5t-29.5 -72.5t-68.5 -25.5q-41 0 -70 25.5t-29 72.5zM549 426q0 47 29 71.5t70 24.5q39 0 67.5 -24.5t28.5 -71.5 t-29 -72.5t-67 -25.5q-41 0 -70 25.5t-29 72.5zM711 588q0 53 41 82q-41 25 -41 80q0 47 28.5 72.5t69.5 25.5q39 0 69 -25.5t30 -72.5q0 -55 -41 -80q41 -29 41 -82q0 -47 -30 -73t-69 -26q-41 0 -69.5 26t-28.5 73zM875 913q0 47 27.5 73t68.5 26t69.5 -26t28.5 -73 t-28.5 -72.5t-69.5 -25.5t-68.5 25.5t-27.5 72.5zM1037 1075q0 47 28.5 73t69.5 26t68.5 -26t27.5 -73t-27.5 -71.5t-68.5 -24.5t-69.5 24.5t-28.5 71.5zM1128 104q0 51 37 78q-37 27 -37 84q0 51 37 78q-37 27 -37 84q0 47 27.5 72.5t68.5 25.5q49 0 80 -43q25 43 82 43 q53 0 82 -45q4 8 10.5 14.5l12.5 12.5q-37 27 -37 82q0 53 37 80q-16 10 -25 26q-27 -45 -80 -45q-57 0 -82 43q-29 -43 -80 -43q-41 0 -68.5 27t-27.5 74t27.5 72.5t68.5 25.5q49 0 80 -43q25 43 82 43q53 0 82 -45q27 45 82 45q39 0 67.5 -25.5t28.5 -72.5 q0 -29 -11 -49.5t-28 -32.5q16 -12 27.5 -33t11.5 -47q0 -29 -11 -49.5t-28 -32.5q16 -12 27.5 -32.5t11.5 -47.5q0 -49 -28.5 -74.5t-67.5 -25.5q-27 0 -49.5 10t-34.5 33q-12 -23 -33.5 -33t-46.5 -10q-57 0 -82 41q-8 -14 -22 -25q16 -12 27.5 -31.5t11.5 -46.5 q0 -29 -11.5 -50t-27.5 -34q12 -10 22 -22q25 41 82 41q53 0 80 -43q27 43 84 43q39 0 67.5 -25t28.5 -72q0 -49 -28.5 -74.5t-67.5 -25.5q-27 0 -49.5 10.5t-34.5 32.5q-12 -23 -33.5 -33t-46.5 -10q-57 0 -82 41q-29 -41 -80 -41q-41 0 -68.5 25.5t-27.5 74.5zM1200 1239 q0 47 28 71.5t69 24.5t69.5 -24.5t28.5 -71.5t-28.5 -72.5t-69.5 -25.5t-69 25.5t-28 72.5z" />
<glyph unicode="&#xbe;" horiz-adv-x="1859" d="M92 589q0 47 27.5 72t68.5 25q51 0 80 -41q25 41 82 41q53 0 80 -43q8 14 25 24q-37 27 -37 84q0 47 27.5 71.5t68.5 24.5q39 0 67.5 -24.5t28.5 -71.5q0 -29 -11 -50t-28 -34q16 -12 27.5 -31.5t11.5 -46.5q0 -49 -28.5 -74.5t-67.5 -25.5q-27 0 -49.5 10.5t-34.5 32.5 q-12 -23 -33.5 -33t-46.5 -10q-57 0 -82 41q-29 -41 -80 -41q-41 0 -68.5 25.5t-27.5 74.5zM92 1237q0 47 27.5 72.5t68.5 25.5q49 0 80 -43q25 43 82 43q53 0 82 -45q27 45 82 45q39 0 67.5 -25.5t28.5 -72.5q0 -29 -11 -49.5t-28 -32.5q16 -12 27.5 -32.5t11.5 -47.5 q0 -47 -28.5 -74t-67.5 -27q-41 0 -68.5 27t-27.5 74q0 53 37 80q-16 10 -25 26q-27 -45 -80 -45q-57 0 -82 43q-29 -43 -80 -43q-41 0 -68.5 27t-27.5 74zM254 913q0 47 27.5 72.5t68.5 25.5q39 0 67.5 -25.5t28.5 -72.5q0 -49 -28.5 -74.5t-67.5 -25.5q-41 0 -68.5 25.5 t-27.5 74.5zM344 100q0 47 28.5 72t69.5 25q39 0 67.5 -25t28.5 -72t-28.5 -72.5t-67.5 -25.5q-41 0 -69.5 25.5t-28.5 72.5zM505 262q0 47 29 72.5t70 25.5q39 0 68.5 -25.5t29.5 -72.5t-29.5 -72.5t-68.5 -25.5q-41 0 -70 25.5t-29 72.5zM669 426q0 47 29 71.5t70 24.5 q39 0 67.5 -24.5t28.5 -71.5t-29 -72.5t-67 -25.5q-41 0 -70 25.5t-29 72.5zM831 588q0 53 41 82q-41 25 -41 80q0 47 28.5 72.5t69.5 25.5q39 0 69 -25.5t30 -72.5q0 -55 -41 -80q41 -29 41 -82q0 -47 -30 -73t-69 -26q-41 0 -69.5 26t-28.5 73zM995 913q0 47 27.5 73 t68.5 26t69.5 -26t28.5 -73t-28.5 -72.5t-69.5 -25.5t-68.5 25.5t-27.5 72.5zM1157 1075q0 47 28.5 73t69.5 26t68.5 -26t27.5 -73t-27.5 -71.5t-68.5 -24.5t-69.5 24.5t-28.5 71.5zM1249 428q0 53 37 80q-37 27 -37 82q0 53 37 80q-37 27 -37 82q0 47 27.5 72.5t68.5 25.5 q39 0 68 -25.5t29 -72.5q0 -29 -11.5 -49.5t-27.5 -32.5q16 -12 27.5 -32.5t11.5 -47.5q0 -29 -11.5 -49.5t-27.5 -32.5q14 -10 22 -25q25 43 82 43q53 0 82 -45q4 8 10.5 14.5l12.5 12.5q-37 27 -37 82q0 53 37 80q-37 27 -37 82q0 47 27.5 72.5t68.5 25.5q39 0 67.5 -25.5 t28.5 -72.5q0 -29 -11 -49.5t-28 -32.5q16 -12 27.5 -33t11.5 -47q0 -29 -11 -49.5t-28 -32.5q16 -12 27.5 -32.5t11.5 -47.5q0 -29 -11 -50.5t-28 -33.5q16 -12 27.5 -31.5t11.5 -46.5q0 -29 -11 -50t-28 -34q16 -12 27.5 -31.5t11.5 -46.5q0 -49 -28.5 -74.5t-67.5 -25.5 q-41 0 -68.5 25.5t-27.5 74.5q0 51 37 78q-37 27 -37 84q0 51 37 78q-16 12 -25 27q-12 -23 -33.5 -33t-46.5 -10q-57 0 -82 41q-29 -41 -80 -41q-41 0 -68.5 25.5t-27.5 74.5zM1320 1239q0 47 28 71.5t69 24.5t69.5 -24.5t28.5 -71.5t-28.5 -72.5t-69.5 -25.5t-69 25.5 t-28 72.5z" />
<glyph unicode="&#xbf;" horiz-adv-x="1261" d="M41 -61q0 55 41 79q-41 29 -41 82q0 47 28.5 73t69.5 26q51 0 82 -41q6 16 25 22q-43 27 -43 84q0 47 28.5 71.5t69.5 24.5q53 0 82 -41q25 41 82 41q51 0 82 -41q6 14 22 25q-41 29 -41 82q0 55 41 80q-41 29 -41 82q0 47 29 72.5t70 25.5q51 0 82 -41q25 41 79 41 q41 0 69 -25.5t28 -72.5q0 -55 -39 -82q39 -25 39 -80q0 -47 -28 -72.5t-69 -25.5q-55 0 -79 41q-8 -14 -27 -25q41 -23 41 -80q0 -47 -27.5 -72.5t-68.5 -25.5q-57 0 -80 41q-29 -41 -82 -41q-59 0 -82 41q-8 -14 -25 -27q39 -25 39 -80t-39 -82q39 -25 39 -79 q0 -57 -39 -84q14 -6 25 -23q25 41 82 41q51 0 82 -41q25 41 80 41q51 0 82 -41q25 41 79 41q53 0 84 -41q10 18 23 23q-41 29 -41 84q0 47 28.5 71.5t69.5 24.5q51 0 82 -41q25 41 80 41q41 0 68.5 -24.5t27.5 -71.5t-28.5 -73t-69.5 -26q-55 0 -78 41q-4 -8 -11 -14 t-13 -12q37 -25 37 -80q0 -47 -27 -72t-68 -25q-57 0 -80 41q-29 -41 -84 -41q-57 0 -79 41q-29 -41 -82 -41q-57 0 -80 41q-29 -41 -82 -41q-59 0 -82 41q-27 -41 -84 -41q-39 0 -67.5 25t-28.5 72q0 55 43 80q-18 12 -25 26q-29 -41 -84 -41q-39 0 -67.5 25.5t-28.5 73.5z M528 913q0 47 29 73t70 26q51 0 82 -41q25 41 79 41q41 0 69 -25.5t28 -73.5q0 -47 -29 -71.5t-70 -24.5q-53 0 -77 41q-31 -41 -84 -41q-39 0 -68 24.5t-29 71.5z" />
<glyph unicode="&#xc0;" d="M104 100q0 57 41 80q-41 27 -41 82t41 82q-41 23 -41 82q0 55 41 82q-41 23 -41 80q0 55 41 82q-41 23 -41 80t41 84q-41 23 -41 79q0 55 41 82q-41 23 -41 80q0 47 29 73t70 26q53 0 80 -41q8 14 24 26q-41 23 -41 80q0 47 29 71.5t70 24.5q53 0 79 -41q27 41 82 41 t82 -41q27 41 82 41q53 0 80 -41q27 41 82 41t82 -41q27 41 82 41q39 0 67.5 -24.5t28.5 -71.5q0 -55 -41 -80q8 -6 15.5 -12t11.5 -14q23 41 80 41q39 0 68.5 -26t29.5 -73q0 -55 -41 -80q41 -29 41 -82q0 -55 -41 -79q41 -29 41 -84t-41 -80q41 -29 41 -82q0 -55 -41 -80 q41 -29 41 -82q0 -57 -41 -82q41 -29 41 -82t-41 -82q41 -25 41 -80q0 -47 -29.5 -72.5t-70.5 -25.5q-53 0 -78 41q-31 -41 -84 -41q-39 0 -67.5 25.5t-28.5 72.5q0 55 40 80q-41 29 -40 82q0 53 40 82q-41 25 -40 82q0 53 40 82q-14 6 -24 22q-29 -41 -82 -41t-82 41 q-29 -41 -80 -41q-53 0 -82 41q-29 -41 -82 -41t-82 41q-6 -16 -22 -22q41 -29 41 -82q0 -57 -41 -82q41 -29 41 -82t-41 -82q41 -25 41 -80q0 -47 -30 -72.5t-71 -25.5q-50 0 -79 41q-29 -41 -82 -41q-41 0 -69 25.5t-28 72.5zM266 1723q0 47 28 72.5t69 25.5q25 0 46 -10 t34 -31q29 41 81 41q39 0 68 -25.5t29 -72.5q0 -29 -11.5 -49.5t-27.5 -30.5q16 -14 22 -25q29 41 84 41q39 0 68 -25.5t29 -72.5t-29 -72.5t-68 -25.5q-57 0 -84 43q-12 -23 -33.5 -33t-46.5 -10q-41 0 -68.5 25.5t-27.5 72.5q0 53 37 82q-6 4 -12 9t-10 13 q-12 -20 -34 -30.5t-46 -10.5q-41 0 -69 26t-28 73zM422 670q16 -10 22 -25q29 41 82 41t82 -41q29 41 82 41q51 0 80 -41q29 41 82 41t82 -41q8 14 24 25q-41 25 -40 80q0 55 40 84q-41 25 -40 79q0 53 40 82q-41 25 -40 80q0 55 40 84q-14 6 -24 23q-29 -41 -82 -41 t-82 41q-29 -41 -80 -41q-53 0 -82 41q-29 -41 -82 -41t-82 41q-6 -16 -22 -23q41 -29 41 -84t-41 -80q41 -29 41 -82q0 -55 -41 -79q41 -29 41 -84t-41 -80z" />
<glyph unicode="&#xc1;" d="M104 100q0 57 41 80q-41 27 -41 82t41 82q-41 23 -41 82q0 55 41 82q-41 23 -41 80q0 55 41 82q-41 23 -41 80t41 84q-41 23 -41 79q0 55 41 82q-41 23 -41 80q0 47 29 73t70 26q53 0 80 -41q8 14 24 26q-41 23 -41 80q0 47 29 71.5t70 24.5q53 0 79 -41q27 41 82 41 t82 -41q27 41 82 41q53 0 80 -41q27 41 82 41t82 -41q27 41 82 41q39 0 67.5 -24.5t28.5 -71.5q0 -55 -41 -80q8 -6 15.5 -12t11.5 -14q23 41 80 41q39 0 68.5 -26t29.5 -73q0 -55 -41 -80q41 -29 41 -82q0 -55 -41 -79q41 -29 41 -84t-41 -80q41 -29 41 -82q0 -55 -41 -80 q41 -29 41 -82q0 -57 -41 -82q41 -29 41 -82t-41 -82q41 -25 41 -80q0 -47 -29.5 -72.5t-70.5 -25.5q-53 0 -78 41q-31 -41 -84 -41q-39 0 -67.5 25.5t-28.5 72.5q0 55 40 80q-41 29 -40 82q0 53 40 82q-41 25 -40 82q0 53 40 82q-14 6 -24 22q-29 -41 -82 -41t-82 41 q-29 -41 -80 -41q-53 0 -82 41q-29 -41 -82 -41t-82 41q-6 -16 -22 -22q41 -29 41 -82q0 -57 -41 -82q41 -29 41 -82t-41 -82q41 -25 41 -80q0 -47 -30 -72.5t-71 -25.5q-50 0 -79 41q-29 -41 -82 -41q-41 0 -69 25.5t-28 72.5zM422 670q16 -10 22 -25q29 41 82 41t82 -41 q29 41 82 41q51 0 80 -41q29 41 82 41t82 -41q8 14 24 25q-41 25 -40 80q0 55 40 84q-41 25 -40 79q0 53 40 82q-41 25 -40 80q0 55 40 84q-14 6 -24 23q-29 -41 -82 -41t-82 41q-29 -41 -80 -41q-53 0 -82 41q-29 -41 -82 -41t-82 41q-6 -16 -22 -23q41 -29 41 -84t-41 -80 q41 -29 41 -82q0 -55 -41 -79q41 -29 41 -84t-41 -80zM591 1561q0 47 28 72.5t69 25.5q25 0 46 -10t34 -31q4 6 10 13.5t12 11.5q-37 20 -37 80q0 47 28 72.5t68 25.5q25 0 46.5 -10t33.5 -31q29 41 84 41q39 0 68 -25.5t29 -72.5t-29 -73t-68 -26q-57 0 -84 43 q-4 -14 -22 -24q16 -14 27.5 -33.5t11.5 -48.5q0 -47 -29 -72.5t-68 -25.5q-53 0 -81 41q-12 -20 -34 -30.5t-46 -10.5q-41 0 -69 25.5t-28 72.5z" />
<glyph unicode="&#xc2;" d="M104 100q0 57 41 80q-41 27 -41 82t41 82q-41 23 -41 82q0 55 41 82q-41 23 -41 80q0 55 41 82q-41 23 -41 80t41 84q-41 23 -41 79q0 55 41 82q-41 23 -41 80q0 47 29 73t70 26q53 0 80 -41q8 14 24 26q-41 23 -41 80q0 47 29 71.5t70 24.5q53 0 79 -41q27 41 82 41 t82 -41q27 41 82 41q53 0 80 -41q27 41 82 41t82 -41q27 41 82 41q39 0 67.5 -24.5t28.5 -71.5q0 -55 -41 -80q8 -6 15.5 -12t11.5 -14q23 41 80 41q39 0 68.5 -26t29.5 -73q0 -55 -41 -80q41 -29 41 -82q0 -55 -41 -79q41 -29 41 -84t-41 -80q41 -29 41 -82q0 -55 -41 -80 q41 -29 41 -82q0 -57 -41 -82q41 -29 41 -82t-41 -82q41 -25 41 -80q0 -47 -29.5 -72.5t-70.5 -25.5q-53 0 -78 41q-31 -41 -84 -41q-39 0 -67.5 25.5t-28.5 72.5q0 55 40 80q-41 29 -40 82q0 53 40 82q-41 25 -40 82q0 53 40 82q-14 6 -24 22q-29 -41 -82 -41t-82 41 q-29 -41 -80 -41q-53 0 -82 41q-29 -41 -82 -41t-82 41q-6 -16 -22 -22q41 -29 41 -82q0 -57 -41 -82q41 -29 41 -82t-41 -82q41 -25 41 -80q0 -47 -30 -72.5t-71 -25.5q-50 0 -79 41q-29 -41 -82 -41q-41 0 -69 25.5t-28 72.5zM268 1561q0 47 28 72.5t69 25.5q25 0 46 -10 t34 -31q4 6 10 13.5t12 11.5q-37 20 -37 80q0 47 28 72.5t68 25.5q25 0 46.5 -10t33.5 -31q29 41 84 41q25 0 46.5 -10t33.5 -31q29 41 84 41q39 0 67.5 -25.5t28.5 -72.5q0 -29 -11 -49.5t-27 -30.5l22 -25q29 41 82 41q39 0 67.5 -25.5t28.5 -72.5t-28.5 -72.5 t-67.5 -25.5q-53 0 -82 41q-12 -20 -33.5 -30.5t-46.5 -10.5q-41 0 -68.5 25.5t-27.5 72.5q0 53 39 82q-8 4 -15.5 9t-11.5 15q-12 -23 -33.5 -33t-46.5 -10q-57 0 -84 43q-4 -14 -22 -24q16 -14 27.5 -33.5t11.5 -48.5q0 -47 -29 -72.5t-68 -25.5q-53 0 -81 41 q-12 -20 -34 -30.5t-46 -10.5q-41 0 -69 25.5t-28 72.5zM422 670q16 -10 22 -25q29 41 82 41t82 -41q29 41 82 41q51 0 80 -41q29 41 82 41t82 -41q8 14 24 25q-41 25 -40 80q0 55 40 84q-41 25 -40 79q0 53 40 82q-41 25 -40 80q0 55 40 84q-14 6 -24 23q-29 -41 -82 -41 t-82 41q-29 -41 -80 -41q-53 0 -82 41q-29 -41 -82 -41t-82 41q-6 -16 -22 -23q41 -29 41 -84t-41 -80q41 -29 41 -82q0 -55 -41 -79q41 -29 41 -84t-41 -80z" />
<glyph unicode="&#xc3;" d="M104 100q0 57 41 80q-41 27 -41 82t41 82q-41 23 -41 82q0 55 41 82q-41 23 -41 80q0 55 41 82q-41 23 -41 80t41 84q-41 23 -41 79q0 55 41 82q-41 23 -41 80q0 47 29 73t70 26q53 0 80 -41q8 14 24 26q-41 23 -41 80q0 47 29 71.5t70 24.5q53 0 79 -41q27 41 82 41 t82 -41q27 41 82 41q53 0 80 -41q27 41 82 41t82 -41q27 41 82 41q39 0 67.5 -24.5t28.5 -71.5q0 -55 -41 -80q8 -6 15.5 -12t11.5 -14q23 41 80 41q39 0 68.5 -26t29.5 -73q0 -55 -41 -80q41 -29 41 -82q0 -55 -41 -79q41 -29 41 -84t-41 -80q41 -29 41 -82q0 -55 -41 -80 q41 -29 41 -82q0 -57 -41 -82q41 -29 41 -82t-41 -82q41 -25 41 -80q0 -47 -29.5 -72.5t-70.5 -25.5q-53 0 -78 41q-31 -41 -84 -41q-39 0 -67.5 25.5t-28.5 72.5q0 55 40 80q-41 29 -40 82q0 53 40 82q-41 25 -40 82q0 53 40 82q-14 6 -24 22q-29 -41 -82 -41t-82 41 q-29 -41 -80 -41q-53 0 -82 41q-29 -41 -82 -41t-82 41q-6 -16 -22 -22q41 -29 41 -82q0 -57 -41 -82q41 -29 41 -82t-41 -82q41 -25 41 -80q0 -47 -30 -72.5t-71 -25.5q-50 0 -79 41q-29 -41 -82 -41q-41 0 -69 25.5t-28 72.5zM186 1561q0 47 28 72.5t69 25.5 q39 0 67.5 -25.5t28.5 -72.5t-28.5 -72.5t-67.5 -25.5q-41 0 -69 25.5t-28 72.5zM348 1723q0 47 28 72.5t68 25.5q25 0 46.5 -10t33.5 -31q29 41 84 41q39 0 68 -25.5t29 -72.5t-29 -73t-68 -26q-57 0 -84 43q-12 -23 -33.5 -33t-46.5 -10q-41 0 -68.5 26t-27.5 73zM422 670 q16 -10 22 -25q29 41 82 41t82 -41q29 41 82 41q51 0 80 -41q29 41 82 41t82 -41q8 14 24 25q-41 25 -40 80q0 55 40 84q-41 25 -40 79q0 53 40 82q-41 25 -40 80q0 55 40 84q-14 6 -24 23q-29 -41 -82 -41t-82 41q-29 -41 -80 -41q-53 0 -82 41q-29 -41 -82 -41t-82 41 q-6 -16 -22 -23q41 -29 41 -84t-41 -80q41 -29 41 -82q0 -55 -41 -79q41 -29 41 -84t-41 -80zM676 1561q0 47 27.5 72.5t68.5 25.5q25 0 46.5 -10t33.5 -31q29 41 82 41q39 0 67.5 -25.5t28.5 -72.5t-28.5 -72.5t-67.5 -25.5q-53 0 -82 41q-12 -20 -33.5 -30.5t-46.5 -10.5 q-41 0 -68.5 25.5t-27.5 72.5zM1000 1723q0 47 27.5 72.5t68.5 25.5q39 0 67.5 -25.5t28.5 -72.5t-28.5 -73t-67.5 -26q-41 0 -68.5 26t-27.5 73z" />
<glyph unicode="&#xc4;" d="M104 100q0 57 41 80q-41 27 -41 82t41 82q-41 23 -41 82q0 55 41 82q-41 23 -41 80q0 55 41 82q-41 23 -41 80t41 84q-41 23 -41 79q0 55 41 82q-41 23 -41 80q0 47 29 73t70 26q53 0 80 -41q8 14 24 26q-41 23 -41 80q0 47 29 71.5t70 24.5q53 0 79 -41q27 41 82 41 t82 -41q27 41 82 41q53 0 80 -41q27 41 82 41t82 -41q27 41 82 41q39 0 67.5 -24.5t28.5 -71.5q0 -55 -41 -80q8 -6 15.5 -12t11.5 -14q23 41 80 41q39 0 68.5 -26t29.5 -73q0 -55 -41 -80q41 -29 41 -82q0 -55 -41 -79q41 -29 41 -84t-41 -80q41 -29 41 -82q0 -55 -41 -80 q41 -29 41 -82q0 -57 -41 -82q41 -29 41 -82t-41 -82q41 -25 41 -80q0 -47 -29.5 -72.5t-70.5 -25.5q-53 0 -78 41q-31 -41 -84 -41q-39 0 -67.5 25.5t-28.5 72.5q0 55 40 80q-41 29 -40 82q0 53 40 82q-41 25 -40 82q0 53 40 82q-14 6 -24 22q-29 -41 -82 -41t-82 41 q-29 -41 -80 -41q-53 0 -82 41q-29 -41 -82 -41t-82 41q-6 -16 -22 -22q41 -29 41 -82q0 -57 -41 -82q41 -29 41 -82t-41 -82q41 -25 41 -80q0 -47 -30 -72.5t-71 -25.5q-50 0 -79 41q-29 -41 -82 -41q-41 0 -69 25.5t-28 72.5zM268 1561q0 53 37 82q-37 20 -37 80 q0 47 28 72.5t69 25.5q25 0 46 -10t34 -31q29 41 81 41q39 0 68 -25.5t29 -72.5q0 -29 -11.5 -49.5t-27.5 -30.5q16 -14 27.5 -33.5t11.5 -48.5q0 -47 -29 -72.5t-68 -25.5q-53 0 -81 41q-12 -20 -34 -30.5t-46 -10.5q-41 0 -69 25.5t-28 72.5zM422 670q16 -10 22 -25 q29 41 82 41t82 -41q29 41 82 41q51 0 80 -41q29 41 82 41t82 -41q8 14 24 25q-41 25 -40 80q0 55 40 84q-41 25 -40 79q0 53 40 82q-41 25 -40 80q0 55 40 84q-14 6 -24 23q-29 -41 -82 -41t-82 41q-29 -41 -80 -41q-53 0 -82 41q-29 -41 -82 -41t-82 41q-6 -16 -22 -23 q41 -29 41 -84t-41 -80q41 -29 41 -82q0 -55 -41 -79q41 -29 41 -84t-41 -80zM758 1561q0 53 39 82q-39 23 -39 80q0 47 27.5 72.5t68.5 25.5q25 0 46.5 -10t33.5 -31q29 41 82 41q39 0 67.5 -25.5t28.5 -72.5q0 -57 -39 -80q39 -29 39 -82q0 -47 -28.5 -72.5t-67.5 -25.5 q-53 0 -82 41q-12 -20 -33.5 -30.5t-46.5 -10.5q-41 0 -68.5 25.5t-27.5 72.5z" />
<glyph unicode="&#xc5;" d="M104 100q0 57 41 80q-41 27 -41 82t41 82q-41 23 -41 82q0 55 41 82q-41 23 -41 80q0 55 41 82q-41 23 -41 80t41 84q-41 23 -41 79q0 55 41 82q-41 23 -41 80q0 47 29 73t70 26q53 0 80 -41q8 14 24 26q-41 23 -41 80q0 47 29 71.5t70 24.5q53 0 79 -41q12 16 21 23 q-35 29 -35 82t39 82q-39 23 -39 80q0 53 37 81q-37 20 -37 80q0 47 27.5 73t68.5 26q25 0 46.5 -10.5t33.5 -30.5q29 41 82 41q25 0 46.5 -10.5t33.5 -30.5q29 41 84 41q39 0 67.5 -26t28.5 -73q0 -29 -11 -49t-28 -31q16 -14 27.5 -33.5t11.5 -47.5q0 -29 -11 -49.5 t-28 -30.5q16 -14 27.5 -33.5t11.5 -48.5q0 -53 -37 -80q14 -10 23 -25q27 41 82 41q39 0 67.5 -24.5t28.5 -71.5q0 -55 -41 -80q8 -6 15.5 -12t11.5 -14q23 41 80 41q39 0 68.5 -26t29.5 -73q0 -55 -41 -80q41 -29 41 -82q0 -55 -41 -79q41 -29 41 -84t-41 -80 q41 -29 41 -82q0 -55 -41 -80q41 -29 41 -82q0 -57 -41 -82q41 -29 41 -82t-41 -82q41 -25 41 -80q0 -47 -29.5 -72.5t-70.5 -25.5q-53 0 -78 41q-31 -41 -84 -41q-39 0 -67.5 25.5t-28.5 72.5q0 55 40 80q-41 29 -40 82q0 53 40 82q-41 25 -40 82q0 53 40 82q-14 6 -24 22 q-29 -41 -82 -41t-82 41q-29 -41 -80 -41q-53 0 -82 41q-29 -41 -82 -41t-82 41q-6 -16 -22 -22q41 -29 41 -82q0 -57 -41 -82q41 -29 41 -82t-41 -82q41 -25 41 -80q0 -47 -30 -72.5t-71 -25.5q-51 0 -79 41q-29 -41 -82 -41q-41 0 -69 25.5t-28 72.5zM422 670 q16 -10 22 -25q29 41 82 41t82 -41q29 41 82 41q51 0 80 -41q29 41 82 41t82 -41q8 14 24 25q-41 25 -40 80q0 55 40 84q-41 25 -40 79q0 53 40 82q-41 25 -40 80q0 55 40 84q-14 6 -24 23q-29 -41 -82 -41t-82 41q-29 -41 -80 -41q-53 0 -82 41q-29 -41 -82 -41t-82 41 q-6 -16 -22 -23q41 -29 41 -84t-41 -80q41 -29 41 -82q0 -55 -41 -79q41 -29 41 -84t-41 -80zM584 1481l22 -27q27 43 82 43q25 0 46.5 -10t33.5 -33q8 14 25 27q-37 20 -37 80q0 53 37 81q-16 8 -25 25q-12 -23 -33.5 -33t-46.5 -10q-53 0 -82 41q-4 -8 -10 -13l-12 -10 q16 -14 27.5 -33t11.5 -48t-11.5 -49.5t-27.5 -30.5z" />
<glyph unicode="&#xc6;" horiz-adv-x="2174" d="M104 100q0 53 41 80q-41 29 -41 82q0 55 41 82q-41 27 -41 82q0 53 41 82q-41 27 -41 80t41 82q-41 27 -41 80q0 55 41 84q-41 23 -41 79q0 53 41 82q-41 27 -41 80q0 47 29 73t70 26q53 0 80 -41q8 14 24 26q-41 23 -41 80q0 47 29 71.5t70 24.5q53 0 79 -41 q29 41 82 41q55 0 82 -41q27 41 82 41q53 0 80 -41q29 41 82 41q55 0 82 -41q27 41 82 41h16q57 0 80 -41q27 41 84 41q53 0 80 -41q27 41 82 41q57 0 80 -41q29 41 82 41q55 0 82 -41q27 41 81 41q53 0 80 -41q29 41 82 41q55 0 82 -41q27 41 82 41q39 0 67.5 -24.5 t28.5 -71.5t-28.5 -72.5t-67.5 -25.5q-53 0 -82 41q-29 -41 -82 -41q-51 0 -82 41q-29 -41 -80 -41q-53 0 -81 41q-29 -41 -82 -41q-51 0 -82 41q-25 -41 -80 -41q-53 0 -82 41l-18.5 -18.5t-16.5 -12.5l4 -4q31 -25 31 -72q0 -49 -33 -76q16 -8 33 -30q27 43 82 43 q57 0 80 -43q29 43 82 43q55 0 82 -43q27 43 81 43q39 0 69 -25.5t30 -73.5q0 -47 -30 -72.5t-69 -25.5q-53 0 -81 41q-29 -41 -82 -41q-51 0 -82 41q-25 -41 -80 -41q-53 0 -82 41q-10 -16 -25 -22q41 -31 41 -84q0 -51 -41 -80q41 -31 41 -82t-41 -80q41 -31 41 -82 q0 -53 -41 -82q41 -29 41 -82q0 -51 -41 -82q12 -6 25 -24q29 41 82 41q55 0 80 -41q31 41 82 41q53 0 82 -41q29 41 81 41q51 0 80 -41q31 41 82 41q53 0 82 -41q29 41 82 41q39 0 67.5 -25t28.5 -72t-28.5 -72.5t-67.5 -25.5q-53 0 -82 41q-29 -41 -82 -41q-51 0 -82 41 q-29 -41 -80 -41q-53 0 -81 41q-29 -41 -82 -41q-51 0 -82 41q-25 -41 -80 -41q-53 0 -82 41q-29 -41 -80 -41h-20q-39 0 -72 29q-29 -29 -72 -29h-18q-39 0 -67.5 25.5t-28.5 72.5q0 51 40 80q-41 31 -40 82q0 53 40 82q-41 29 -40 82q0 51 40 82q-14 6 -24 22 q-29 -41 -82 -41q-51 0 -82 41q-29 -41 -80 -41q-53 0 -82 41q-29 -41 -82 -41q-51 0 -82 41q-6 -16 -22 -22q41 -31 41 -82q0 -53 -41 -82q41 -29 41 -82q0 -51 -41 -82q41 -29 41 -80q0 -47 -30 -72.5t-71 -25.5q-48 0 -79 41q-29 -41 -82 -41q-41 0 -69 25.5t-28 72.5z M422 670q16 -10 22 -25q31 41 82 41q53 0 82 -41q29 41 82 41q51 0 80 -41q31 41 82 41q53 0 82 -41q8 14 24 25q-41 29 -40 80q0 53 40 84q-41 25 -40 79q0 51 40 82q-41 29 -40 80q0 53 40 84q-14 6 -24 23q-29 -41 -82 -41q-51 0 -82 41q-29 -41 -80 -41q-53 0 -82 41 q-29 -41 -82 -41q-51 0 -82 41q-6 -16 -22 -23q41 -31 41 -84q0 -51 -41 -80q41 -31 41 -82q0 -55 -41 -79q41 -31 41 -84q0 -51 -41 -80z" />
<glyph unicode="&#xc7;" horiz-adv-x="1337" d="M104 262q0 55 41 82q-41 23 -41 82q0 55 41 82q-41 23 -41 80q0 55 41 82q-41 23 -41 80t41 84q-41 23 -41 79q0 55 41 82q-41 23 -41 80q0 47 28 73t69 26q57 0 80 -41q12 14 26 26q-41 23 -41 80q0 47 29 71.5t70 24.5q53 0 79 -41q27 41 82 41q57 0 80 -41 q27 41 84 41q53 0 80 -41q27 41 82 41q53 0 82 -41q23 41 80 41q39 0 68.5 -24.5t29.5 -71.5q0 -55 -41 -80q14 -12 27 -26q23 41 80 41q39 0 68.5 -26t29.5 -73t-29.5 -71.5t-68.5 -24.5q-55 0 -80 41q-31 -41 -84 -41q-41 0 -68.5 24.5t-27.5 71.5q0 55 40 84 q-18 8 -24 23q-31 -41 -82 -41q-53 0 -82 41q-29 -41 -80 -41q-55 0 -84 41q-25 -41 -80 -41q-53 0 -82 41q-6 -14 -24 -23q41 -29 41 -84t-41 -80q41 -29 41 -82q0 -55 -41 -79q41 -29 41 -84t-41 -80q41 -29 41 -82q0 -55 -41 -80q41 -29 41 -82q0 -57 -41 -82 q41 -29 41 -82t-41 -82q18 -6 24 -24q29 41 82 41q55 0 80 -41q29 41 84 41q51 0 80 -41q29 41 82 41q51 0 82 -41q6 18 24 24q-41 29 -40 82q0 47 27.5 72.5t68.5 25.5q53 0 84 -41q25 41 80 41q39 0 68.5 -25.5t29.5 -72.5t-29.5 -72.5t-68.5 -25.5q-55 0 -80 43 q-6 -8 -12.5 -15.5t-14.5 -11.5q41 -25 41 -80q0 -47 -29.5 -72.5t-68.5 -25.5q-55 0 -80 41q-31 -41 -82 -41q-53 0 -82 41q-29 -41 -80 -41q-55 0 -84 41q-25 -41 -80 -41q-53 0 -82 41q-29 -41 -79 -41q-41 0 -70 25.5t-29 72.5q0 57 41 80q-8 4 -14 11.5t-12 15.5 q-25 -43 -80 -43q-41 0 -69 25.5t-28 72.5zM489 -223q0 47 28 71.5t69 24.5q53 0 82 -41q29 41 82 41q39 0 68.5 -24.5t29.5 -71.5q0 -57 -43 -84q43 -25 43 -76q0 -53 -43 -80q43 -25 43 -78q0 -47 -30 -71.5t-68 -24.5q-41 0 -70 24.5t-29 71.5q0 55 41 78q-14 8 -24 23 q-25 -39 -82 -39q-41 0 -69 24.5t-28 71.5q0 53 41 76q-41 27 -41 84z" />
<glyph unicode="&#xc8;" horiz-adv-x="1343" d="M104 100q0 57 41 80q-41 27 -41 82t41 82q-41 23 -41 82q0 55 41 82q-41 23 -41 80q0 55 41 82q-41 23 -41 80t41 84q-41 23 -41 79q0 47 28 73t69 26q57 0 80 -43q27 43 84 43q53 0 79 -43q27 43 82 43q57 0 80 -43q27 43 84 43q53 0 80 -43q27 43 82 43 q39 0 68.5 -25.5t29.5 -73.5q0 -47 -29.5 -72.5t-68.5 -25.5q-53 0 -82 41q-29 -41 -80 -41q-55 0 -84 41q-25 -41 -80 -41q-53 0 -82 41q-6 -14 -24 -22q41 -29 41 -84t-41 -80q41 -29 41 -82q0 -55 -41 -80q41 -29 41 -82q0 -57 -41 -82q41 -29 41 -82t-41 -82 q18 -6 24 -24q29 41 82 41q55 0 80 -41q29 41 84 41q51 0 80 -41q29 41 82 41q51 0 82 -41q25 41 80 41q53 0 84 -41q25 41 80 41q39 0 67.5 -25t28.5 -72t-28.5 -72.5t-67.5 -25.5q-55 0 -80 41q-31 -41 -84 -41q-55 0 -80 41q-31 -41 -82 -41q-53 0 -82 41 q-29 -41 -80 -41q-55 0 -84 41q-25 -41 -80 -41q-53 0 -82 41q-29 -41 -79 -41q-55 0 -84 41q-25 -41 -80 -41q-41 0 -69 25.5t-28 72.5zM104 1239q0 47 28 71.5t69 24.5q57 0 80 -41q27 41 84 41q53 0 79 -41q27 41 82 41q57 0 80 -41q27 41 84 41q53 0 80 -41q27 41 82 41 q53 0 82 -41q23 41 80 41q55 0 84 -41q23 41 80 41q39 0 67.5 -24.5t28.5 -71.5t-28.5 -72.5t-67.5 -25.5q-55 0 -80 41q-31 -41 -84 -41q-55 0 -80 41q-31 -41 -82 -41q-53 0 -82 41q-29 -41 -80 -41q-55 0 -84 41q-25 -41 -80 -41q-53 0 -82 41q-29 -41 -79 -41 q-55 0 -84 41q-25 -41 -82 -41q-39 0 -67 25.5t-28 72.5zM268 1723q0 47 28 72.5t69 25.5q25 0 46 -10t34 -31q29 41 81 41q39 0 68 -25.5t29 -72.5q0 -29 -11.5 -49.5t-27.5 -30.5q16 -14 22 -25q29 41 84 41q39 0 68 -25.5t29 -72.5t-29 -72.5t-68 -25.5q-57 0 -84 43 q-12 -23 -33.5 -33t-46.5 -10q-41 0 -68.5 25.5t-27.5 72.5q0 53 37 82q-6 4 -12 9t-10 13q-12 -20 -34 -30.5t-46 -10.5q-41 0 -69 26t-28 73z" />
<glyph unicode="&#xc9;" horiz-adv-x="1343" d="M104 100q0 57 41 80q-41 27 -41 82t41 82q-41 23 -41 82q0 55 41 82q-41 23 -41 80q0 55 41 82q-41 23 -41 80t41 84q-41 23 -41 79q0 47 28 73t69 26q57 0 80 -43q27 43 84 43q53 0 79 -43q27 43 82 43q57 0 80 -43q27 43 84 43q53 0 80 -43q27 43 82 43 q39 0 68.5 -25.5t29.5 -73.5q0 -47 -29.5 -72.5t-68.5 -25.5q-53 0 -82 41q-29 -41 -80 -41q-55 0 -84 41q-25 -41 -80 -41q-53 0 -82 41q-6 -14 -24 -22q41 -29 41 -84t-41 -80q41 -29 41 -82q0 -55 -41 -80q41 -29 41 -82q0 -57 -41 -82q41 -29 41 -82t-41 -82 q18 -6 24 -24q29 41 82 41q55 0 80 -41q29 41 84 41q51 0 80 -41q29 41 82 41q51 0 82 -41q25 41 80 41q53 0 84 -41q25 41 80 41q39 0 67.5 -25t28.5 -72t-28.5 -72.5t-67.5 -25.5q-55 0 -80 41q-31 -41 -84 -41q-55 0 -80 41q-31 -41 -82 -41q-53 0 -82 41 q-29 -41 -80 -41q-55 0 -84 41q-25 -41 -80 -41q-53 0 -82 41q-29 -41 -79 -41q-55 0 -84 41q-25 -41 -80 -41q-41 0 -69 25.5t-28 72.5zM104 1239q0 47 28 71.5t69 24.5q57 0 80 -41q27 41 84 41q53 0 79 -41q27 41 82 41q57 0 80 -41q27 41 84 41q53 0 80 -41q27 41 82 41 q53 0 82 -41q23 41 80 41q55 0 84 -41q23 41 80 41q39 0 67.5 -24.5t28.5 -71.5t-28.5 -72.5t-67.5 -25.5q-55 0 -80 41q-31 -41 -84 -41q-55 0 -80 41q-31 -41 -82 -41q-53 0 -82 41q-29 -41 -80 -41q-55 0 -84 41q-25 -41 -80 -41q-53 0 -82 41q-29 -41 -79 -41 q-55 0 -84 41q-25 -41 -82 -41q-39 0 -67 25.5t-28 72.5zM591 1561q0 47 28 72.5t69 25.5q25 0 46 -10t34 -31q4 6 10 13.5t12 11.5q-37 20 -37 80q0 47 28 72.5t68 25.5q25 0 46.5 -10t33.5 -31q29 41 84 41q39 0 68 -25.5t29 -72.5t-29 -73t-68 -26q-57 0 -84 43 q-4 -14 -22 -24q16 -14 27.5 -33.5t11.5 -48.5q0 -47 -29 -72.5t-68 -25.5q-53 0 -81 41q-12 -20 -34 -30.5t-46 -10.5q-41 0 -69 25.5t-28 72.5z" />
<glyph unicode="&#xca;" horiz-adv-x="1343" d="M104 100q0 57 41 80q-41 27 -41 82t41 82q-41 23 -41 82q0 55 41 82q-41 23 -41 80q0 55 41 82q-41 23 -41 80t41 84q-41 23 -41 79q0 47 28 73t69 26q57 0 80 -43q27 43 84 43q53 0 79 -43q27 43 82 43q57 0 80 -43q27 43 84 43q53 0 80 -43q27 43 82 43 q39 0 68.5 -25.5t29.5 -73.5q0 -47 -29.5 -72.5t-68.5 -25.5q-53 0 -82 41q-29 -41 -80 -41q-55 0 -84 41q-25 -41 -80 -41q-53 0 -82 41q-6 -14 -24 -22q41 -29 41 -84t-41 -80q41 -29 41 -82q0 -55 -41 -80q41 -29 41 -82q0 -57 -41 -82q41 -29 41 -82t-41 -82 q18 -6 24 -24q29 41 82 41q55 0 80 -41q29 41 84 41q51 0 80 -41q29 41 82 41q51 0 82 -41q25 41 80 41q53 0 84 -41q25 41 80 41q39 0 67.5 -25t28.5 -72t-28.5 -72.5t-67.5 -25.5q-55 0 -80 41q-31 -41 -84 -41q-55 0 -80 41q-31 -41 -82 -41q-53 0 -82 41 q-29 -41 -80 -41q-55 0 -84 41q-25 -41 -80 -41q-53 0 -82 41q-29 -41 -79 -41q-55 0 -84 41q-25 -41 -80 -41q-41 0 -69 25.5t-28 72.5zM104 1239q0 47 28 71.5t69 24.5q57 0 80 -41q27 41 84 41q53 0 79 -41q27 41 82 41q57 0 80 -41q27 41 84 41q53 0 80 -41q27 41 82 41 q53 0 82 -41q23 41 80 41q55 0 84 -41q23 41 80 41q39 0 67.5 -24.5t28.5 -71.5t-28.5 -72.5t-67.5 -25.5q-55 0 -80 41q-31 -41 -84 -41q-55 0 -80 41q-31 -41 -82 -41q-53 0 -82 41q-29 -41 -80 -41q-55 0 -84 41q-25 -41 -80 -41q-53 0 -82 41q-29 -41 -79 -41 q-55 0 -84 41q-25 -41 -82 -41q-39 0 -67 25.5t-28 72.5zM266 1561q0 47 28 72.5t69 25.5q25 0 46 -10t34 -31q4 6 10 13.5t12 11.5q-37 20 -37 80q0 47 28 72.5t68 25.5q25 0 46.5 -10t33.5 -31q29 41 84 41q25 0 46.5 -10t33.5 -31q29 41 84 41q39 0 67.5 -25.5 t28.5 -72.5q0 -29 -11 -49.5t-27 -30.5l22 -25q29 41 82 41q39 0 67.5 -25.5t28.5 -72.5t-28.5 -72.5t-67.5 -25.5q-53 0 -82 41q-12 -20 -33.5 -30.5t-46.5 -10.5q-41 0 -68.5 25.5t-27.5 72.5q0 53 39 82q-8 4 -15.5 9t-11.5 15q-12 -23 -33.5 -33t-46.5 -10q-57 0 -84 43 q-4 -14 -22 -24q16 -14 27.5 -33.5t11.5 -48.5q0 -47 -29 -72.5t-68 -25.5q-53 0 -81 41q-12 -20 -34 -30.5t-46 -10.5q-41 0 -69 25.5t-28 72.5z" />
<glyph unicode="&#xcb;" horiz-adv-x="1343" d="M104 100q0 57 41 80q-41 27 -41 82t41 82q-41 23 -41 82q0 55 41 82q-41 23 -41 80q0 55 41 82q-41 23 -41 80t41 84q-41 23 -41 79q0 47 28 73t69 26q57 0 80 -43q27 43 84 43q53 0 79 -43q27 43 82 43q57 0 80 -43q27 43 84 43q53 0 80 -43q27 43 82 43 q39 0 68.5 -25.5t29.5 -73.5q0 -47 -29.5 -72.5t-68.5 -25.5q-53 0 -82 41q-29 -41 -80 -41q-55 0 -84 41q-25 -41 -80 -41q-53 0 -82 41q-6 -14 -24 -22q41 -29 41 -84t-41 -80q41 -29 41 -82q0 -55 -41 -80q41 -29 41 -82q0 -57 -41 -82q41 -29 41 -82t-41 -82 q18 -6 24 -24q29 41 82 41q55 0 80 -41q29 41 84 41q51 0 80 -41q29 41 82 41q51 0 82 -41q25 41 80 41q53 0 84 -41q25 41 80 41q39 0 67.5 -25t28.5 -72t-28.5 -72.5t-67.5 -25.5q-55 0 -80 41q-31 -41 -84 -41q-55 0 -80 41q-31 -41 -82 -41q-53 0 -82 41 q-29 -41 -80 -41q-55 0 -84 41q-25 -41 -80 -41q-53 0 -82 41q-29 -41 -79 -41q-55 0 -84 41q-25 -41 -80 -41q-41 0 -69 25.5t-28 72.5zM104 1239q0 47 28 71.5t69 24.5q57 0 80 -41q27 41 84 41q53 0 79 -41q27 41 82 41q57 0 80 -41q27 41 84 41q53 0 80 -41q27 41 82 41 q53 0 82 -41q23 41 80 41q55 0 84 -41q23 41 80 41q39 0 67.5 -24.5t28.5 -71.5t-28.5 -72.5t-67.5 -25.5q-55 0 -80 41q-31 -41 -84 -41q-55 0 -80 41q-31 -41 -82 -41q-53 0 -82 41q-29 -41 -80 -41q-55 0 -84 41q-25 -41 -80 -41q-53 0 -82 41q-29 -41 -79 -41 q-55 0 -84 41q-25 -41 -82 -41q-39 0 -67 25.5t-28 72.5zM268 1561q0 53 37 82q-37 20 -37 80q0 47 28 72.5t69 25.5q25 0 46 -10t34 -31q29 41 81 41q39 0 68 -25.5t29 -72.5q0 -29 -11.5 -49.5t-27.5 -30.5q16 -14 27.5 -33.5t11.5 -48.5q0 -47 -29 -72.5t-68 -25.5 q-53 0 -81 41q-12 -20 -34 -30.5t-46 -10.5q-41 0 -69 25.5t-28 72.5zM758 1561q0 53 39 82q-39 23 -39 80q0 47 27.5 72.5t68.5 25.5q25 0 46.5 -10t33.5 -31q29 41 82 41q39 0 67.5 -25.5t28.5 -72.5q0 -57 -39 -80q39 -29 39 -82q0 -47 -28.5 -72.5t-67.5 -25.5 q-53 0 -82 41q-12 -20 -33.5 -30.5t-46.5 -10.5q-41 0 -68.5 25.5t-27.5 72.5z" />
<glyph unicode="&#xcc;" horiz-adv-x="567" d="M-138 1723q0 47 28 72.5t69 25.5q25 0 46 -10t34 -31q29 41 81 41q39 0 68 -25.5t29 -72.5q0 -29 -11.5 -49.5t-27.5 -30.5q16 -14 22 -25q29 41 84 41q39 0 68 -25.5t29 -72.5t-29 -72.5t-68 -25.5q-57 0 -84 43q-12 -23 -33.5 -33t-46.5 -10q-41 0 -68.5 25.5 t-27.5 72.5q0 53 37 82q-6 4 -12 9t-10 13q-12 -20 -34 -30.5t-46 -10.5q-41 0 -69 26t-28 73zM104 100q0 57 41 80q-41 27 -41 82t41 82q-41 23 -41 82q0 55 41 82q-41 23 -41 80q0 55 41 82q-41 23 -41 80t41 84q-41 23 -41 79q0 55 41 82q-41 23 -41 80t41 84 q-41 23 -41 80q0 47 29 71.5t70 24.5q53 0 80 -41q27 41 82 41q39 0 68.5 -24.5t29.5 -71.5q0 -55 -41 -80q41 -29 41 -84t-41 -80q41 -29 41 -82q0 -55 -41 -79q41 -29 41 -84t-41 -80q41 -29 41 -82q0 -55 -41 -80q41 -29 41 -82q0 -57 -41 -82q41 -29 41 -82t-41 -82 q41 -25 41 -80q0 -47 -30 -72.5t-68 -25.5q-53 0 -82 41q-29 -41 -80 -41q-41 0 -70 25.5t-29 72.5z" />
<glyph unicode="&#xcd;" horiz-adv-x="567" d="M104 100q0 57 41 80q-41 27 -41 82t41 82q-41 23 -41 82q0 55 41 82q-41 23 -41 80q0 55 41 82q-41 23 -41 80t41 84q-41 23 -41 79q0 55 41 82q-41 23 -41 80t41 84q-41 23 -41 80q0 47 29 71.5t70 24.5q53 0 80 -41q27 41 82 41q39 0 68.5 -24.5t29.5 -71.5 q0 -55 -41 -80q41 -29 41 -84t-41 -80q41 -29 41 -82q0 -55 -41 -79q41 -29 41 -84t-41 -80q41 -29 41 -82q0 -55 -41 -80q41 -29 41 -82q0 -57 -41 -82q41 -29 41 -82t-41 -82q41 -25 41 -80q0 -47 -30 -72.5t-68 -25.5q-53 0 -82 41q-29 -41 -80 -41q-41 0 -70 25.5 t-29 72.5zM186 1561q0 47 28 72.5t69 25.5q25 0 46 -10t34 -31q4 6 10 13.5t12 11.5q-37 20 -37 80q0 47 28 72.5t68 25.5q25 0 46.5 -10t33.5 -31q29 41 84 41q39 0 68 -25.5t29 -72.5t-29 -73t-68 -26q-57 0 -84 43q-4 -14 -22 -24q16 -14 27.5 -33.5t11.5 -48.5 q0 -47 -29 -72.5t-68 -25.5q-53 0 -81 41q-12 -20 -34 -30.5t-46 -10.5q-41 0 -69 25.5t-28 72.5z" />
<glyph unicode="&#xce;" horiz-adv-x="567" d="M-136 1561q0 47 28 72.5t69 25.5q25 0 46 -10t34 -31q4 6 10 13.5t12 11.5q-37 20 -37 80q0 47 28 72.5t68 25.5q25 0 46.5 -10t33.5 -31q29 41 84 41q25 0 46.5 -10t33.5 -31q29 41 84 41q39 0 67.5 -25.5t28.5 -72.5q0 -29 -11 -49.5t-27 -30.5l22 -25q29 41 82 41 q39 0 67.5 -25.5t28.5 -72.5t-28.5 -72.5t-67.5 -25.5q-53 0 -82 41q-12 -20 -33.5 -30.5t-46.5 -10.5q-41 0 -68.5 25.5t-27.5 72.5q0 53 39 82q-8 4 -15.5 9t-11.5 15q-12 -23 -33.5 -33t-46.5 -10q-57 0 -84 43q-4 -14 -22 -24q16 -14 27.5 -33.5t11.5 -48.5 q0 -47 -29 -72.5t-68 -25.5q-53 0 -81 41q-12 -20 -34 -30.5t-46 -10.5q-41 0 -69 25.5t-28 72.5zM104 100q0 57 41 80q-41 27 -41 82t41 82q-41 23 -41 82q0 55 41 82q-41 23 -41 80q0 55 41 82q-41 23 -41 80t41 84q-41 23 -41 79q0 55 41 82q-41 23 -41 80t41 84 q-41 23 -41 80q0 47 29 71.5t70 24.5q53 0 80 -41q27 41 82 41q39 0 68.5 -24.5t29.5 -71.5q0 -55 -41 -80q41 -29 41 -84t-41 -80q41 -29 41 -82q0 -55 -41 -79q41 -29 41 -84t-41 -80q41 -29 41 -82q0 -55 -41 -80q41 -29 41 -82q0 -57 -41 -82q41 -29 41 -82t-41 -82 q41 -25 41 -80q0 -47 -30 -72.5t-68 -25.5q-53 0 -82 41q-29 -41 -80 -41q-41 0 -70 25.5t-29 72.5z" />
<glyph unicode="&#xcf;" horiz-adv-x="567" d="M-136 1561q0 53 37 82q-37 20 -37 80q0 47 28 72.5t69 25.5q25 0 46 -10t34 -31q29 41 81 41q39 0 68 -25.5t29 -72.5q0 -29 -11.5 -49.5t-27.5 -30.5q16 -14 27.5 -33.5t11.5 -48.5q0 -47 -29 -72.5t-68 -25.5q-53 0 -81 41q-12 -20 -34 -30.5t-46 -10.5q-41 0 -69 25.5 t-28 72.5zM104 100q0 57 41 80q-41 27 -41 82t41 82q-41 23 -41 82q0 55 41 82q-41 23 -41 80q0 55 41 82q-41 23 -41 80t41 84q-41 23 -41 79q0 55 41 82q-41 23 -41 80t41 84q-41 23 -41 80q0 47 29 71.5t70 24.5q53 0 80 -41q27 41 82 41q39 0 68.5 -24.5t29.5 -71.5 q0 -55 -41 -80q41 -29 41 -84t-41 -80q41 -29 41 -82q0 -55 -41 -79q41 -29 41 -84t-41 -80q41 -29 41 -82q0 -55 -41 -80q41 -29 41 -82q0 -57 -41 -82q41 -29 41 -82t-41 -82q41 -25 41 -80q0 -47 -30 -72.5t-68 -25.5q-53 0 -82 41q-29 -41 -80 -41q-41 0 -70 25.5 t-29 72.5zM354 1561q0 53 39 82q-39 23 -39 80q0 47 27.5 72.5t68.5 25.5q25 0 46.5 -10t33.5 -31q29 41 82 41q39 0 67.5 -25.5t28.5 -72.5q0 -57 -39 -80q39 -29 39 -82q0 -47 -28.5 -72.5t-67.5 -25.5q-53 0 -82 41q-12 -20 -33.5 -30.5t-46.5 -10.5q-41 0 -68.5 25.5 t-27.5 72.5z" />
<glyph unicode="&#xd0;" horiz-adv-x="1437" d="M0 913q0 47 27.5 73t68.5 26q53 0 82 -43q23 43 80 43t84 -43q10 23 30.5 33t49.5 10q35 0 56.5 -13.5t25.5 -29.5q25 43 82 43q41 0 68.5 -26t27.5 -73t-27.5 -73.5t-68.5 -26.5q-55 0 -82 43q-10 -16 -25 -25q39 -27 39 -81q0 -57 -41 -80q41 -27 41 -82q0 -57 -41 -80 q41 -27 41 -82q0 -59 -41 -82q41 -27 41 -82t-41 -82q14 -6 27 -24q29 41 80 41q53 0 82 -41q29 41 82 41t81 -41q29 41 80 41q53 0 82 -41q6 8 11.5 14t13.5 10q-41 29 -41 82t41 82q-41 25 -41 82q0 53 41 82q-41 25 -41 80q0 53 41 82q-41 25 -41 80t41 84q-41 25 -41 79 q0 53 41 82q-41 25 -41 80t41 84q-10 4 -25 23q-29 -41 -82 -41q-51 0 -80 41q-29 -41 -81 -41q-53 0 -82 41q-29 -41 -82 -41q-51 0 -80 41q-29 -41 -82 -41q-55 0 -80 41q-29 -41 -78 -41q-51 0 -76.5 22.5t-25.5 75.5q0 47 28.5 71.5t67.5 24.5q57 0 84 -41q23 41 80 41 q55 0 82 -41q27 41 80 41q55 0 82 -41q27 41 82 41t81 -41q27 41 80 41q55 0 82 -41q27 41 82 41q41 0 68.5 -24.5t27.5 -71.5q0 -55 -39 -80q16 -12 25 -26q27 41 80 41q41 0 69.5 -26t28.5 -73q0 -55 -39 -80q39 -27 39 -82t-39 -79q39 -27 39 -84q0 -55 -39 -80 q39 -27 39 -82t-39 -80q39 -27 39 -82q0 -57 -39 -82q39 -27 39 -82q0 -47 -28.5 -72.5t-69.5 -25.5q-53 0 -80 43q-10 -16 -25 -27q39 -25 39 -80q0 -47 -27.5 -72.5t-68.5 -25.5q-53 0 -82 41q-29 -41 -82 -41q-51 0 -80 41q-29 -41 -81 -41q-53 0 -82 41q-29 -41 -82 -41 q-51 0 -80 41q-29 -41 -82 -41q-55 0 -80 41q-29 -41 -84 -41q-39 0 -67.5 25.5t-28.5 72.5q0 55 41 80q-41 29 -41 82t41 82q-41 25 -41 82q0 53 41 82q-41 25 -41 80q0 53 41 82q-41 25 -41 80t39 81q-16 10 -23 25q-29 -43 -82 -43q-41 0 -68.5 26.5t-27.5 73.5z" />
<glyph unicode="&#xd1;" d="M104 100q0 57 41 80q-41 27 -41 82t41 82q-41 23 -41 82q0 55 41 82q-41 23 -41 80q0 55 41 82q-41 23 -41 80t41 84q-41 23 -41 79q0 55 41 82q-41 23 -41 80t41 84q-41 23 -41 80q0 47 29 71.5t70 24.5q53 0 80 -41q27 41 82 41q39 0 68.5 -24.5t29.5 -71.5 q0 -55 -41 -80q18 -14 22 -26q27 41 84 41q39 0 68 -26t29 -73q0 -55 -41 -80q41 -29 41 -82q0 -55 -41 -79q8 -6 14 -12.5t10 -14.5q27 41 82 41q39 0 68.5 -25.5t29.5 -72.5q0 -55 -40 -80q16 -10 22 -25q29 41 82 41t82 -41q8 14 24 25q-41 25 -40 80q0 55 40 84 q-41 25 -40 79q0 53 40 82q-41 25 -40 80q0 55 40 84q-41 25 -40 80q0 47 28.5 71.5t69.5 24.5q53 0 82 -41q23 41 80 41q39 0 68.5 -24.5t29.5 -71.5q0 -55 -41 -80q41 -29 41 -84t-41 -80q41 -29 41 -82q0 -55 -41 -79q41 -29 41 -84t-41 -80q41 -29 41 -82q0 -55 -41 -80 q41 -29 41 -82q0 -57 -41 -82q41 -29 41 -82t-41 -82q41 -25 41 -80q0 -47 -29.5 -72.5t-68.5 -25.5q-55 0 -80 41q-31 -41 -82 -41q-41 0 -69.5 25.5t-28.5 72.5q0 55 40 80q-14 8 -24 27q-29 -43 -82 -43q-41 0 -68.5 25.5t-27.5 72.5q0 53 41 82q-41 25 -41 82 q0 53 41 82q-16 6 -27 22q-29 -41 -80 -41q-41 0 -69.5 26t-28.5 73q0 53 41 82q-16 8 -25 24q-29 -41 -80 -41q-55 0 -84 41q-6 -14 -22 -24q41 -29 41 -82q0 -55 -41 -80q41 -29 41 -82q0 -57 -41 -82q41 -29 41 -82t-41 -82q41 -25 41 -80q0 -47 -30 -72.5t-68 -25.5 q-53 0 -82 41q-29 -41 -80 -41q-41 0 -70 25.5t-29 72.5zM186 1561q0 47 28 72.5t69 25.5q39 0 67.5 -25.5t28.5 -72.5t-28.5 -72.5t-67.5 -25.5q-41 0 -69 25.5t-28 72.5zM348 1723q0 47 28 72.5t68 25.5q25 0 46.5 -10t33.5 -31q29 41 84 41q39 0 68 -25.5t29 -72.5 t-29 -73t-68 -26q-57 0 -84 43q-12 -23 -33.5 -33t-46.5 -10q-41 0 -68.5 26t-27.5 73zM676 1561q0 47 27.5 72.5t68.5 25.5q25 0 46.5 -10t33.5 -31q29 41 82 41q39 0 67.5 -25.5t28.5 -72.5t-28.5 -72.5t-67.5 -25.5q-53 0 -82 41q-12 -20 -33.5 -30.5t-46.5 -10.5 q-41 0 -68.5 25.5t-27.5 72.5zM1000 1723q0 47 27.5 72.5t68.5 25.5q39 0 67.5 -25.5t28.5 -72.5t-28.5 -73t-67.5 -26q-41 0 -68.5 26t-27.5 73z" />
<glyph unicode="&#xd2;" d="M104 262q0 55 41 82q-41 23 -41 82q0 55 41 82q-41 23 -41 80q0 55 41 82q-41 23 -41 80t41 84q-41 23 -41 79q0 55 41 82q-41 23 -41 80q0 47 29 73t70 26q57 0 80 -41q8 14 24 26q-41 23 -41 80q0 47 30 71.5t71 24.5q55 0 77 -41q29 41 82 41q59 0 82 -41q27 41 82 41 q57 0 80 -41q29 41 82 41q55 0 82 -41q27 41 82 41q41 0 68.5 -24.5t27.5 -71.5q0 -55 -41 -80q18 -12 27 -26q27 41 80 41q41 0 69.5 -26t28.5 -73q0 -55 -41 -80q41 -29 41 -82q0 -55 -41 -79q41 -29 41 -84t-41 -80q41 -29 41 -82q0 -55 -41 -80q41 -29 41 -82 q0 -57 -41 -82q41 -29 41 -82q0 -47 -28.5 -72.5t-69.5 -25.5q-53 0 -80 43q-12 -18 -27 -27q41 -25 41 -80q0 -47 -27.5 -72.5t-68.5 -25.5q-53 0 -82 41q-29 -41 -82 -41q-51 0 -82 41q-25 -41 -80 -41q-53 0 -82 41q-25 -41 -82 -41q-51 0 -82 41q-25 -41 -79 -41 q-41 0 -70 25.5t-29 72.5q0 57 41 80q-14 8 -24 27q-25 -43 -82 -43q-41 0 -69 25.5t-28 72.5zM266 1723q0 47 28 72.5t69 25.5q25 0 46 -10t34 -31q29 41 81 41q39 0 68 -25.5t29 -72.5q0 -29 -11.5 -49.5t-27.5 -30.5q16 -14 22 -25q29 41 84 41q39 0 68 -25.5t29 -72.5 t-29 -72.5t-68 -25.5q-57 0 -84 43q-12 -23 -33.5 -33t-46.5 -10q-41 0 -68.5 25.5t-27.5 72.5q0 53 37 82q-6 4 -12 9t-10 13q-12 -20 -34 -30.5t-46 -10.5q-41 0 -69 26t-28 73zM420 180q14 -6 24 -24q31 41 82 41q57 0 82 -41q29 41 82 41q55 0 80 -41q31 41 82 41 q53 0 82 -41q12 18 24 24q-41 29 -40 82q0 53 40 82q-41 25 -40 82q0 53 40 82q-41 25 -40 80q0 53 40 82q-41 25 -40 80q0 55 40 84q-41 25 -40 79q0 53 40 82q-41 25 -40 80q0 55 40 84q-14 6 -24 23q-29 -41 -82 -41q-51 0 -82 41q-25 -41 -80 -41q-53 0 -82 41 q-25 -41 -82 -41q-51 0 -82 41q-6 -16 -24 -23q43 -29 43 -84t-43 -80q43 -29 43 -82q0 -55 -43 -79q43 -29 43 -84t-43 -80q43 -29 43 -82q0 -55 -43 -80q43 -29 43 -82q0 -57 -43 -82q43 -29 43 -82q0 -55 -43 -82z" />
<glyph unicode="&#xd3;" d="M104 262q0 55 41 82q-41 23 -41 82q0 55 41 82q-41 23 -41 80q0 55 41 82q-41 23 -41 80t41 84q-41 23 -41 79q0 55 41 82q-41 23 -41 80q0 47 29 73t70 26q57 0 80 -41q8 14 24 26q-41 23 -41 80q0 47 30 71.5t71 24.5q55 0 77 -41q29 41 82 41q59 0 82 -41q27 41 82 41 q57 0 80 -41q29 41 82 41q55 0 82 -41q27 41 82 41q41 0 68.5 -24.5t27.5 -71.5q0 -55 -41 -80q18 -12 27 -26q27 41 80 41q41 0 69.5 -26t28.5 -73q0 -55 -41 -80q41 -29 41 -82q0 -55 -41 -79q41 -29 41 -84t-41 -80q41 -29 41 -82q0 -55 -41 -80q41 -29 41 -82 q0 -57 -41 -82q41 -29 41 -82q0 -47 -28.5 -72.5t-69.5 -25.5q-53 0 -80 43q-12 -18 -27 -27q41 -25 41 -80q0 -47 -27.5 -72.5t-68.5 -25.5q-53 0 -82 41q-29 -41 -82 -41q-51 0 -82 41q-25 -41 -80 -41q-53 0 -82 41q-25 -41 -82 -41q-51 0 -82 41q-25 -41 -79 -41 q-41 0 -70 25.5t-29 72.5q0 57 41 80q-14 8 -24 27q-25 -43 -82 -43q-41 0 -69 25.5t-28 72.5zM420 180q14 -6 24 -24q31 41 82 41q57 0 82 -41q29 41 82 41q55 0 80 -41q31 41 82 41q53 0 82 -41q12 18 24 24q-41 29 -40 82q0 53 40 82q-41 25 -40 82q0 53 40 82 q-41 25 -40 80q0 53 40 82q-41 25 -40 80q0 55 40 84q-41 25 -40 79q0 53 40 82q-41 25 -40 80q0 55 40 84q-14 6 -24 23q-29 -41 -82 -41q-51 0 -82 41q-25 -41 -80 -41q-53 0 -82 41q-25 -41 -82 -41q-51 0 -82 41q-6 -16 -24 -23q43 -29 43 -84t-43 -80q43 -29 43 -82 q0 -55 -43 -79q43 -29 43 -84t-43 -80q43 -29 43 -82q0 -55 -43 -80q43 -29 43 -82q0 -57 -43 -82q43 -29 43 -82q0 -55 -43 -82zM591 1561q0 47 28 72.5t69 25.5q25 0 46 -10t34 -31q4 6 10 13.5t12 11.5q-37 20 -37 80q0 47 28 72.5t68 25.5q25 0 46.5 -10t33.5 -31 q29 41 84 41q39 0 68 -25.5t29 -72.5t-29 -73t-68 -26q-57 0 -84 43q-4 -14 -22 -24q16 -14 27.5 -33.5t11.5 -48.5q0 -47 -29 -72.5t-68 -25.5q-53 0 -81 41q-12 -20 -34 -30.5t-46 -10.5q-41 0 -69 25.5t-28 72.5z" />
<glyph unicode="&#xd4;" d="M104 262q0 55 41 82q-41 23 -41 82q0 55 41 82q-41 23 -41 80q0 55 41 82q-41 23 -41 80t41 84q-41 23 -41 79q0 55 41 82q-41 23 -41 80q0 47 29 73t70 26q57 0 80 -41q8 14 24 26q-41 23 -41 80q0 47 30 71.5t71 24.5q55 0 77 -41q29 41 82 41q59 0 82 -41q27 41 82 41 q57 0 80 -41q29 41 82 41q55 0 82 -41q27 41 82 41q41 0 68.5 -24.5t27.5 -71.5q0 -55 -41 -80q18 -12 27 -26q27 41 80 41q41 0 69.5 -26t28.5 -73q0 -55 -41 -80q41 -29 41 -82q0 -55 -41 -79q41 -29 41 -84t-41 -80q41 -29 41 -82q0 -55 -41 -80q41 -29 41 -82 q0 -57 -41 -82q41 -29 41 -82q0 -47 -28.5 -72.5t-69.5 -25.5q-53 0 -80 43q-12 -18 -27 -27q41 -25 41 -80q0 -47 -27.5 -72.5t-68.5 -25.5q-53 0 -82 41q-29 -41 -82 -41q-51 0 -82 41q-25 -41 -80 -41q-53 0 -82 41q-25 -41 -82 -41q-51 0 -82 41q-25 -41 -79 -41 q-41 0 -70 25.5t-29 72.5q0 57 41 80q-14 8 -24 27q-25 -43 -82 -43q-41 0 -69 25.5t-28 72.5zM268 1561q0 47 28 72.5t69 25.5q25 0 46 -10t34 -31q4 6 10 13.5t12 11.5q-37 20 -37 80q0 47 28 72.5t68 25.5q25 0 46.5 -10t33.5 -31q29 41 84 41q25 0 46.5 -10t33.5 -31 q29 41 84 41q39 0 67.5 -25.5t28.5 -72.5q0 -29 -11 -49.5t-27 -30.5l22 -25q29 41 82 41q39 0 67.5 -25.5t28.5 -72.5t-28.5 -72.5t-67.5 -25.5q-53 0 -82 41q-12 -20 -33.5 -30.5t-46.5 -10.5q-41 0 -68.5 25.5t-27.5 72.5q0 53 39 82q-8 4 -15.5 9t-11.5 15 q-12 -23 -33.5 -33t-46.5 -10q-57 0 -84 43q-4 -14 -22 -24q16 -14 27.5 -33.5t11.5 -48.5q0 -47 -29 -72.5t-68 -25.5q-53 0 -81 41q-12 -20 -34 -30.5t-46 -10.5q-41 0 -69 25.5t-28 72.5zM420 180q14 -6 24 -24q31 41 82 41q57 0 82 -41q29 41 82 41q55 0 80 -41 q31 41 82 41q53 0 82 -41q12 18 24 24q-41 29 -40 82q0 53 40 82q-41 25 -40 82q0 53 40 82q-41 25 -40 80q0 53 40 82q-41 25 -40 80q0 55 40 84q-41 25 -40 79q0 53 40 82q-41 25 -40 80q0 55 40 84q-14 6 -24 23q-29 -41 -82 -41q-51 0 -82 41q-25 -41 -80 -41 q-53 0 -82 41q-25 -41 -82 -41q-51 0 -82 41q-6 -16 -24 -23q43 -29 43 -84t-43 -80q43 -29 43 -82q0 -55 -43 -79q43 -29 43 -84t-43 -80q43 -29 43 -82q0 -55 -43 -80q43 -29 43 -82q0 -57 -43 -82q43 -29 43 -82q0 -55 -43 -82z" />
<glyph unicode="&#xd5;" d="M104 262q0 55 41 82q-41 23 -41 82q0 55 41 82q-41 23 -41 80q0 55 41 82q-41 23 -41 80t41 84q-41 23 -41 79q0 55 41 82q-41 23 -41 80q0 47 29 73t70 26q57 0 80 -41q8 14 24 26q-41 23 -41 80q0 47 30 71.5t71 24.5q55 0 77 -41q29 41 82 41q59 0 82 -41q27 41 82 41 q57 0 80 -41q29 41 82 41q55 0 82 -41q27 41 82 41q41 0 68.5 -24.5t27.5 -71.5q0 -55 -41 -80q18 -12 27 -26q27 41 80 41q41 0 69.5 -26t28.5 -73q0 -55 -41 -80q41 -29 41 -82q0 -55 -41 -79q41 -29 41 -84t-41 -80q41 -29 41 -82q0 -55 -41 -80q41 -29 41 -82 q0 -57 -41 -82q41 -29 41 -82q0 -47 -28.5 -72.5t-69.5 -25.5q-53 0 -80 43q-12 -18 -27 -27q41 -25 41 -80q0 -47 -27.5 -72.5t-68.5 -25.5q-53 0 -82 41q-29 -41 -82 -41q-51 0 -82 41q-25 -41 -80 -41q-53 0 -82 41q-25 -41 -82 -41q-51 0 -82 41q-25 -41 -79 -41 q-41 0 -70 25.5t-29 72.5q0 57 41 80q-14 8 -24 27q-25 -43 -82 -43q-41 0 -69 25.5t-28 72.5zM186 1561q0 47 28 72.5t69 25.5q39 0 67.5 -25.5t28.5 -72.5t-28.5 -72.5t-67.5 -25.5q-41 0 -69 25.5t-28 72.5zM348 1723q0 47 28 72.5t68 25.5q25 0 46.5 -10t33.5 -31 q29 41 84 41q39 0 68 -25.5t29 -72.5t-29 -73t-68 -26q-57 0 -84 43q-12 -23 -33.5 -33t-46.5 -10q-41 0 -68.5 26t-27.5 73zM420 180q14 -6 24 -24q31 41 82 41q57 0 82 -41q29 41 82 41q55 0 80 -41q31 41 82 41q53 0 82 -41q12 18 24 24q-41 29 -40 82q0 53 40 82 q-41 25 -40 82q0 53 40 82q-41 25 -40 80q0 53 40 82q-41 25 -40 80q0 55 40 84q-41 25 -40 79q0 53 40 82q-41 25 -40 80q0 55 40 84q-14 6 -24 23q-29 -41 -82 -41q-51 0 -82 41q-25 -41 -80 -41q-53 0 -82 41q-25 -41 -82 -41q-51 0 -82 41q-6 -16 -24 -23q43 -29 43 -84 t-43 -80q43 -29 43 -82q0 -55 -43 -79q43 -29 43 -84t-43 -80q43 -29 43 -82q0 -55 -43 -80q43 -29 43 -82q0 -57 -43 -82q43 -29 43 -82q0 -55 -43 -82zM676 1561q0 47 27.5 72.5t68.5 25.5q25 0 46.5 -10t33.5 -31q29 41 82 41q39 0 67.5 -25.5t28.5 -72.5t-28.5 -72.5 t-67.5 -25.5q-53 0 -82 41q-12 -20 -33.5 -30.5t-46.5 -10.5q-41 0 -68.5 25.5t-27.5 72.5zM1000 1723q0 47 27.5 72.5t68.5 25.5q39 0 67.5 -25.5t28.5 -72.5t-28.5 -73t-67.5 -26q-41 0 -68.5 26t-27.5 73z" />
<glyph unicode="&#xd6;" d="M104 262q0 55 41 82q-41 23 -41 82q0 55 41 82q-41 23 -41 80q0 55 41 82q-41 23 -41 80t41 84q-41 23 -41 79q0 55 41 82q-41 23 -41 80q0 47 29 73t70 26q57 0 80 -41q8 14 24 26q-41 23 -41 80q0 47 30 71.5t71 24.5q55 0 77 -41q29 41 82 41q59 0 82 -41q27 41 82 41 q57 0 80 -41q29 41 82 41q55 0 82 -41q27 41 82 41q41 0 68.5 -24.5t27.5 -71.5q0 -55 -41 -80q18 -12 27 -26q27 41 80 41q41 0 69.5 -26t28.5 -73q0 -55 -41 -80q41 -29 41 -82q0 -55 -41 -79q41 -29 41 -84t-41 -80q41 -29 41 -82q0 -55 -41 -80q41 -29 41 -82 q0 -57 -41 -82q41 -29 41 -82q0 -47 -28.5 -72.5t-69.5 -25.5q-53 0 -80 43q-12 -18 -27 -27q41 -25 41 -80q0 -47 -27.5 -72.5t-68.5 -25.5q-53 0 -82 41q-29 -41 -82 -41q-51 0 -82 41q-25 -41 -80 -41q-53 0 -82 41q-25 -41 -82 -41q-51 0 -82 41q-25 -41 -79 -41 q-41 0 -70 25.5t-29 72.5q0 57 41 80q-14 8 -24 27q-25 -43 -82 -43q-41 0 -69 25.5t-28 72.5zM268 1561q0 53 37 82q-37 20 -37 80q0 47 28 72.5t69 25.5q25 0 46 -10t34 -31q29 41 81 41q39 0 68 -25.5t29 -72.5q0 -29 -11.5 -49.5t-27.5 -30.5q16 -14 27.5 -33.5 t11.5 -48.5q0 -47 -29 -72.5t-68 -25.5q-53 0 -81 41q-12 -20 -34 -30.5t-46 -10.5q-41 0 -69 25.5t-28 72.5zM420 180q14 -6 24 -24q31 41 82 41q57 0 82 -41q29 41 82 41q55 0 80 -41q31 41 82 41q53 0 82 -41q12 18 24 24q-41 29 -40 82q0 53 40 82q-41 25 -40 82 q0 53 40 82q-41 25 -40 80q0 53 40 82q-41 25 -40 80q0 55 40 84q-41 25 -40 79q0 53 40 82q-41 25 -40 80q0 55 40 84q-14 6 -24 23q-29 -41 -82 -41q-51 0 -82 41q-25 -41 -80 -41q-53 0 -82 41q-25 -41 -82 -41q-51 0 -82 41q-6 -16 -24 -23q43 -29 43 -84t-43 -80 q43 -29 43 -82q0 -55 -43 -79q43 -29 43 -84t-43 -80q43 -29 43 -82q0 -55 -43 -80q43 -29 43 -82q0 -57 -43 -82q43 -29 43 -82q0 -55 -43 -82zM758 1561q0 53 39 82q-39 23 -39 80q0 47 27.5 72.5t68.5 25.5q25 0 46.5 -10t33.5 -31q29 41 82 41q39 0 67.5 -25.5 t28.5 -72.5q0 -57 -39 -80q39 -29 39 -82q0 -47 -28.5 -72.5t-67.5 -25.5q-53 0 -82 41q-12 -20 -33.5 -30.5t-46.5 -10.5q-41 0 -68.5 25.5t-27.5 72.5z" />
<glyph unicode="&#xd7;" horiz-adv-x="1052" d="M104 428q0 47 28 72.5t69 25.5q39 0 67.5 -25.5t28.5 -72.5q0 -49 -28.5 -74.5t-67.5 -25.5q-41 0 -69 25.5t-28 74.5zM104 1075q0 47 28 73t69 26q39 0 67.5 -26t28.5 -73t-28.5 -72.5t-67.5 -25.5q-41 0 -69 25.5t-28 72.5zM266 590q0 47 28 72.5t68 25.5 q39 0 68 -25.5t29 -72.5t-29 -74t-68 -27q-41 0 -68.5 27t-27.5 74zM266 913q0 47 28 73t68 26q39 0 68 -26t29 -73t-29 -73.5t-68 -26.5q-41 0 -68.5 26.5t-27.5 73.5zM430 752q0 47 27.5 72.5t68.5 25.5q39 0 68 -25.5t29 -72.5t-29 -74t-68 -27q-41 0 -68.5 27t-27.5 74z M594 590q0 47 27.5 72.5t68.5 25.5q39 0 67.5 -25.5t28.5 -72.5t-28.5 -74t-67.5 -27q-41 0 -68.5 27t-27.5 74zM594 913q0 47 27.5 73t68.5 26q39 0 67.5 -26t28.5 -73t-28.5 -73.5t-67.5 -26.5q-41 0 -68.5 26.5t-27.5 73.5zM756 428q0 47 27.5 72.5t68.5 25.5 q39 0 67.5 -25.5t28.5 -72.5q0 -49 -28.5 -74.5t-67.5 -25.5q-41 0 -68.5 25.5t-27.5 74.5zM756 1075q0 47 27.5 73t68.5 26q39 0 67.5 -26t28.5 -73t-28.5 -72.5t-67.5 -25.5q-41 0 -68.5 25.5t-27.5 72.5z" />
<glyph unicode="&#xd8;" horiz-adv-x="1384" d="M104 100q0 25 10.5 50.5t32.5 29.5q-20 18 -29 35.5t-9 46.5q0 55 38 82q-39 27 -38 82q0 51 38 82q-39 27 -38 80q0 51 38 82q-39 27 -38 80q0 53 38 84q-39 25 -38 79q0 51 38 82q-39 27 -38 80q0 47 28.5 73t69.5 26q53 0 80 -41q8 14 24 26q-41 23 -41 80 q0 47 30 71.5t71 24.5q51 0 78 -41q29 41 81 41q55 0 82 -41q27 41 82 41q53 0 80 -41q29 41 82 41q57 0 80 -41q29 41 84 41q39 0 67 -24l11 -13l10 13q27 25 70 24q39 0 68.5 -24.5t29.5 -71.5q0 -29 -10.5 -45t-28.5 -33q18 -23 30.5 -37t12.5 -49q0 -51 -41 -80 q41 -31 41 -82q0 -55 -41 -79q41 -31 41 -84q0 -51 -41 -80q41 -31 41 -82t-41 -80q41 -31 41 -82q0 -53 -41 -82q41 -29 41 -82q0 -47 -28.5 -72.5t-69.5 -25.5q-51 0 -82 43q-6 -14 -25 -27q41 -29 41 -80q0 -47 -27.5 -72.5t-68.5 -25.5q-53 0 -84 41q-25 -41 -80 -41 q-51 0 -82 41q-29 -41 -80 -41q-53 0 -82 41q-29 -41 -82 -41q-51 0 -81 41q-29 -41 -80 -41q-25 0 -47.5 9t-36.5 32q-12 -18 -36 -29.5t-48 -11.5q-41 0 -69 25.5t-28 72.5zM424 180q12 -6 25 -24q31 41 81 41q53 0 82 -41q29 41 82 41q51 0 80 -41q31 41 82 41 q55 0 80 -41q10 18 27 24q-41 29 -41 82q0 55 41 82q-41 27 -41 82q0 53 41 82q-41 27 -41 80t41 82q-41 27 -41 80q0 55 41 84q-18 6 -29 22q-10 -16 -33.5 -28.5t-48.5 -12.5q-41 0 -69.5 25.5t-28.5 72.5t28.5 73t69.5 26q51 0 82 -45q8 16 24 26q-18 10 -29 34t-11 48 q0 29 10 52.5t33 31.5q-10 6 -25 23q-25 -41 -80 -41q-51 0 -82 41q-29 -41 -80 -41q-53 0 -82 41q-29 -41 -82 -41q-51 0 -81 41q-10 -16 -25 -23q43 -31 43 -84t-43 -80q43 -31 43 -82q0 -55 -43 -79q43 -31 43 -84t-43 -80q43 -31 43 -82q0 -53 -43 -80q14 -8 20 -23 q39 37 82 37q39 0 69 -24.5t30 -71.5t-30 -72.5t-69 -25.5q-43 0 -69 24l-11 10l-22 -18q43 -29 43 -82q0 -51 -43 -82zM592 588q0 51 41 82q-41 29 -41 80q0 47 28.5 72.5t69.5 25.5q39 0 67.5 -25.5t28.5 -72.5q0 -51 -41 -80q41 -31 41 -82q0 -47 -28.5 -73t-67.5 -26 q-41 0 -69.5 26t-28.5 73z" />
<glyph unicode="&#xd9;" d="M104 262q0 55 41 82q-41 23 -41 82q0 55 41 82q-41 23 -41 80q0 55 41 82q-41 23 -41 80t41 84q-41 23 -41 79q0 55 41 82q-41 23 -41 80t41 84q-41 23 -41 80q0 47 29 71.5t70 24.5q53 0 80 -41q27 41 82 41q39 0 68.5 -24.5t29.5 -71.5q0 -55 -41 -80q41 -29 41 -84 t-41 -80q41 -29 41 -82q0 -55 -41 -79q41 -29 41 -84t-41 -80q41 -29 41 -82q0 -55 -41 -80q41 -29 41 -82q0 -57 -41 -82q41 -29 41 -82t-41 -82q14 -6 22 -24q29 41 84 41q51 0 80 -41q29 41 82 41q51 0 80 -41q29 41 82 41t82 -41q12 18 24 24q-41 29 -40 82q0 53 40 82 q-41 25 -40 82q0 53 40 82q-41 25 -40 80q0 53 40 82q-41 25 -40 80q0 55 40 84q-41 25 -40 79q0 53 40 82q-41 25 -40 80q0 55 40 84q-41 25 -40 80q0 47 28.5 71.5t69.5 24.5q53 0 82 -41q23 41 80 41q39 0 68.5 -24.5t29.5 -71.5q0 -55 -41 -80q41 -29 41 -84t-41 -80 q41 -29 41 -82q0 -55 -41 -79q41 -29 41 -84t-41 -80q41 -29 41 -82q0 -55 -41 -80q41 -29 41 -82q0 -57 -41 -82q41 -29 41 -82t-41 -82q41 -25 41 -80q0 -47 -29.5 -72.5t-68.5 -25.5q-55 0 -80 41q-31 -41 -82 -41q-53 0 -82 41q-29 -41 -82 -41t-82 41q-29 -41 -80 -41 q-53 0 -82 41q-29 -41 -80 -41q-55 0 -84 41q-25 -41 -79 -41q-41 0 -70 25.5t-29 72.5q0 57 43 80q-16 10 -26 27q-29 -43 -80 -43q-41 0 -70 25.5t-29 72.5zM266 1723q0 47 28 72.5t69 25.5q25 0 46 -10t34 -31q29 41 81 41q39 0 68 -25.5t29 -72.5q0 -29 -11.5 -49.5 t-27.5 -30.5q16 -14 22 -25q29 41 84 41q39 0 68 -25.5t29 -72.5t-29 -72.5t-68 -25.5q-57 0 -84 43q-12 -23 -33.5 -33t-46.5 -10q-41 0 -68.5 25.5t-27.5 72.5q0 53 37 82q-6 4 -12 9t-10 13q-12 -20 -34 -30.5t-46 -10.5q-41 0 -69 26t-28 73z" />
<glyph unicode="&#xda;" d="M104 262q0 55 41 82q-41 23 -41 82q0 55 41 82q-41 23 -41 80q0 55 41 82q-41 23 -41 80t41 84q-41 23 -41 79q0 55 41 82q-41 23 -41 80t41 84q-41 23 -41 80q0 47 29 71.5t70 24.5q53 0 80 -41q27 41 82 41q39 0 68.5 -24.5t29.5 -71.5q0 -55 -41 -80q41 -29 41 -84 t-41 -80q41 -29 41 -82q0 -55 -41 -79q41 -29 41 -84t-41 -80q41 -29 41 -82q0 -55 -41 -80q41 -29 41 -82q0 -57 -41 -82q41 -29 41 -82t-41 -82q14 -6 22 -24q29 41 84 41q51 0 80 -41q29 41 82 41q51 0 80 -41q29 41 82 41t82 -41q12 18 24 24q-41 29 -40 82q0 53 40 82 q-41 25 -40 82q0 53 40 82q-41 25 -40 80q0 53 40 82q-41 25 -40 80q0 55 40 84q-41 25 -40 79q0 53 40 82q-41 25 -40 80q0 55 40 84q-41 25 -40 80q0 47 28.5 71.5t69.5 24.5q53 0 82 -41q23 41 80 41q39 0 68.5 -24.5t29.5 -71.5q0 -55 -41 -80q41 -29 41 -84t-41 -80 q41 -29 41 -82q0 -55 -41 -79q41 -29 41 -84t-41 -80q41 -29 41 -82q0 -55 -41 -80q41 -29 41 -82q0 -57 -41 -82q41 -29 41 -82t-41 -82q41 -25 41 -80q0 -47 -29.5 -72.5t-68.5 -25.5q-55 0 -80 41q-31 -41 -82 -41q-53 0 -82 41q-29 -41 -82 -41t-82 41q-29 -41 -80 -41 q-53 0 -82 41q-29 -41 -80 -41q-55 0 -84 41q-25 -41 -79 -41q-41 0 -70 25.5t-29 72.5q0 57 43 80q-16 10 -26 27q-29 -43 -80 -43q-41 0 -70 25.5t-29 72.5zM591 1561q0 47 28 72.5t69 25.5q25 0 46 -10t34 -31q4 6 10 13.5t12 11.5q-37 20 -37 80q0 47 28 72.5t68 25.5 q25 0 46.5 -10t33.5 -31q29 41 84 41q39 0 68 -25.5t29 -72.5t-29 -73t-68 -26q-57 0 -84 43q-4 -14 -22 -24q16 -14 27.5 -33.5t11.5 -48.5q0 -47 -29 -72.5t-68 -25.5q-53 0 -81 41q-12 -20 -34 -30.5t-46 -10.5q-41 0 -69 25.5t-28 72.5z" />
<glyph unicode="&#xdb;" d="M104 262q0 55 41 82q-41 23 -41 82q0 55 41 82q-41 23 -41 80q0 55 41 82q-41 23 -41 80t41 84q-41 23 -41 79q0 55 41 82q-41 23 -41 80t41 84q-41 23 -41 80q0 47 29 71.5t70 24.5q53 0 80 -41q27 41 82 41q39 0 68.5 -24.5t29.5 -71.5q0 -55 -41 -80q41 -29 41 -84 t-41 -80q41 -29 41 -82q0 -55 -41 -79q41 -29 41 -84t-41 -80q41 -29 41 -82q0 -55 -41 -80q41 -29 41 -82q0 -57 -41 -82q41 -29 41 -82t-41 -82q14 -6 22 -24q29 41 84 41q51 0 80 -41q29 41 82 41q51 0 80 -41q29 41 82 41t82 -41q12 18 24 24q-41 29 -40 82q0 53 40 82 q-41 25 -40 82q0 53 40 82q-41 25 -40 80q0 53 40 82q-41 25 -40 80q0 55 40 84q-41 25 -40 79q0 53 40 82q-41 25 -40 80q0 55 40 84q-41 25 -40 80q0 47 28.5 71.5t69.5 24.5q53 0 82 -41q23 41 80 41q39 0 68.5 -24.5t29.5 -71.5q0 -55 -41 -80q41 -29 41 -84t-41 -80 q41 -29 41 -82q0 -55 -41 -79q41 -29 41 -84t-41 -80q41 -29 41 -82q0 -55 -41 -80q41 -29 41 -82q0 -57 -41 -82q41 -29 41 -82t-41 -82q41 -25 41 -80q0 -47 -29.5 -72.5t-68.5 -25.5q-55 0 -80 41q-31 -41 -82 -41q-53 0 -82 41q-29 -41 -82 -41t-82 41q-29 -41 -80 -41 q-53 0 -82 41q-29 -41 -80 -41q-55 0 -84 41q-25 -41 -79 -41q-41 0 -70 25.5t-29 72.5q0 57 43 80q-16 10 -26 27q-29 -43 -80 -43q-41 0 -70 25.5t-29 72.5zM268 1561q0 47 28 72.5t69 25.5q25 0 46 -10t34 -31q4 6 10 13.5t12 11.5q-37 20 -37 80q0 47 28 72.5t68 25.5 q25 0 46.5 -10t33.5 -31q29 41 84 41q25 0 46.5 -10t33.5 -31q29 41 84 41q39 0 67.5 -25.5t28.5 -72.5q0 -29 -11 -49.5t-27 -30.5l22 -25q29 41 82 41q39 0 67.5 -25.5t28.5 -72.5t-28.5 -72.5t-67.5 -25.5q-53 0 -82 41q-12 -20 -33.5 -30.5t-46.5 -10.5 q-41 0 -68.5 25.5t-27.5 72.5q0 53 39 82q-8 4 -15.5 9t-11.5 15q-12 -23 -33.5 -33t-46.5 -10q-57 0 -84 43q-4 -14 -22 -24q16 -14 27.5 -33.5t11.5 -48.5q0 -47 -29 -72.5t-68 -25.5q-53 0 -81 41q-12 -20 -34 -30.5t-46 -10.5q-41 0 -69 25.5t-28 72.5z" />
<glyph unicode="&#xdc;" d="M104 262q0 55 41 82q-41 23 -41 82q0 55 41 82q-41 23 -41 80q0 55 41 82q-41 23 -41 80t41 84q-41 23 -41 79q0 55 41 82q-41 23 -41 80t41 84q-41 23 -41 80q0 47 29 71.5t70 24.5q53 0 80 -41q27 41 82 41q39 0 68.5 -24.5t29.5 -71.5q0 -55 -41 -80q41 -29 41 -84 t-41 -80q41 -29 41 -82q0 -55 -41 -79q41 -29 41 -84t-41 -80q41 -29 41 -82q0 -55 -41 -80q41 -29 41 -82q0 -57 -41 -82q41 -29 41 -82t-41 -82q14 -6 22 -24q29 41 84 41q51 0 80 -41q29 41 82 41q51 0 80 -41q29 41 82 41t82 -41q12 18 24 24q-41 29 -40 82q0 53 40 82 q-41 25 -40 82q0 53 40 82q-41 25 -40 80q0 53 40 82q-41 25 -40 80q0 55 40 84q-41 25 -40 79q0 53 40 82q-41 25 -40 80q0 55 40 84q-41 25 -40 80q0 47 28.5 71.5t69.5 24.5q53 0 82 -41q23 41 80 41q39 0 68.5 -24.5t29.5 -71.5q0 -55 -41 -80q41 -29 41 -84t-41 -80 q41 -29 41 -82q0 -55 -41 -79q41 -29 41 -84t-41 -80q41 -29 41 -82q0 -55 -41 -80q41 -29 41 -82q0 -57 -41 -82q41 -29 41 -82t-41 -82q41 -25 41 -80q0 -47 -29.5 -72.5t-68.5 -25.5q-55 0 -80 41q-31 -41 -82 -41q-53 0 -82 41q-29 -41 -82 -41t-82 41q-29 -41 -80 -41 q-53 0 -82 41q-29 -41 -80 -41q-55 0 -84 41q-25 -41 -79 -41q-41 0 -70 25.5t-29 72.5q0 57 43 80q-16 10 -26 27q-29 -43 -80 -43q-41 0 -70 25.5t-29 72.5zM268 1561q0 53 37 82q-37 20 -37 80q0 47 28 72.5t69 25.5q25 0 46 -10t34 -31q29 41 81 41q39 0 68 -25.5 t29 -72.5q0 -29 -11.5 -49.5t-27.5 -30.5q16 -14 27.5 -33.5t11.5 -48.5q0 -47 -29 -72.5t-68 -25.5q-53 0 -81 41q-12 -20 -34 -30.5t-46 -10.5q-41 0 -69 25.5t-28 72.5zM758 1561q0 53 39 82q-39 23 -39 80q0 47 27.5 72.5t68.5 25.5q25 0 46.5 -10t33.5 -31q29 41 82 41 q39 0 67.5 -25.5t28.5 -72.5q0 -57 -39 -80q39 -29 39 -82q0 -47 -28.5 -72.5t-67.5 -25.5q-53 0 -82 41q-12 -20 -33.5 -30.5t-46.5 -10.5q-41 0 -68.5 25.5t-27.5 72.5z" />
<glyph unicode="&#xdd;" horiz-adv-x="1359" d="M82 100q0 47 29.5 72t68.5 25q57 0 82 -41q29 41 82 41q55 0 80 -41q29 41 84 41t80 -41q29 41 82 41q55 0 80 -41q31 41 81 41q57 0 82 -41q12 18 23 24q-39 27 -39 82t39 82q-39 25 -39 82q0 55 39 82q-39 25 -39 80t39 82q-14 10 -23 24q-25 -41 -82 -41q-51 0 -81 41 q-25 -41 -80 -41q-53 0 -82 41q-25 -41 -80 -41t-84 41q-25 -41 -80 -41q-41 0 -69.5 24.5t-28.5 72.5q0 57 41 84q-16 8 -25 22q-25 -41 -82 -41q-39 0 -68.5 25.5t-29.5 72.5q0 53 41 82q-41 25 -41 80t41 84q-41 25 -41 80q0 47 29.5 71.5t68.5 24.5q59 0 82 -41 q27 41 82 41q41 0 69.5 -24.5t28.5 -71.5q0 -55 -41 -80q41 -29 41 -84t-41 -80q41 -29 41 -82q0 -55 -41 -79l12.5 -12.5t10.5 -14.5q27 41 84 41t80 -41q27 41 82 41q57 0 80 -41q29 41 81 41q59 0 82 -41q4 8 10.5 14t12.5 13q-39 25 -39 79q0 55 39 82q-39 25 -39 80 q0 57 39 84q-39 25 -39 80q0 47 28.5 71.5t69.5 24.5q57 0 80 -41q29 41 82 41q41 0 69.5 -24.5t28.5 -71.5q0 -55 -41 -80q41 -29 41 -84t-41 -80q41 -29 41 -82q0 -55 -41 -79q41 -29 41 -84t-41 -80q41 -29 41 -82q0 -55 -41 -80q41 -29 41 -82q0 -57 -41 -82 q41 -29 41 -82q0 -47 -28.5 -72.5t-69.5 -25.5q-51 0 -82 43q-10 -18 -24 -27q43 -25 43 -80q0 -47 -29 -72.5t-70 -25.5q-53 0 -82 41q-25 -41 -82 -41q-51 0 -81 41q-25 -41 -80 -41q-53 0 -82 41q-25 -41 -80 -41t-84 41q-25 -41 -80 -41q-53 0 -82 41q-29 -41 -76 -41 q-53 0 -78.5 22.5t-25.5 75.5zM581 1561q0 47 28 72.5t69 25.5q25 0 46 -10t34 -31q4 6 10 13.5t12 11.5q-37 20 -37 80q0 47 28 72.5t68 25.5q25 0 46.5 -10t33.5 -31q29 41 84 41q39 0 68 -25.5t29 -72.5t-29 -73t-68 -26q-57 0 -84 43q-4 -14 -22 -24q16 -14 27.5 -33.5 t11.5 -48.5q0 -47 -29 -72.5t-68 -25.5q-53 0 -81 41q-12 -20 -34 -30.5t-46 -10.5q-41 0 -69 25.5t-28 72.5z" />
<glyph unicode="&#xde;" horiz-adv-x="1175" d="M104 104q0 53 37 78q-37 25 -37 84q0 53 37 78q-37 25 -37 84q0 53 37 80q-37 25 -37 82q0 53 37 80q-37 25 -37 82q0 53 37 79q-37 25 -37 82q0 53 37 82q-37 20 -37 80q0 53 39 82q-39 23 -39 80q0 47 28 72.5t69 25.5q25 0 46 -10t34 -31q29 41 81 41q39 0 68 -25.5 t29 -72.5q0 -29 -11.5 -49.5t-27.5 -30.5q18 -14 22 -27q27 43 84 44q25 0 46.5 -10.5t33.5 -33.5q27 43 84 44q25 0 46.5 -10.5t33.5 -33.5q27 43 82 44q39 0 67.5 -26t28.5 -73q0 -57 -39 -80l25 -26q25 43 80 43q39 0 67.5 -25.5t28.5 -73.5q0 -55 -39 -82q39 -27 39 -79 q0 -55 -39 -82q39 -27 39 -80q0 -55 -39 -82q39 -27 39 -80q0 -49 -28.5 -74.5t-67.5 -25.5q-55 0 -80 41q-4 -8 -11.5 -14.5t-13.5 -10.5q39 -27 39 -78q0 -49 -28.5 -74.5t-67.5 -25.5q-53 0 -82 41q-12 -20 -33.5 -30.5t-46.5 -10.5q-57 0 -84 43q-12 -23 -33.5 -33 t-46.5 -10q-57 0 -84 43q-6 -16 -22 -27q16 -12 27.5 -30.5t11.5 -47.5q0 -49 -29 -74.5t-68 -25.5q-55 0 -81 41q-12 -23 -34 -32t-46 -9q-41 0 -69 25.5t-28 74.5zM420 344q16 -10 22 -25q31 43 84 43t80 -43q31 43 84 43t80 -40q10 16 23 22q-37 27 -37 84q0 53 37 80 q-37 27 -37 82q0 53 37 80q-37 27 -37 82q0 53 37 79q-37 27 -37 82q0 51 37 82q-12 6 -23 23q-12 -20 -33.5 -30.5t-46.5 -10.5q-57 0 -84 43q-12 -23 -33.5 -33t-46.5 -10q-57 0 -84 43q-6 -18 -22 -25q16 -14 27.5 -33.5t11.5 -48.5t-11.5 -49t-27.5 -33 q16 -12 27.5 -32.5t11.5 -46.5q0 -29 -11.5 -49.5t-27.5 -32.5q16 -12 27.5 -33t11.5 -47q0 -29 -11.5 -49.5t-27.5 -32.5q16 -12 27.5 -32.5t11.5 -47.5q0 -29 -11.5 -50.5t-27.5 -33.5z" />
<glyph unicode="&#xdf;" horiz-adv-x="1378" d="M104 100q0 57 41 80q-41 27 -41 82t41 82q-41 23 -41 82q0 55 41 82q-41 23 -41 80q0 55 41 82q-41 23 -41 80t41 84q-41 23 -41 79q0 55 41 82q-41 23 -41 80q0 47 29 73t70 26q57 0 80 -41q4 8 11 14t15 12q-43 23 -43 80q0 47 29 71.5t70 24.5q57 0 79 -41 q29 41 84 41q57 0 80 -41q29 41 82 41t80 -41q27 41 82 41t82 -41q27 41 82 41q39 0 66.5 -24.5t27.5 -71.5q0 -55 -39 -80q8 -6 15.5 -12t11.5 -14q23 41 80 41q39 0 67.5 -26t28.5 -73q0 -55 -39 -80q39 -27 39 -82q0 -47 -28.5 -72.5t-67.5 -25.5q-55 0 -80 41 q-10 -16 -27 -22q39 -27 39 -84q0 -55 -39 -80q18 -10 27 -25q25 41 80 41q39 0 67.5 -25.5t28.5 -72.5q0 -55 -39 -80q39 -27 39 -82q0 -57 -39 -82q39 -27 39 -82q0 -47 -28.5 -72.5t-69.5 -25.5q-53 0 -78 43q-10 -16 -27 -27q39 -25 39 -80q0 -47 -27.5 -72.5 t-66.5 -25.5q-53 0 -82 41q-29 -41 -82 -41t-82 41q-29 -41 -80 -41q-102 0 -102 104q0 91 102 91q51 0 80 -41q29 41 82 41t82 -41q12 18 24 24q-41 29 -40 82q0 53 40 82q-41 25 -40 82q0 53 40 82q-41 25 -40 80q0 53 40 82q-16 8 -24 24q-29 -41 -82 -41q-94 0 -94 99 q0 96 94 96q55 0 82 -41q8 14 24 27q-41 25 -40 79q0 53 40 82q-41 25 -40 80q0 55 40 84q-14 6 -24 23q-29 -41 -82 -41t-82 41q-29 -41 -80 -41t-82 41q-25 -41 -80 -41q-53 0 -84 41q-6 -16 -22 -23q41 -29 41 -84t-41 -80q41 -23 41 -75q0 -74 -41 -86q41 -29 41 -84 t-41 -80q41 -29 41 -82q0 -55 -41 -80q41 -29 41 -82q0 -57 -41 -82q41 -29 41 -82t-41 -82q41 -25 41 -80q0 -47 -28.5 -72.5t-69.5 -25.5q-51 0 -82 41q-25 -41 -80 -41q-41 0 -70 25.5t-29 72.5z" />
<glyph unicode="&#xe0;" d="M104 262q0 55 43 82q-43 23 -43 82q0 47 29 71.5t70 24.5q55 0 80 -41q6 8 12 15.5t14 11.5q-41 23 -41 80q0 47 29 72.5t70 25.5q55 0 79 -41q31 41 82 41q55 0 80 -41q31 41 82 41q57 0 82 -41q29 41 82 41q55 0 80 -41q8 14 27 25q-41 25 -41 80t41 84q-16 6 -27 22 q-25 -41 -80 -41q-53 0 -82 41q-25 -41 -82 -41q-51 0 -82 41q-25 -41 -80 -41q-51 0 -82 41q-25 -41 -79 -41q-53 0 -84 41q-25 -41 -76 -41t-77 22.5t-26 75.5q0 47 29 73t70 26q57 0 80 -43q29 43 84 43q57 0 79 -43q29 43 82 43q57 0 80 -43q29 43 82 43q59 0 82 -43 q27 43 82 43q57 0 80 -43q29 43 82 43q41 0 69.5 -25.5t28.5 -73.5q0 -55 -41 -79q16 -12 25 -27q27 41 82 41q41 0 68.5 -25.5t27.5 -72.5q0 -55 -41 -80q41 -29 41 -82q0 -55 -41 -80q41 -29 41 -82q0 -57 -41 -82q41 -29 41 -82t-41 -82q41 -25 41 -80q0 -47 -28.5 -72.5 t-67.5 -25.5q-53 0 -82 41q-29 -41 -82 -41q-51 0 -82 41q-25 -41 -80 -41q-53 0 -82 41q-25 -41 -82 -41q-51 0 -82 41q-25 -41 -80 -41q-51 0 -82 41q-25 -41 -79 -41q-41 0 -70 25.5t-29 72.5q0 57 41 80q-8 4 -14 11.5t-12 15.5q-25 -43 -80 -43q-41 0 -70 25.5 t-29 72.5zM266 1399q0 47 28 72.5t69 25.5q25 0 46 -10t34 -31q29 41 81 41q39 0 68 -25.5t29 -72.5q0 -29 -11.5 -49.5t-27.5 -30.5q16 -14 22 -25q29 41 84 41q39 0 68 -25.5t29 -72.5t-29 -72.5t-68 -25.5q-57 0 -84 43q-12 -23 -33.5 -33t-46.5 -10q-41 0 -68.5 25.5 t-27.5 72.5q0 53 37 82q-6 4 -12 9t-10 13q-12 -20 -34 -30.5t-46 -10.5q-41 0 -69 26t-28 73zM422 180q12 -6 24 -24q31 41 82 41q55 0 80 -41q31 41 82 41q57 0 82 -41q29 41 82 41q55 0 80 -41q10 18 27 24q-41 29 -41 82t41 82q-41 25 -41 82q0 53 41 82q-16 6 -27 22 q-25 -41 -80 -41q-53 0 -82 41q-25 -41 -82 -41q-51 0 -82 41q-25 -41 -80 -41q-51 0 -82 41q-10 -16 -24 -22q41 -29 41 -82q0 -57 -41 -82q41 -29 41 -82t-41 -82z" />
<glyph unicode="&#xe1;" d="M104 262q0 55 43 82q-43 23 -43 82q0 47 29 71.5t70 24.5q55 0 80 -41q6 8 12 15.5t14 11.5q-41 23 -41 80q0 47 29 72.5t70 25.5q55 0 79 -41q31 41 82 41q55 0 80 -41q31 41 82 41q57 0 82 -41q29 41 82 41q55 0 80 -41q8 14 27 25q-41 25 -41 80t41 84q-16 6 -27 22 q-25 -41 -80 -41q-53 0 -82 41q-25 -41 -82 -41q-51 0 -82 41q-25 -41 -80 -41q-51 0 -82 41q-25 -41 -79 -41q-53 0 -84 41q-25 -41 -76 -41t-77 22.5t-26 75.5q0 47 29 73t70 26q57 0 80 -43q29 43 84 43q57 0 79 -43q29 43 82 43q57 0 80 -43q29 43 82 43q59 0 82 -43 q27 43 82 43q57 0 80 -43q29 43 82 43q41 0 69.5 -25.5t28.5 -73.5q0 -55 -41 -79q16 -12 25 -27q27 41 82 41q41 0 68.5 -25.5t27.5 -72.5q0 -55 -41 -80q41 -29 41 -82q0 -55 -41 -80q41 -29 41 -82q0 -57 -41 -82q41 -29 41 -82t-41 -82q41 -25 41 -80q0 -47 -28.5 -72.5 t-67.5 -25.5q-53 0 -82 41q-29 -41 -82 -41q-51 0 -82 41q-25 -41 -80 -41q-53 0 -82 41q-25 -41 -82 -41q-51 0 -82 41q-25 -41 -80 -41q-51 0 -82 41q-25 -41 -79 -41q-41 0 -70 25.5t-29 72.5q0 57 41 80q-8 4 -14 11.5t-12 15.5q-25 -43 -80 -43q-41 0 -70 25.5 t-29 72.5zM422 180q12 -6 24 -24q31 41 82 41q55 0 80 -41q31 41 82 41q57 0 82 -41q29 41 82 41q55 0 80 -41q10 18 27 24q-41 29 -41 82t41 82q-41 25 -41 82q0 53 41 82q-16 6 -27 22q-25 -41 -80 -41q-53 0 -82 41q-25 -41 -82 -41q-51 0 -82 41q-25 -41 -80 -41 q-51 0 -82 41q-10 -16 -24 -22q41 -29 41 -82q0 -57 -41 -82q41 -29 41 -82t-41 -82zM591 1237q0 47 28 72.5t69 25.5q25 0 46 -10t34 -31q4 6 10 13.5t12 11.5q-37 20 -37 80q0 47 28 72.5t68 25.5q25 0 46.5 -10t33.5 -31q29 41 84 41q39 0 68 -25.5t29 -72.5t-29 -73 t-68 -26q-57 0 -84 43q-4 -14 -22 -24q16 -14 27.5 -33.5t11.5 -48.5q0 -47 -29 -72.5t-68 -25.5q-53 0 -81 41q-12 -20 -34 -30.5t-46 -10.5q-41 0 -69 25.5t-28 72.5z" />
<glyph unicode="&#xe2;" d="M104 262q0 55 43 82q-43 23 -43 82q0 47 29 71.5t70 24.5q55 0 80 -41q6 8 12 15.5t14 11.5q-41 23 -41 80q0 47 29 72.5t70 25.5q55 0 79 -41q31 41 82 41q55 0 80 -41q31 41 82 41q57 0 82 -41q29 41 82 41q55 0 80 -41q8 14 27 25q-41 25 -41 80t41 84q-16 6 -27 22 q-25 -41 -80 -41q-53 0 -82 41q-25 -41 -82 -41q-51 0 -82 41q-25 -41 -80 -41q-51 0 -82 41q-25 -41 -79 -41q-53 0 -84 41q-25 -41 -76 -41t-77 22.5t-26 75.5q0 47 29 73t70 26q57 0 80 -43q29 43 84 43q57 0 79 -43q29 43 82 43q57 0 80 -43q29 43 82 43q59 0 82 -43 q27 43 82 43q57 0 80 -43q29 43 82 43q41 0 69.5 -25.5t28.5 -73.5q0 -55 -41 -79q16 -12 25 -27q27 41 82 41q41 0 68.5 -25.5t27.5 -72.5q0 -55 -41 -80q41 -29 41 -82q0 -55 -41 -80q41 -29 41 -82q0 -57 -41 -82q41 -29 41 -82t-41 -82q41 -25 41 -80q0 -47 -28.5 -72.5 t-67.5 -25.5q-53 0 -82 41q-29 -41 -82 -41q-51 0 -82 41q-25 -41 -80 -41q-53 0 -82 41q-25 -41 -82 -41q-51 0 -82 41q-25 -41 -80 -41q-51 0 -82 41q-25 -41 -79 -41q-41 0 -70 25.5t-29 72.5q0 57 41 80q-8 4 -14 11.5t-12 15.5q-25 -43 -80 -43q-41 0 -70 25.5 t-29 72.5zM268 1237q0 47 28 72.5t69 25.5q25 0 46 -10t34 -31q4 6 10 13.5t12 11.5q-37 20 -37 80q0 47 28 72.5t68 25.5q25 0 46.5 -10t33.5 -31q29 41 84 41q25 0 46.5 -10t33.5 -31q29 41 84 41q39 0 67.5 -25.5t28.5 -72.5q0 -29 -11 -49.5t-27 -30.5l22 -25 q29 41 82 41q39 0 67.5 -25.5t28.5 -72.5t-28.5 -72.5t-67.5 -25.5q-53 0 -82 41q-12 -20 -33.5 -30.5t-46.5 -10.5q-41 0 -68.5 25.5t-27.5 72.5q0 53 39 82q-8 4 -15.5 9t-11.5 15q-12 -23 -33.5 -33t-46.5 -10q-57 0 -84 43q-4 -14 -22 -24q16 -14 27.5 -33.5t11.5 -48.5 q0 -47 -29 -72.5t-68 -25.5q-53 0 -81 41q-12 -20 -34 -30.5t-46 -10.5q-41 0 -69 25.5t-28 72.5zM422 180q12 -6 24 -24q31 41 82 41q55 0 80 -41q31 41 82 41q57 0 82 -41q29 41 82 41q55 0 80 -41q10 18 27 24q-41 29 -41 82t41 82q-41 25 -41 82q0 53 41 82 q-16 6 -27 22q-25 -41 -80 -41q-53 0 -82 41q-25 -41 -82 -41q-51 0 -82 41q-25 -41 -80 -41q-51 0 -82 41q-10 -16 -24 -22q41 -29 41 -82q0 -57 -41 -82q41 -29 41 -82t-41 -82z" />
</font>
</defs>
</svg>
